SplineFontDB: 3.0
FontName: Dhyana-Bold
FullName: Dhyana Bold
FamilyName: Dhyana
Weight: Bold
Copyright: Copyright (c) 2011 Vernon Adams (vern@newtypography.co.uk), with Reserved Font Names "Dhyana"
Version: 1.001
ItalicAngle: 0
UnderlinePosition: -188
UnderlineWidth: 48
Ascent: 1638
Descent: 410
sfntRevision: 0x00010000
LayerCount: 2
Layer: 0 1 "Back"  1
Layer: 1 1 "Fore"  0
XUID: [1021 288 713564382 15590361]
FSType: 0
OS2Version: 2
OS2_WeightWidthSlopeOnly: 0
OS2_UseTypoMetrics: 1
CreationTime: 1283209859
ModificationTime: 1291306050
PfmFamily: 17
TTFWeight: 700
TTFWidth: 5
LineGap: 0
VLineGap: 0
Panose: 2 0 8 3 5 0 0 2 0 4
OS2TypoAscent: 1384
OS2TypoAOffset: 1
OS2TypoDescent: -260
OS2TypoDOffset: 1
OS2TypoLinegap: 0
OS2WinAscent: 504
OS2WinAOffset: 1
OS2WinDescent: 0
OS2WinDOffset: 1
HheadAscent: 504
HheadAOffset: 1
HheadDescent: 0
HheadDOffset: 1
OS2SubXSize: 1331
OS2SubYSize: 1433
OS2SubXOff: 0
OS2SubYOff: 286
OS2SupXSize: 1331
OS2SupYSize: 1433
OS2SupXOff: 0
OS2SupYOff: 983
OS2StrikeYSize: 102
OS2StrikeYPos: 512
OS2Vendor: 'PfEd'
OS2CodePages: 00000001.00000000
OS2UnicodeRanges: 8200006f.1000200a.00000000.00000000
Lookup: 1 0 0 "'liga' Standard Ligatures lookup 0"  {"'liga' Standard Ligatures lookup 0 subtable"  } ['liga' ('lao ' <'dflt' > 'latn' <'dflt' > ) ]
Lookup: 4 0 1 "'liga' Standard Ligatures lookup 1"  {"'liga' Standard Ligatures lookup 1 subtable"  } ['liga' ('lao ' <'dflt' > 'latn' <'dflt' > ) ]
Lookup: 258 0 0 "'kern' Horizontal Kerning in Latin lookup 0"  {"'kern' Horizontal Kerning in Latin lookup 0 subtable"  } ['kern' ('latn' <'dflt' > ) ]
MarkAttachClasses: 1
DEI: 91125
TtTable: prep
PUSHW_1
 511
SCANCTRL
PUSHB_1
 1
SCANTYPE
SVTCA[y-axis]
MPPEM
PUSHB_1
 8
LT
IF
PUSHB_2
 1
 1
INSTCTRL
EIF
PUSHB_2
 70
 6
CALL
IF
POP
PUSHB_1
 16
EIF
MPPEM
PUSHB_1
 20
GT
IF
POP
PUSHB_1
 128
EIF
SCVTCI
PUSHB_1
 6
CALL
NOT
IF
SVTCA[y-axis]
PUSHB_1
 6
DUP
RCVT
PUSHB_1
 3
CALL
WCVTP
PUSHB_1
 15
DUP
RCVT
PUSHW_3
 6
 273
 2
CALL
PUSHB_1
 3
CALL
WCVTP
PUSHB_1
 14
DUP

StartChar: .notdef
Encoding: 65536 -1 0
Width: 761
Flags: W
LayerCount: 2
Fore
SplineSet
554 69 m 1,0,-1
 554 1320 l 1,1,-1
 138 1320 l 1,2,-1
 138 69 l 1,3,-1
 554 69 l 1,0,-1
69 1390 m 1,4,-1
 623 1390 l 1,5,-1
 623 0 l 1,6,-1
 69 0 l 1,7,-1
 69 1390 l 1,4,-1
EndSplineSet
EndChar

StartChar: exclam
Encoding: 33 33 6
Width: 768
GlyphClass: 2
Flags: W
LayerCount: 2
Fore
SplineSet
276 26 m 1,0,1
 243 84 243 84 243 161 c 0,2,3
 243 215 243 215 265 264 c 1,4,5
 293 287 293 287 329.5 300 c 128,-1,6
 366 313 366 313 409 313 c 0,7,8
 484 313 484 313 522 276 c 128,-1,9
 560 239 560 239 560 161 c 0,10,11
 560 124 560 124 552.5 93.5 c 128,-1,12
 545 63 545 63 528 40.5 c 128,-1,13
 511 18 511 18 481.5 5.5 c 128,-1,14
 452 -7 452 -7 409 -7 c 0,15,16
 333 -7 333 -7 276 26 c 1,0,1
491 464 m 1,17,-1
 297 464 l 1,18,-1
 228 1607 l 1,19,-1
 557 1607 l 1,20,-1
 491 464 l 1,17,-1
EndSplineSet
EndChar

StartChar: quotedbl
Encoding: 34 34 7
Width: 897
GlyphClass: 2
Flags: W
LayerCount: 2
Fore
SplineSet
874 1607 m 1,0,-1
 859 1483 l 1,1,-1
 775 920 l 1,2,-1
 597 920 l 1,3,-1
 531 1483 l 1,4,-1
 520 1607 l 1,5,-1
 874 1607 l 1,0,-1
416 1607 m 1,6,-1
 403 1498 l 1,7,-1
 317 920 l 1,8,-1
 139 920 l 1,9,-1
 71 1498 l 1,10,-1
 62 1607 l 1,11,-1
 416 1607 l 1,6,-1
EndSplineSet
EndChar

StartChar: numbersign
Encoding: 35 35 8
Width: 1278
GlyphClass: 2
Flags: W
LayerCount: 2
Fore
SplineSet
749 633 m 1,0,-1
 778 874 l 1,1,-1
 584 874 l 1,2,-1
 553 633 l 1,3,-1
 749 633 l 1,0,-1
537 490 m 1,4,-1
 484 118 l 1,5,-1
 287 118 l 1,6,-1
 340 490 l 1,7,-1
 174 490 l 1,8,-1
 174 633 l 1,9,-1
 354 633 l 1,10,-1
 384 874 l 1,11,-1
 185 874 l 1,12,-1
 185 1019 l 1,13,-1
 403 1019 l 1,14,-1
 452 1395 l 1,15,-1
 646 1395 l 1,16,-1
 599 1019 l 1,17,-1
 801 1019 l 1,18,-1
 845 1395 l 1,19,-1
 1043 1395 l 1,20,-1
 996 1019 l 1,21,-1
 1155 1019 l 1,22,-1
 1155 874 l 1,23,-1
 979 874 l 1,24,-1
 948 633 l 1,25,-1
 1146 633 l 1,26,-1
 1146 490 l 1,27,-1
 931 490 l 1,28,-1
 881 118 l 1,29,-1
 684 118 l 1,30,-1
 736 490 l 1,31,-1
 537 490 l 1,4,-1
EndSplineSet
EndChar

StartChar: dollar
Encoding: 36 36 9
Width: 1306
GlyphClass: 2
Flags: W
LayerCount: 2
Fore
SplineSet
713 209 m 1,0,1
 801 220 801 220 854.5 270.5 c 128,-1,2
 908 321 908 321 908 402 c 0,3,4
 908 435 908 435 900.5 461 c 128,-1,5
 893 487 893 487 876.5 509.5 c 128,-1,6
 860 532 860 532 832 551 c 128,-1,7
 804 570 804 570 764 588 c 0,8,9
 740 598 740 598 713 609 c 1,10,-1
 713 209 l 1,0,1
604 1256 m 1,11,12
 486 1254 486 1254 429 1216.5 c 128,-1,13
 372 1179 372 1179 372 1096 c 0,14,15
 372 1080 372 1080 375.5 1064.5 c 128,-1,16
 379 1049 379 1049 390.5 1033.5 c 128,-1,17
 402 1018 402 1018 422.5 1002.5 c 128,-1,18
 443 987 443 987 477 971 c 0,19,20
 526 948 526 948 604 921 c 1,21,-1
 604 1256 l 1,11,12
604 1614 m 1,22,-1
 713 1614 l 1,23,-1
 713 1479 l 1,24,25
 780 1475 780 1475 843.5 1464 c 128,-1,26
 907 1453 907 1453 960.5 1439 c 128,-1,27
 1014 1425 1014 1425 1055 1410.5 c 128,-1,28
 1096 1396 1096 1396 1118 1384 c 1,29,-1
 1050 1175 l 1,30,31
 991 1196 991 1196 932 1214 c 1,32,33
 881 1228 881 1228 822.5 1240.5 c 128,-1,34
 764 1253 764 1253 713 1253 c 1,35,-1
 713 884 l 1,36,37
 751 870 751 870 786 856.5 c 128,-1,38
 821 843 821 843 856 829 c 0,39,40
 1011 767 1011 767 1097 671 c 128,-1,41
 1183 575 1183 575 1183 436 c 0,42,43
 1183 324 1183 324 1149.5 240.5 c 128,-1,44
 1116 157 1116 157 1054.5 100 c 128,-1,45
 993 43 993 43 906 11.5 c 128,-1,46
 819 -20 819 -20 713 -28 c 1,47,-1
 713 -162 l 1,48,-1
 604 -162 l 1,49,-1
 604 -30 l 1,50,51
 568 -30 568 -30 529.5 -25 c 128,-1,52
 491 -20 491 -20 452 -12 c 128,-1,53
 413 -4 413 -4 375.5 6.5 c 128,-1,54
 338 17 338 17 304 28 c 0,55,56
 225 54 225 54 147 86 c 1,57,-1
 207 307 l 1,58,59
 275 277 275 277 345 253 c 0,60,61
 405 233 405 233 474 216.5 c 128,-1,62
 543 200 543 200 604 200 c 1,63,-1
 604 648 l 1,64,65
 533 674 533 674 468 699.5 c 128,-1,66
 403 725 403 725 342 751 c 1,67,68
 217 807 217 807 158.5 891 c 128,-1,69
 100 975 100 975 100 1093 c 0,70,71
 100 1207 100 1207 139 1281 c 128,-1,72
 178 1355 178 1355 246.5 1399 c 128,-1,73
 315 1443 315 1443 407 1462 c 128,-1,74
 499 1481 499 1481 604 1484 c 1,75,-1
 604 1614 l 1,22,-1
EndSplineSet
EndChar

StartChar: percent
Encoding: 37 37 10
Width: 1724
GlyphClass: 2
Flags: W
LayerCount: 2
Fore
SplineSet
1390 174 m 256,0,1
 1434 174 1434 174 1467 189 c 128,-1,2
 1500 204 1500 204 1521.5 238 c 128,-1,3
 1543 272 1543 272 1554 325.5 c 128,-1,4
 1565 379 1565 379 1565 457 c 0,5,6
 1565 606 1565 606 1523.5 677.5 c 128,-1,7
 1482 749 1482 749 1390 749 c 0,8,9
 1297 749 1297 749 1256.5 677.5 c 128,-1,10
 1216 606 1216 606 1216 457 c 0,11,12
 1216 379 1216 379 1226.5 325.5 c 128,-1,13
 1237 272 1237 272 1258.5 238 c 128,-1,14
 1280 204 1280 204 1313 189 c 128,-1,15
 1346 174 1346 174 1390 174 c 256,0,1
1393 12 m 256,16,17
 1323 12 1323 12 1269.5 31.5 c 128,-1,18
 1216 51 1216 51 1175.5 84 c 128,-1,19
 1135 117 1135 117 1107.5 161 c 128,-1,20
 1080 205 1080 205 1063.5 253.5 c 128,-1,21
 1047 302 1047 302 1039.5 353 c 128,-1,22
 1032 404 1032 404 1032 451 c 0,23,24
 1032 683 1032 683 1126 799.5 c 128,-1,25
 1220 916 1220 916 1393 916 c 0,26,27
 1570 916 1570 916 1662 800.5 c 128,-1,28
 1754 685 1754 685 1754 451 c 0,29,30
 1754 407 1754 407 1747 357 c 128,-1,31
 1740 307 1740 307 1723 258 c 128,-1,32
 1706 209 1706 209 1679 164.5 c 128,-1,33
 1652 120 1652 120 1611.5 86 c 128,-1,34
 1571 52 1571 52 1517 32 c 128,-1,35
 1463 12 1463 12 1393 12 c 256,16,17
387 788 m 256,36,37
 431 788 431 788 464 803 c 128,-1,38
 497 818 497 818 518.5 851.5 c 128,-1,39
 540 885 540 885 551 939 c 128,-1,40
 562 993 562 993 562 1070 c 0,41,42
 562 1219 562 1219 520.5 1290.5 c 128,-1,43
 479 1362 479 1362 387 1362 c 256,44,45
 295 1362 295 1362 254 1290.5 c 128,-1,46
 213 1219 213 1219 213 1070 c 0,47,48
 213 993 213 993 223.5 939 c 128,-1,49
 234 885 234 885 256 851.5 c 128,-1,50
 278 818 278 818 310.5 803 c 128,-1,51
 343 788 343 788 387 788 c 256,36,37
391 625 m 256,52,53
 321 625 321 625 267 644.5 c 128,-1,54
 213 664 213 664 173 697 c 128,-1,55
 133 730 133 730 105.5 774 c 128,-1,56
 78 818 78 818 61 866.5 c 128,-1,57
 44 915 44 915 36.5 966 c 128,-1,58
 29 1017 29 1017 29 1064 c 0,59,60
 29 1297 29 1297 123.5 1413.5 c 128,-1,61
 218 1530 218 1530 391 1530 c 0,62,63
 566 1530 566 1530 659 1413.5 c 128,-1,64
 752 1297 752 1297 752 1064 c 0,65,66
 752 1020 752 1020 745 970 c 128,-1,67
 738 920 738 920 721 871 c 128,-1,68
 704 822 704 822 677 777.5 c 128,-1,69
 650 733 650 733 609.5 699 c 128,-1,70
 569 665 569 665 515 645 c 128,-1,71
 461 625 461 625 391 625 c 256,52,53
1136 1527 m 1,72,-1
 1308 1437 l 1,73,-1
 609 -33 l 1,74,-1
 436 49 l 1,75,-1
 1136 1527 l 1,72,-1
EndSplineSet
EndChar

StartChar: ampersand
Encoding: 38 38 11
Width: 1740
GlyphClass: 2
Flags: W
LayerCount: 2
Fore
SplineSet
416 451 m 0,0,1
 416 321 416 321 503 250.5 c 128,-1,2
 590 180 590 180 780 180 c 0,3,4
 878 180 878 180 950 193 c 128,-1,5
 1022 206 1022 206 1071 224.5 c 128,-1,6
 1120 243 1120 243 1148 264 c 128,-1,7
 1176 285 1176 285 1186 302 c 1,8,-1
 675 728 l 1,9,10
 617 714 617 714 569 691.5 c 128,-1,11
 521 669 521 669 487 635.5 c 128,-1,12
 453 602 453 602 434.5 556.5 c 128,-1,13
 416 511 416 511 416 451 c 0,0,1
780 -40 m 0,14,15
 639 -40 639 -40 522.5 -12.5 c 128,-1,16
 406 15 406 15 323.5 72 c 128,-1,17
 241 129 241 129 195.5 217 c 128,-1,18
 150 305 150 305 150 427 c 0,19,20
 150 524 150 524 177 596.5 c 128,-1,21
 204 669 204 669 252 723 c 128,-1,22
 300 777 300 777 365.5 815.5 c 128,-1,23
 431 854 431 854 507 883 c 1,24,25
 499 888 499 888 480.5 903 c 128,-1,26
 462 918 462 918 438.5 941 c 128,-1,27
 415 964 415 964 389.5 995 c 128,-1,28
 364 1026 364 1026 343 1063 c 128,-1,29
 322 1100 322 1100 308.5 1141.5 c 128,-1,30
 295 1183 295 1183 295 1229 c 0,31,32
 295 1309 295 1309 329 1373 c 128,-1,33
 363 1437 363 1437 423 1481.5 c 128,-1,34
 483 1526 483 1526 566.5 1550 c 128,-1,35
 650 1574 650 1574 749 1574 c 0,36,37
 851 1574 851 1574 933 1549 c 128,-1,38
 1015 1524 1015 1524 1072.5 1478.5 c 128,-1,39
 1130 1433 1130 1433 1161 1370.5 c 128,-1,40
 1192 1308 1192 1308 1192 1233 c 0,41,42
 1192 1085 1192 1085 1112.5 981.5 c 128,-1,43
 1033 878 1033 878 873 823 c 1,44,-1
 1270 495 l 1,45,46
 1274 555 1274 555 1275 622.5 c 128,-1,47
 1276 690 1276 690 1276 753 c 0,48,49
 1276 792 1276 792 1275.5 824.5 c 128,-1,50
 1275 857 1275 857 1275 875 c 1,51,-1
 1518 875 l 1,52,53
 1518 849 1518 849 1516.5 810.5 c 128,-1,54
 1515 772 1515 772 1512 727 c 128,-1,55
 1509 682 1509 682 1505.5 634.5 c 128,-1,56
 1502 587 1502 587 1498 543 c 128,-1,57
 1494 499 1494 499 1489 461.5 c 128,-1,58
 1484 424 1484 424 1480 400 c 2,59,-1
 1467 332 l 1,60,-1
 1721 118 l 1,61,-1
 1596 -36 l 1,62,-1
 1364 159 l 1,63,64
 1295 62 1295 62 1151 11 c 128,-1,65
 1007 -40 1007 -40 780 -40 c 0,14,15
966 1211 m 0,66,67
 966 1296 966 1296 910 1338.5 c 128,-1,68
 854 1381 854 1381 755 1381 c 0,69,70
 546 1381 546 1381 546 1214 c 0,71,72
 546 1172 546 1172 563.5 1136.5 c 128,-1,73
 581 1101 581 1101 608 1069 c 1,74,75
 628 1047 628 1047 653.5 1023 c 128,-1,76
 679 999 679 999 710 982 c 1,77,78
 746 992 746 992 790.5 1009 c 128,-1,79
 835 1026 835 1026 874 1053 c 128,-1,80
 913 1080 913 1080 939.5 1118.5 c 128,-1,81
 966 1157 966 1157 966 1211 c 0,66,67
EndSplineSet
EndChar

StartChar: quotesingle
Encoding: 39 39 12
Width: 625
GlyphClass: 2
Flags: W
LayerCount: 2
Fore
SplineSet
489 1607 m 1,0,-1
 477 1498 l 1,1,-1
 391 920 l 1,2,-1
 212 920 l 1,3,-1
 144 1498 l 1,4,-1
 136 1607 l 1,5,-1
 489 1607 l 1,0,-1
EndSplineSet
EndChar

StartChar: parenleft
Encoding: 40 40 13
Width: 859
GlyphClass: 2
Flags: W
LayerCount: 2
Fore
SplineSet
203 698 m 0,0,1
 203 878 203 878 240.5 1031 c 128,-1,2
 278 1184 278 1184 338.5 1307.5 c 128,-1,3
 399 1431 399 1431 476.5 1523.5 c 128,-1,4
 554 1616 554 1616 634 1675 c 1,5,-1
 777 1504 l 1,6,7
 720 1451 720 1451 666 1372 c 128,-1,8
 612 1293 612 1293 569 1190 c 128,-1,9
 526 1087 526 1087 500 963 c 128,-1,10
 474 839 474 839 474 698 c 256,11,12
 474 557 474 557 499 434.5 c 128,-1,13
 524 312 524 312 565.5 211 c 128,-1,14
 607 110 607 110 661 32.5 c 128,-1,15
 715 -45 715 -45 773 -97 c 1,16,-1
 641 -270 l 1,17,18
 565 -215 565 -215 487 -126.5 c 128,-1,19
 409 -38 409 -38 346 83 c 128,-1,20
 283 204 283 204 243 358 c 128,-1,21
 203 512 203 512 203 698 c 0,0,1
EndSplineSet
EndChar

StartChar: parenright
Encoding: 41 41 14
Width: 857
GlyphClass: 2
Flags: W
LayerCount: 2
Fore
SplineSet
670 713 m 0,0,1
 670 528 670 528 632 373.5 c 128,-1,2
 594 219 594 219 532 96 c 128,-1,3
 470 -27 470 -27 392 -118.5 c 128,-1,4
 314 -210 314 -210 233 -270 c 1,5,-1
 95 -98 l 1,6,7
 152 -46 152 -46 206.5 34.5 c 128,-1,8
 261 115 261 115 303.5 218 c 128,-1,9
 346 321 346 321 372 444.5 c 128,-1,10
 398 568 398 568 398 707 c 0,11,12
 398 847 398 847 373 969 c 128,-1,13
 348 1091 348 1091 306 1192.5 c 128,-1,14
 264 1294 264 1294 210 1372.5 c 128,-1,15
 156 1451 156 1451 99 1504 c 1,16,-1
 231 1677 l 1,17,18
 277 1643 277 1643 327.5 1593.5 c 128,-1,19
 378 1544 378 1544 427 1479 c 128,-1,20
 476 1414 476 1414 520 1334 c 128,-1,21
 564 1254 564 1254 597.5 1158 c 128,-1,22
 631 1062 631 1062 650.5 951 c 128,-1,23
 670 840 670 840 670 713 c 0,0,1
EndSplineSet
EndChar

StartChar: asterisk
Encoding: 42 42 15
Width: 998
GlyphClass: 2
Flags: W
LayerCount: 2
Fore
SplineSet
617 1640 m 1,0,-1
 778 1546 l 1,1,-1
 631 1291 l 1,2,-1
 911 1291 l 1,3,-1
 911 1134 l 1,4,-1
 634 1134 l 1,5,-1
 785 883 l 1,6,-1
 622 787 l 1,7,-1
 483 1033 l 1,8,-1
 344 788 l 1,9,-1
 182 883 l 1,10,-1
 333 1134 l 1,11,-1
 44 1134 l 1,12,-1
 44 1291 l 1,13,-1
 336 1291 l 1,14,-1
 188 1548 l 1,15,-1
 349 1639 l 1,16,-1
 481 1392 l 1,17,-1
 617 1640 l 1,0,-1
EndSplineSet
EndChar

StartChar: plus
Encoding: 43 43 16
Width: 1074
GlyphClass: 2
Flags: W
LayerCount: 2
Fore
SplineSet
668 485 m 1,0,-1
 668 130 l 1,1,-1
 434 130 l 1,2,-1
 434 485 l 1,3,-1
 137 485 l 1,4,-1
 137 705 l 1,5,-1
 434 705 l 1,6,-1
 434 1059 l 1,7,-1
 668 1059 l 1,8,-1
 668 705 l 1,9,-1
 966 705 l 1,10,-1
 966 485 l 1,11,-1
 668 485 l 1,0,-1
EndSplineSet
EndChar

StartChar: comma
Encoding: 44 44 17
Width: 661
GlyphClass: 2
Flags: W
LayerCount: 2
Fore
SplineSet
154 373 m 1,0,-1
 516 373 l 1,1,-1
 516 51 l 2,2,3
 516 -28 516 -28 490.5 -84.5 c 128,-1,4
 465 -141 465 -141 422 -180.5 c 128,-1,5
 379 -220 379 -220 323 -246.5 c 128,-1,6
 267 -273 267 -273 206 -291 c 1,7,-1
 155 -183 l 1,8,9
 200 -167 200 -167 230.5 -150 c 128,-1,10
 261 -133 261 -133 280 -111.5 c 128,-1,11
 299 -90 299 -90 307.5 -63 c 128,-1,12
 316 -36 316 -36 316 0 c 1,13,-1
 154 0 l 1,14,-1
 154 373 l 1,0,-1
EndSplineSet
EndChar

StartChar: hyphen
Encoding: 45 45 18
Width: 1078
GlyphClass: 2
Flags: W
LayerCount: 2
Fore
SplineSet
159 558 m 1,0,-1
 159 783 l 1,1,-1
 920 783 l 1,2,-1
 920 558 l 1,3,-1
 159 558 l 1,0,-1
EndSplineSet
EndChar

StartChar: period
Encoding: 46 46 19
Width: 714
GlyphClass: 2
Flags: W
LayerCount: 2
Fore
SplineSet
176 373 m 1,0,-1
 539 373 l 1,1,-1
 539 0 l 1,2,-1
 176 0 l 1,3,-1
 176 373 l 1,0,-1
EndSplineSet
EndChar

StartChar: slash
Encoding: 47 47 20
Width: 982
GlyphClass: 2
Flags: W
LayerCount: 2
Fore
SplineSet
733 1723 m 1,0,-1
 974 1643 l 1,1,-1
 368 -162 l 1,2,-1
 130 -84 l 1,3,-1
 733 1723 l 1,0,-1
EndSplineSet
EndChar

StartChar: zero
Encoding: 48 48 21
Width: 1443
GlyphClass: 2
Flags: W
LayerCount: 2
Fore
SplineSet
719 189 m 0,0,1
 804 189 804 189 864 220 c 128,-1,2
 924 251 924 251 962 306.5 c 128,-1,3
 1000 362 1000 362 1017.5 439.5 c 128,-1,4
 1035 517 1035 517 1035 609 c 0,5,6
 1035 685 1035 685 1020 757.5 c 128,-1,7
 1005 830 1005 830 968.5 886.5 c 128,-1,8
 932 943 932 943 871 977.5 c 128,-1,9
 810 1012 810 1012 719 1012 c 0,10,11
 632 1012 632 1012 573 979.5 c 128,-1,12
 514 947 514 947 477.5 891 c 128,-1,13
 441 835 441 835 425 761 c 128,-1,14
 409 687 409 687 409 603 c 256,15,16
 409 519 409 519 424 443.5 c 128,-1,17
 439 368 439 368 474.5 311.5 c 128,-1,18
 510 255 510 255 569.5 222 c 128,-1,19
 629 189 629 189 719 189 c 0,0,1
718 1229 m 0,20,21
 872 1229 872 1229 983.5 1179.5 c 128,-1,22
 1095 1130 1095 1130 1167.5 1044.5 c 128,-1,23
 1240 959 1240 959 1275 845 c 128,-1,24
 1310 731 1310 731 1310 602 c 0,25,26
 1310 469 1310 469 1274.5 354 c 128,-1,27
 1239 239 1239 239 1165.5 154 c 128,-1,28
 1092 69 1092 69 980.5 20 c 128,-1,29
 869 -29 869 -29 717 -29 c 0,30,31
 576 -29 576 -29 466.5 16.5 c 128,-1,32
 357 62 357 62 282.5 145 c 128,-1,33
 208 228 208 228 169.5 344.5 c 128,-1,34
 131 461 131 461 131 602 c 0,35,36
 131 737 131 737 166.5 852 c 128,-1,37
 202 967 202 967 275 1050.5 c 128,-1,38
 348 1134 348 1134 458.5 1181.5 c 128,-1,39
 569 1229 569 1229 718 1229 c 0,20,21
EndSplineSet
EndChar

StartChar: one
Encoding: 49 49 22
Width: 861
GlyphClass: 2
Flags: W
LayerCount: 2
Fore
SplineSet
346 974 m 1,0,-1
 167 893 l 1,1,-1
 87 1090 l 1,2,3
 146 1115 146 1115 204 1139.5 c 128,-1,4
 262 1164 262 1164 321 1188 c 1,5,-1
 424 1204 l 1,6,-1
 636 1204 l 1,7,-1
 636 0 l 1,8,-1
 346 0 l 1,9,-1
 346 974 l 1,0,-1
EndSplineSet
EndChar

StartChar: two
Encoding: 50 50 23
Width: 1167
GlyphClass: 2
Flags: W
LayerCount: 2
Fore
SplineSet
758 824 m 0,0,1
 758 998 758 998 552 998 c 0,2,3
 516 998 516 998 475 990 c 128,-1,4
 434 982 434 982 392 969.5 c 128,-1,5
 350 957 350 957 310 940.5 c 128,-1,6
 270 924 270 924 237 907 c 1,7,-1
 159 1101 l 1,8,9
 178 1112 178 1112 220 1131.5 c 128,-1,10
 262 1151 262 1151 318.5 1169.5 c 128,-1,11
 375 1188 375 1188 441 1201.5 c 128,-1,12
 507 1215 507 1215 575 1215 c 0,13,14
 676 1215 676 1215 759.5 1191 c 128,-1,15
 843 1167 843 1167 903 1121 c 128,-1,16
 963 1075 963 1075 996 1007.5 c 128,-1,17
 1029 940 1029 940 1029 853 c 0,18,19
 1029 794 1029 794 1015 741.5 c 128,-1,20
 1001 689 1001 689 967.5 635.5 c 128,-1,21
 934 582 934 582 879 523.5 c 128,-1,22
 824 465 824 465 742 395 c 2,23,-1
 541 226 l 1,24,-1
 1009 226 l 1,25,-1
 1009 0 l 1,26,-1
 153 0 l 1,27,-1
 153 193 l 1,28,-1
 578 548 l 1,29,30
 667 621 667 621 712.5 685.5 c 128,-1,31
 758 750 758 750 758 824 c 0,0,1
EndSplineSet
EndChar

StartChar: three
Encoding: 51 51 24
Width: 1183
GlyphClass: 2
Flags: W
LayerCount: 2
Fore
SplineSet
733 850 m 0,0,1
 733 931 733 931 677 968.5 c 128,-1,2
 621 1006 621 1006 515 1006 c 0,3,4
 470 1006 470 1006 420 995.5 c 128,-1,5
 370 985 370 985 327 971.5 c 128,-1,6
 284 958 284 958 254 946.5 c 128,-1,7
 224 935 224 935 220 934 c 1,8,-1
 132 1130 l 1,9,10
 142 1135 142 1135 175.5 1150.5 c 128,-1,11
 209 1166 209 1166 259 1182.5 c 128,-1,12
 309 1199 309 1199 371.5 1212 c 128,-1,13
 434 1225 434 1225 502 1225 c 0,14,15
 596 1225 596 1225 684 1207 c 128,-1,16
 772 1189 772 1189 840 1146.5 c 128,-1,17
 908 1104 908 1104 949 1032 c 128,-1,18
 990 960 990 960 990 852 c 0,19,20
 990 787 990 787 968.5 735.5 c 128,-1,21
 947 684 947 684 912.5 646.5 c 128,-1,22
 878 609 878 609 835.5 586 c 128,-1,23
 793 563 793 563 751 556 c 1,24,25
 799 544 799 544 848.5 517 c 128,-1,26
 898 490 898 490 938 447 c 128,-1,27
 978 404 978 404 1003 346 c 128,-1,28
 1028 288 1028 288 1028 214 c 0,29,30
 1028 109 1028 109 987 33 c 128,-1,31
 946 -43 946 -43 876.5 -92 c 128,-1,32
 807 -141 807 -141 715 -164.5 c 128,-1,33
 623 -188 623 -188 521 -188 c 0,34,35
 441 -188 441 -188 372 -176.5 c 128,-1,36
 303 -165 303 -165 251 -150.5 c 128,-1,37
 199 -136 199 -136 166.5 -123 c 128,-1,38
 134 -110 134 -110 128 -107 c 1,39,-1
 201 101 l 1,40,41
 205 99 205 99 233 87.5 c 128,-1,42
 261 76 261 76 304.5 62.5 c 128,-1,43
 348 49 348 49 403 38 c 128,-1,44
 458 27 458 27 516 27 c 0,45,46
 637 27 637 27 696.5 73.5 c 128,-1,47
 756 120 756 120 756 221 c 0,48,49
 756 275 756 275 732 316.5 c 128,-1,50
 708 358 708 358 665 386.5 c 128,-1,51
 622 415 622 415 564 431 c 128,-1,52
 506 447 506 447 438 451 c 1,53,-1
 438 660 l 1,54,55
 493 660 493 660 546.5 669.5 c 128,-1,56
 600 679 600 679 641 701 c 128,-1,57
 682 723 682 723 707.5 759.5 c 128,-1,58
 733 796 733 796 733 850 c 0,0,1
EndSplineSet
EndChar

StartChar: four
Encoding: 52 52 25
Width: 1271
GlyphClass: 2
Flags: W
LayerCount: 2
Fore
SplineSet
733 276 m 1,0,-1
 733 825 l 1,1,-1
 363 276 l 1,2,-1
 733 276 l 1,0,-1
979 1179 m 1,3,-1
 979 279 l 1,4,-1
 1164 279 l 1,5,-1
 1164 64 l 1,6,-1
 979 64 l 1,7,-1
 979 -238 l 1,8,-1
 733 -238 l 1,9,-1
 733 64 l 1,10,-1
 120 64 l 1,11,-1
 83 243 l 1,12,-1
 758 1236 l 1,13,-1
 979 1179 l 1,3,-1
EndSplineSet
EndChar

StartChar: five
Encoding: 53 53 26
Width: 1168
GlyphClass: 2
Flags: W
LayerCount: 2
Fore
SplineSet
182 112 m 1,0,1
 213 97 213 97 253.5 82.5 c 128,-1,2
 294 68 294 68 340 56.5 c 128,-1,3
 386 45 386 45 435.5 38 c 128,-1,4
 485 31 485 31 534 31 c 0,5,6
 665 31 665 31 732.5 89.5 c 128,-1,7
 800 148 800 148 800 270 c 0,8,9
 800 399 800 399 739 465.5 c 128,-1,10
 678 532 678 532 557 532 c 0,11,12
 497 532 497 532 431 510 c 128,-1,13
 365 488 365 488 295 446 c 1,14,-1
 169 554 l 1,15,-1
 169 1190 l 1,16,-1
 966 1190 l 1,17,-1
 966 978 l 1,18,-1
 401 978 l 1,19,-1
 401 681 l 1,20,21
 401 681 401 681 414 690 c 0,22,23
 426 699 426 699 449.5 709.5 c 128,-1,24
 473 720 473 720 507 728.5 c 128,-1,25
 541 737 541 737 585 737 c 0,26,27
 692 737 692 737 778.5 705 c 128,-1,28
 865 673 865 673 926 612.5 c 128,-1,29
 987 552 987 552 1020 465 c 128,-1,30
 1053 378 1053 378 1053 269 c 0,31,32
 1053 163 1053 163 1016.5 77 c 128,-1,33
 980 -9 980 -9 913 -69.5 c 128,-1,34
 846 -130 846 -130 753 -163 c 128,-1,35
 660 -196 660 -196 547 -196 c 0,36,37
 496 -196 496 -196 442.5 -189 c 128,-1,38
 389 -182 389 -182 336 -170 c 128,-1,39
 283 -158 283 -158 232 -140.5 c 128,-1,40
 181 -123 181 -123 136 -102 c 1,41,-1
 182 112 l 1,0,1
EndSplineSet
EndChar

StartChar: six
Encoding: 54 54 27
Width: 1258
GlyphClass: 2
Flags: W
LayerCount: 2
Fore
SplineSet
1166 373 m 0,0,1
 1166 267 1166 267 1132 176 c 128,-1,2
 1098 85 1098 85 1032.5 18.5 c 128,-1,3
 967 -48 967 -48 872 -86 c 128,-1,4
 777 -124 777 -124 656 -124 c 0,5,6
 525 -124 525 -124 424 -81 c 128,-1,7
 323 -38 323 -38 254 39 c 128,-1,8
 185 116 185 116 149 221.5 c 128,-1,9
 113 327 113 327 113 452 c 0,10,11
 113 582 113 582 141 693.5 c 128,-1,12
 169 805 169 805 220 898 c 128,-1,13
 271 991 271 991 341.5 1066.5 c 128,-1,14
 412 1142 412 1142 497 1200 c 128,-1,15
 582 1258 582 1258 678.5 1299.5 c 128,-1,16
 775 1341 775 1341 877 1367 c 1,17,-1
 944 1146 l 1,18,19
 867 1130 867 1130 793 1102 c 128,-1,20
 719 1074 719 1074 654.5 1032 c 128,-1,21
 590 990 590 990 539 933 c 128,-1,22
 488 876 488 876 457 804 c 1,23,24
 506 827 506 827 559.5 842 c 128,-1,25
 613 857 613 857 677 857 c 0,26,27
 789 857 789 857 879 819 c 128,-1,28
 969 781 969 781 1033 715.5 c 128,-1,29
 1097 650 1097 650 1131.5 561.5 c 128,-1,30
 1166 473 1166 473 1166 373 c 0,0,1
386 443 m 0,31,32
 387 374 387 374 399.5 310.5 c 128,-1,33
 412 247 412 247 442.5 199 c 128,-1,34
 473 151 473 151 524.5 122 c 128,-1,35
 576 93 576 93 655 93 c 0,36,37
 725 93 725 93 772.5 119.5 c 128,-1,38
 820 146 820 146 848.5 189.5 c 128,-1,39
 877 233 877 233 889 288.5 c 128,-1,40
 901 344 901 344 901 402 c 0,41,42
 901 463 901 463 885 509 c 128,-1,43
 869 555 869 555 839 586 c 128,-1,44
 809 617 809 617 767 632 c 128,-1,45
 725 647 725 647 673 647 c 0,46,47
 629 647 629 647 587.5 637.5 c 128,-1,48
 546 628 546 628 508.5 612 c 128,-1,49
 471 596 471 596 440 575.5 c 128,-1,50
 409 555 409 555 388 534 c 1,51,52
 387 516 387 516 386.5 493.5 c 128,-1,53
 386 471 386 471 386 443 c 0,31,32
EndSplineSet
EndChar

StartChar: seven
Encoding: 55 55 28
Width: 1149
GlyphClass: 2
Flags: W
LayerCount: 2
Fore
SplineSet
1089 1054 m 1,0,-1
 497 -216 l 1,1,-1
 246 -104 l 1,2,-1
 758 992 l 1,3,-1
 138 992 l 1,4,-1
 138 1214 l 1,5,-1
 1015 1214 l 1,6,-1
 1089 1054 l 1,0,-1
EndSplineSet
EndChar

StartChar: eight
Encoding: 56 56 29
Width: 1312
GlyphClass: 2
Flags: W
LayerCount: 2
Fore
SplineSet
882 956 m 0,0,1
 882 1006 882 1006 865.5 1041 c 128,-1,2
 849 1076 849 1076 819.5 1098 c 128,-1,3
 790 1120 790 1120 749 1130 c 128,-1,4
 708 1140 708 1140 659 1140 c 0,5,6
 611 1140 611 1140 569 1130.5 c 128,-1,7
 527 1121 527 1121 496 1099 c 128,-1,8
 465 1077 465 1077 447.5 1042 c 128,-1,9
 430 1007 430 1007 430 956 c 256,10,11
 430 905 430 905 446.5 865.5 c 128,-1,12
 463 826 463 826 493 799 c 128,-1,13
 523 772 523 772 565.5 757.5 c 128,-1,14
 608 743 608 743 659 743 c 0,15,16
 709 743 709 743 750 757.5 c 128,-1,17
 791 772 791 772 820.5 799 c 128,-1,18
 850 826 850 826 866 865.5 c 128,-1,19
 882 905 882 905 882 956 c 0,0,1
892 285 m 0,20,21
 892 342 892 342 876 390 c 128,-1,22
 860 438 860 438 829.5 472.5 c 128,-1,23
 799 507 799 507 756 526 c 128,-1,24
 713 545 713 545 659 545 c 0,25,26
 604 545 604 545 559.5 526 c 128,-1,27
 515 507 515 507 484 473 c 128,-1,28
 453 439 453 439 436 391 c 128,-1,29
 419 343 419 343 419 286 c 0,30,31
 419 180 419 180 475 130.5 c 128,-1,32
 531 81 531 81 659 81 c 0,33,34
 724 81 724 81 768.5 93.5 c 128,-1,35
 813 106 813 106 840.5 131.5 c 128,-1,36
 868 157 868 157 880 195 c 128,-1,37
 892 233 892 233 892 285 c 0,20,21
1146 965 m 0,38,39
 1146 898 1146 898 1125 843 c 128,-1,40
 1104 788 1104 788 1067.5 745.5 c 128,-1,41
 1031 703 1031 703 982.5 674 c 128,-1,42
 934 645 934 645 879 632 c 1,43,44
 939 619 939 619 991 587.5 c 128,-1,45
 1043 556 1043 556 1081 508.5 c 128,-1,46
 1119 461 1119 461 1141 399 c 128,-1,47
 1163 337 1163 337 1163 262 c 0,48,49
 1163 158 1163 158 1122.5 82.5 c 128,-1,50
 1082 7 1082 7 1013 -42 c 128,-1,51
 944 -91 944 -91 852.5 -114.5 c 128,-1,52
 761 -138 761 -138 659 -138 c 0,53,54
 558 -138 558 -138 466 -115 c 128,-1,55
 374 -92 374 -92 303.5 -43 c 128,-1,56
 233 6 233 6 191 82 c 128,-1,57
 149 158 149 158 149 264 c 0,58,59
 149 338 149 338 171 400.5 c 128,-1,60
 193 463 193 463 231.5 510 c 128,-1,61
 270 557 270 557 321.5 588.5 c 128,-1,62
 373 620 373 620 433 632 c 1,63,64
 379 645 379 645 330.5 674 c 128,-1,65
 282 703 282 703 245.5 745 c 128,-1,66
 209 787 209 787 187.5 842.5 c 128,-1,67
 166 898 166 898 166 966 c 0,68,69
 166 1060 166 1060 204 1131.5 c 128,-1,70
 242 1203 242 1203 308.5 1252 c 128,-1,71
 375 1301 375 1301 465 1326 c 128,-1,72
 555 1351 555 1351 659 1351 c 0,73,74
 762 1351 762 1351 851 1326 c 128,-1,75
 940 1301 940 1301 1005.5 1252 c 128,-1,76
 1071 1203 1071 1203 1108.5 1131 c 128,-1,77
 1146 1059 1146 1059 1146 965 c 0,38,39
EndSplineSet
EndChar

StartChar: nine
Encoding: 57 57 30
Width: 1285
GlyphClass: 2
Flags: W
LayerCount: 2
Fore
SplineSet
607 297 m 0,0,1
 494 297 494 297 404 330 c 128,-1,2
 314 363 314 363 250 424 c 128,-1,3
 186 485 186 485 152 571.5 c 128,-1,4
 118 658 118 658 118 765 c 0,5,6
 118 871 118 871 153.5 961.5 c 128,-1,7
 189 1052 189 1052 254 1118.5 c 128,-1,8
 319 1185 319 1185 412 1222.5 c 128,-1,9
 505 1260 505 1260 620 1260 c 0,10,11
 752 1260 752 1260 854.5 1220.5 c 128,-1,12
 957 1181 957 1181 1027.5 1106.5 c 128,-1,13
 1098 1032 1098 1032 1135 925 c 128,-1,14
 1172 818 1172 818 1172 684 c 0,15,16
 1172 551 1172 551 1140 437 c 128,-1,17
 1108 323 1108 323 1052.5 228 c 128,-1,18
 997 133 997 133 922.5 57 c 128,-1,19
 848 -19 848 -19 763 -76.5 c 128,-1,20
 678 -134 678 -134 586.5 -172.5 c 128,-1,21
 495 -211 495 -211 406 -231 c 1,22,-1
 341 -9 l 1,23,24
 419 7 419 7 494.5 37.5 c 128,-1,25
 570 68 570 68 635 114 c 128,-1,26
 700 160 700 160 750.5 220 c 128,-1,27
 801 280 801 280 829 355 c 1,28,29
 787 329 787 329 730.5 313 c 128,-1,30
 674 297 674 297 607 297 c 0,0,1
384 752 m 0,31,32
 384 693 384 693 400.5 647 c 128,-1,33
 417 601 417 601 446.5 569.5 c 128,-1,34
 476 538 476 538 516.5 521.5 c 128,-1,35
 557 505 557 505 605 505 c 0,36,37
 642 505 642 505 687.5 512 c 128,-1,38
 733 519 733 519 774.5 529.5 c 128,-1,39
 816 540 816 540 848 550.5 c 128,-1,40
 880 561 880 561 891 569 c 1,41,42
 894 598 894 598 897 631.5 c 128,-1,43
 900 665 900 665 902 703 c 1,44,45
 901 768 901 768 888.5 829 c 128,-1,46
 876 890 876 890 845.5 937.5 c 128,-1,47
 815 985 815 985 763.5 1013.5 c 128,-1,48
 712 1042 712 1042 634 1042 c 0,49,50
 562 1042 562 1042 514.5 1020 c 128,-1,51
 467 998 467 998 438 959 c 128,-1,52
 409 920 409 920 396.5 867 c 128,-1,53
 384 814 384 814 384 752 c 0,31,32
EndSplineSet
EndChar

StartChar: colon
Encoding: 58 58 31
Width: 701
GlyphClass: 2
Flags: W
LayerCount: 2
Fore
SplineSet
190 379 m 1,0,-1
 556 379 l 1,1,-1
 556 0 l 1,2,-1
 190 0 l 1,3,-1
 190 379 l 1,0,-1
190 1067 m 1,4,-1
 556 1067 l 1,5,-1
 556 688 l 1,6,-1
 190 688 l 1,7,-1
 190 1067 l 1,4,-1
EndSplineSet
EndChar

StartChar: semicolon
Encoding: 59 59 32
Width: 692
GlyphClass: 2
Flags: W
LayerCount: 2
Fore
SplineSet
186 1067 m 1,0,-1
 549 1067 l 1,1,-1
 549 688 l 1,2,-1
 186 688 l 1,3,-1
 186 1067 l 1,0,-1
188 373 m 1,4,-1
 550 373 l 1,5,-1
 550 51 l 2,6,7
 550 -28 550 -28 524.5 -84.5 c 128,-1,8
 499 -141 499 -141 456 -180.5 c 128,-1,9
 413 -220 413 -220 357 -246.5 c 128,-1,10
 301 -273 301 -273 240 -291 c 1,11,-1
 189 -183 l 1,12,13
 234 -167 234 -167 264.5 -150 c 128,-1,14
 295 -133 295 -133 314 -111.5 c 128,-1,15
 333 -90 333 -90 341.5 -63 c 128,-1,16
 350 -36 350 -36 350 0 c 1,17,-1
 188 0 l 1,18,-1
 188 373 l 1,4,-1
EndSplineSet
EndChar

StartChar: less
Encoding: 60 60 33
Width: 1238
GlyphClass: 2
Flags: W
LayerCount: 2
Fore
SplineSet
216 739 m 1,0,-1
 960 1264 l 1,1,-1
 1001 1015 l 1,2,-1
 444 632 l 1,3,-1
 1001 250 l 1,4,-1
 960 1 l 1,5,-1
 179 559 l 1,6,-1
 216 739 l 1,0,-1
EndSplineSet
EndChar

StartChar: equal
Encoding: 61 61 34
Width: 1112
GlyphClass: 2
Flags: W
LayerCount: 2
Fore
SplineSet
162 278 m 1,0,-1
 162 475 l 1,1,-1
 951 475 l 1,2,-1
 951 278 l 1,3,-1
 162 278 l 1,0,-1
162 601 m 1,4,-1
 162 797 l 1,5,-1
 951 797 l 1,6,-1
 951 601 l 1,7,-1
 162 601 l 1,4,-1
EndSplineSet
EndChar

StartChar: greater
Encoding: 62 62 35
Width: 1217
GlyphClass: 2
Flags: W
LayerCount: 2
Fore
SplineSet
289 1 m 1,0,-1
 248 256 l 1,1,-1
 800 632 l 1,2,-1
 247 1009 l 1,3,-1
 288 1264 l 1,4,-1
 1026 745 l 1,5,-1
 1070 559 l 1,6,-1
 289 1 l 1,0,-1
EndSplineSet
EndChar

StartChar: question
Encoding: 63 63 36
Width: 1148
GlyphClass: 2
Flags: W
LayerCount: 2
Fore
SplineSet
252 165 m 1,0,1
 262 190 262 190 281 212 c 128,-1,2
 300 234 300 234 325.5 250 c 128,-1,3
 351 266 351 266 382.5 275.5 c 128,-1,4
 414 285 414 285 449 285 c 1,5,6
 474 274 474 274 495.5 253.5 c 128,-1,7
 517 233 517 233 532.5 206 c 128,-1,8
 548 179 548 179 557 146 c 128,-1,9
 566 113 566 113 566 77 c 1,10,11
 556 52 556 52 537 30.5 c 128,-1,12
 518 9 518 9 492.5 -7.5 c 128,-1,13
 467 -24 467 -24 435.5 -33.5 c 128,-1,14
 404 -43 404 -43 369 -43 c 1,15,16
 343 -32 343 -32 322 -11.5 c 128,-1,17
 301 9 301 9 285 36.5 c 128,-1,18
 269 64 269 64 260.5 96.5 c 128,-1,19
 252 129 252 129 252 165 c 1,0,1
758 1178 m 0,20,21
 758 1233 758 1233 738 1268.5 c 128,-1,22
 718 1304 718 1304 682 1324 c 128,-1,23
 646 1344 646 1344 596 1351.5 c 128,-1,24
 546 1359 546 1359 486 1359 c 0,25,26
 433 1359 433 1359 372.5 1347 c 128,-1,27
 312 1335 312 1335 260 1320.5 c 128,-1,28
 208 1306 208 1306 174 1293.5 c 128,-1,29
 140 1281 140 1281 140 1280 c 2,30,-1
 65 1495 l 1,31,32
 95 1510 95 1510 139.5 1527.5 c 128,-1,33
 184 1545 184 1545 240.5 1559.5 c 128,-1,34
 297 1574 297 1574 363.5 1583.5 c 128,-1,35
 430 1593 430 1593 505 1593 c 0,36,37
 618 1593 618 1593 716 1571 c 128,-1,38
 814 1549 814 1549 887 1501.5 c 128,-1,39
 960 1454 960 1454 1001.5 1379 c 128,-1,40
 1043 1304 1043 1304 1043 1199 c 0,41,42
 1043 1128 1043 1128 1017 1055 c 128,-1,43
 991 982 991 982 931 914.5 c 128,-1,44
 871 847 871 847 773.5 788 c 128,-1,45
 676 729 676 729 534 686 c 1,46,-1
 534 378 l 1,47,-1
 264 378 l 1,48,-1
 264 823 l 1,49,50
 367 857 367 857 457 891 c 128,-1,51
 547 925 547 925 614 966 c 128,-1,52
 681 1007 681 1007 719.5 1058 c 128,-1,53
 758 1109 758 1109 758 1178 c 0,20,21
EndSplineSet
EndChar

StartChar: at
Encoding: 64 64 37
Width: 1982
GlyphClass: 2
Flags: W
LayerCount: 2
Fore
SplineSet
989 -144 m 0,0,1
 783 -144 783 -144 624 -86.5 c 128,-1,2
 465 -29 465 -29 356 73.5 c 128,-1,3
 247 176 247 176 190.5 318 c 128,-1,4
 134 460 134 460 134 628 c 0,5,6
 134 817 134 817 198.5 981 c 128,-1,7
 263 1145 263 1145 382 1267 c 128,-1,8
 501 1389 501 1389 670 1459 c 128,-1,9
 839 1529 839 1529 1049 1529 c 0,10,11
 1158 1529 1158 1529 1261.5 1508 c 128,-1,12
 1365 1487 1365 1487 1456.5 1445.5 c 128,-1,13
 1548 1404 1548 1404 1624.5 1342 c 128,-1,14
 1701 1280 1701 1280 1756 1198.5 c 128,-1,15
 1811 1117 1811 1117 1842 1016.5 c 128,-1,16
 1873 916 1873 916 1873 797 c 0,17,18
 1873 708 1873 708 1854.5 630.5 c 128,-1,19
 1836 553 1836 553 1804 489 c 128,-1,20
 1772 425 1772 425 1729 376 c 128,-1,21
 1686 327 1686 327 1637 297 c 0,22,23
 1595 271 1595 271 1535 259 c 128,-1,24
 1475 247 1475 247 1400 247 c 0,25,26
 1320 247 1320 247 1287 294 c 128,-1,27
 1254 341 1254 341 1254 420 c 0,28,29
 1254 451 1254 451 1254 482 c 128,-1,30
 1254 513 1254 513 1256 545 c 1,31,32
 1236 479 1236 479 1207 423 c 128,-1,33
 1178 367 1178 367 1135 326 c 128,-1,34
 1092 285 1092 285 1033 262 c 128,-1,35
 974 239 974 239 895 239 c 0,36,37
 840 239 840 239 789 251.5 c 128,-1,38
 738 264 738 264 693.5 292 c 128,-1,39
 649 320 649 320 612 365 c 128,-1,40
 575 410 575 410 549 475 c 1,41,42
 535 513 535 513 527 554 c 128,-1,43
 519 595 519 595 519 643 c 0,44,45
 519 705 519 705 533.5 762.5 c 128,-1,46
 548 820 548 820 574.5 871.5 c 128,-1,47
 601 923 601 923 636.5 967 c 128,-1,48
 672 1011 672 1011 714 1046 c 0,49,50
 785 1107 785 1107 873.5 1139 c 128,-1,51
 962 1171 962 1171 1065 1171 c 0,52,53
 1086 1171 1086 1171 1112.5 1169 c 128,-1,54
 1139 1167 1139 1167 1166.5 1164 c 128,-1,55
 1194 1161 1194 1161 1221 1157 c 128,-1,56
 1248 1153 1248 1153 1271 1148 c 0,57,58
 1348 1131 1348 1131 1389.5 1089 c 128,-1,59
 1431 1047 1431 1047 1440 987 c 1,60,61
 1440 964 1440 964 1439.5 943.5 c 128,-1,62
 1439 923 1439 923 1438 903 c 1,63,-1
 1388 415 l 1,64,65
 1519 429 1519 429 1581 514.5 c 128,-1,66
 1643 600 1643 600 1643 772 c 0,67,68
 1643 920 1643 920 1596.5 1024.5 c 128,-1,69
 1550 1129 1550 1129 1468.5 1196 c 128,-1,70
 1387 1263 1387 1263 1276 1294 c 128,-1,71
 1165 1325 1165 1325 1036 1325 c 0,72,73
 889 1325 889 1325 766.5 1275.5 c 128,-1,74
 644 1226 644 1226 556 1134.5 c 128,-1,75
 468 1043 468 1043 419.5 914.5 c 128,-1,76
 371 786 371 786 371 628 c 0,77,78
 371 488 371 488 414.5 380.5 c 128,-1,79
 458 273 458 273 540.5 200 c 128,-1,80
 623 127 623 127 743.5 89.5 c 128,-1,81
 864 52 864 52 1018 52 c 0,82,83
 1075 52 1075 52 1119.5 60 c 128,-1,84
 1164 68 1164 68 1197.5 79.5 c 128,-1,85
 1231 91 1231 91 1254.5 102 c 128,-1,86
 1278 113 1278 113 1292 119 c 1,87,88
 1334 128 1334 128 1376 146 c 1,89,-1
 1446 -19 l 1,90,91
 1410 -48 1410 -48 1360.5 -71.5 c 128,-1,92
 1311 -95 1311 -95 1252.5 -111 c 128,-1,93
 1194 -127 1194 -127 1127.5 -135.5 c 128,-1,94
 1061 -144 1061 -144 989 -144 c 0,0,1
1075 1013 m 0,95,96
 1001 1013 1001 1013 938.5 987.5 c 128,-1,97
 876 962 876 962 830.5 912.5 c 128,-1,98
 785 863 785 863 759 790 c 128,-1,99
 733 717 733 717 733 622 c 0,100,101
 733 576 733 576 744.5 537.5 c 128,-1,102
 756 499 756 499 777.5 471 c 128,-1,103
 799 443 799 443 831.5 427.5 c 128,-1,104
 864 412 864 412 906 412 c 0,105,106
 990 412 990 412 1051.5 455 c 128,-1,107
 1113 498 1113 498 1155 575.5 c 128,-1,108
 1197 653 1197 653 1221 759.5 c 128,-1,109
 1245 866 1245 866 1254 993 c 1,110,111
 1242 995 1242 995 1222.5 998.5 c 128,-1,112
 1203 1002 1203 1002 1179 1005 c 128,-1,113
 1155 1008 1155 1008 1128 1010.5 c 128,-1,114
 1101 1013 1101 1013 1075 1013 c 0,95,96
EndSplineSet
EndChar

StartChar: A
Encoding: 65 65 38
Width: 1513
GlyphClass: 2
Flags: W
LayerCount: 2
Fore
SplineSet
937 1607 m 1,0,-1
 1469 0 l 1,1,-1
 1162 0 l 1,2,-1
 1044 369 l 1,3,-1
 468 369 l 1,4,-1
 351 0 l 1,5,-1
 43 0 l 1,6,-1
 571 1607 l 1,7,-1
 937 1607 l 1,0,-1
509 516 m 1,8,-1
 1004 516 l 1,9,-1
 760 1285 l 1,10,-1
 509 516 l 1,8,-1
EndSplineSet
EndChar

StartChar: B
Encoding: 66 66 39
Width: 1441
GlyphClass: 2
Flags: W
LayerCount: 2
Fore
SplineSet
558 1607 m 2,0,1
 661 1607 661 1607 744 1600.5 c 128,-1,2
 827 1594 827 1594 893 1582 c 128,-1,3
 959 1570 959 1570 1010.5 1552.5 c 128,-1,4
 1062 1535 1062 1535 1103 1514 c 0,5,6
 1189 1469 1189 1469 1240 1393.5 c 128,-1,7
 1291 1318 1291 1318 1291 1205 c 0,8,9
 1291 1122 1291 1122 1265.5 1061 c 128,-1,10
 1240 1000 1240 1000 1195 958 c 128,-1,11
 1150 916 1150 916 1087 892 c 128,-1,12
 1024 868 1024 868 949 859 c 1,13,14
 1039 847 1039 847 1114 821.5 c 128,-1,15
 1189 796 1189 796 1243.5 749 c 128,-1,16
 1298 702 1298 702 1328 630 c 128,-1,17
 1358 558 1358 558 1358 453 c 0,18,19
 1358 318 1358 318 1309.5 230.5 c 128,-1,20
 1261 143 1261 143 1170.5 92 c 128,-1,21
 1080 41 1080 41 949.5 20.5 c 128,-1,22
 819 0 819 0 656 0 c 2,23,-1
 545 0 l 1,24,-1
 156 0 l 1,25,-1
 156 1607 l 1,26,-1
 558 1607 l 2,0,1
625 202 m 2,27,28
 742 202 742 202 824.5 212.5 c 128,-1,29
 907 223 907 223 959.5 252 c 128,-1,30
 1012 281 1012 281 1036 333.5 c 128,-1,31
 1060 386 1060 386 1060 470 c 0,32,33
 1060 551 1060 551 1036.5 605 c 128,-1,34
 1013 659 1013 659 963 691 c 128,-1,35
 913 723 913 723 835.5 736 c 128,-1,36
 758 749 758 749 651 749 c 2,37,-1
 462 749 l 1,38,-1
 462 202 l 1,39,-1
 625 202 l 2,27,28
462 940 m 1,40,-1
 651 940 l 2,41,42
 751 940 751 940 822 954.5 c 128,-1,43
 893 969 893 969 937.5 999 c 128,-1,44
 982 1029 982 1029 1002.5 1075.5 c 128,-1,45
 1023 1122 1023 1122 1023 1186 c 0,46,47
 1023 1244 1023 1244 1002 1285.5 c 128,-1,48
 981 1327 981 1327 933 1353.5 c 128,-1,49
 885 1380 885 1380 807.5 1392.5 c 128,-1,50
 730 1405 730 1405 617 1405 c 2,51,-1
 462 1405 l 1,52,-1
 462 940 l 1,40,-1
EndSplineSet
EndChar

StartChar: C
Encoding: 67 67 40
Width: 1319
GlyphClass: 2
Flags: W
LayerCount: 2
Fore
SplineSet
412 790 m 0,0,1
 412 499 412 499 512.5 345 c 128,-1,2
 613 191 613 191 823 191 c 0,3,4
 882 191 882 191 937 202 c 128,-1,5
 992 213 992 213 1039.5 229.5 c 128,-1,6
 1087 246 1087 246 1124.5 265.5 c 128,-1,7
 1162 285 1162 285 1186 302 c 1,8,-1
 1270 86 l 1,9,10
 1253 72 1253 72 1210.5 51.5 c 128,-1,11
 1168 31 1168 31 1106 12 c 128,-1,12
 1044 -7 1044 -7 966 -20.5 c 128,-1,13
 888 -34 888 -34 801 -34 c 0,14,15
 632 -34 632 -34 502 22 c 128,-1,16
 372 78 372 78 284 184.5 c 128,-1,17
 196 291 196 291 150.5 445 c 128,-1,18
 105 599 105 599 105 796 c 0,19,20
 105 913 105 913 123.5 1020.5 c 128,-1,21
 142 1128 142 1128 179.5 1221.5 c 128,-1,22
 217 1315 217 1315 274.5 1391.5 c 128,-1,23
 332 1468 332 1468 409.5 1522.5 c 128,-1,24
 487 1577 487 1577 585.5 1606.5 c 128,-1,25
 684 1636 684 1636 804 1636 c 0,26,27
 876 1636 876 1636 945 1627 c 128,-1,28
 1014 1618 1014 1618 1074 1603.5 c 128,-1,29
 1134 1589 1134 1589 1182 1570 c 128,-1,30
 1230 1551 1230 1551 1259 1531 c 1,31,-1
 1179 1312 l 1,32,33
 1150 1331 1150 1331 1113 1348.5 c 128,-1,34
 1076 1366 1076 1366 1031 1380 c 128,-1,35
 986 1394 986 1394 933.5 1402.5 c 128,-1,36
 881 1411 881 1411 823 1411 c 0,37,38
 716 1411 716 1411 638 1370 c 128,-1,39
 560 1329 560 1329 510 1250 c 128,-1,40
 460 1171 460 1171 436 1055.5 c 128,-1,41
 412 940 412 940 412 790 c 0,0,1
EndSplineSet
EndChar

StartChar: D
Encoding: 68 68 41
Width: 1557
GlyphClass: 2
Flags: W
LayerCount: 2
Fore
SplineSet
1142 801 m 0,0,1
 1142 944 1142 944 1120.5 1056 c 128,-1,2
 1099 1168 1099 1168 1045.5 1245.5 c 128,-1,3
 992 1323 992 1323 901 1364 c 128,-1,4
 810 1405 810 1405 671 1405 c 2,5,-1
 462 1405 l 1,6,-1
 462 202 l 1,7,-1
 661 202 l 2,8,9
 793 202 793 202 884.5 243 c 128,-1,10
 976 284 976 284 1033.5 361.5 c 128,-1,11
 1091 439 1091 439 1116.5 550 c 128,-1,12
 1142 661 1142 661 1142 801 c 0,0,1
1452 801 m 0,13,14
 1452 620 1452 620 1410.5 472.5 c 128,-1,15
 1369 325 1369 325 1277 220 c 128,-1,16
 1185 115 1185 115 1038.5 57.5 c 128,-1,17
 892 0 892 0 683 0 c 2,18,-1
 157 0 l 1,19,-1
 157 1607 l 1,20,-1
 676 1607 l 2,21,22
 1063 1607 1063 1607 1257.5 1409.5 c 128,-1,23
 1452 1212 1452 1212 1452 801 c 0,13,14
EndSplineSet
EndChar

StartChar: E
Encoding: 69 69 42
Width: 1281
GlyphClass: 2
Flags: W
LayerCount: 2
Fore
SplineSet
156 0 m 1,0,-1
 156 1607 l 1,1,-1
 1205 1607 l 1,2,-1
 1205 1405 l 1,3,-1
 461 1405 l 1,4,-1
 461 931 l 1,5,-1
 1110 931 l 1,6,-1
 1110 745 l 1,7,-1
 461 745 l 1,8,-1
 461 199 l 1,9,-1
 1216 199 l 1,10,-1
 1216 0 l 1,11,-1
 156 0 l 1,0,-1
EndSplineSet
EndChar

StartChar: F
Encoding: 70 70 43
Width: 1219
GlyphClass: 2
Flags: W
LayerCount: 2
Fore
SplineSet
461 0 m 1,0,-1
 156 0 l 1,1,-1
 156 1607 l 1,2,-1
 1192 1607 l 1,3,-1
 1192 1405 l 1,4,-1
 461 1405 l 1,5,-1
 461 925 l 1,6,-1
 1114 925 l 1,7,-1
 1114 739 l 1,8,-1
 461 739 l 1,9,-1
 461 0 l 1,0,-1
EndSplineSet
EndChar

StartChar: G
Encoding: 71 71 44
Width: 1561
GlyphClass: 2
Flags: W
LayerCount: 2
Fore
SplineSet
1150 679 m 1,0,-1
 764 679 l 1,1,-1
 764 867 l 1,2,-1
 1420 867 l 1,3,-1
 1420 0 l 1,4,-1
 1238 0 l 1,5,-1
 1187 163 l 1,6,7
 1170 119 1170 119 1134.5 82.5 c 128,-1,8
 1099 46 1099 46 1046.5 20 c 128,-1,9
 994 -6 994 -6 926 -20 c 128,-1,10
 858 -34 858 -34 777 -34 c 0,11,12
 617 -34 617 -34 492 22 c 128,-1,13
 367 78 367 78 281 184 c 128,-1,14
 195 290 195 290 150 443 c 128,-1,15
 105 596 105 596 105 790 c 0,16,17
 105 994 105 994 155 1151.5 c 128,-1,18
 205 1309 205 1309 300 1416.5 c 128,-1,19
 395 1524 395 1524 534 1580 c 128,-1,20
 673 1636 673 1636 850 1636 c 0,21,22
 934 1636 934 1636 1006 1625 c 128,-1,23
 1078 1614 1078 1614 1137 1595.5 c 128,-1,24
 1196 1577 1196 1577 1243 1553 c 128,-1,25
 1290 1529 1290 1529 1325 1504 c 1,26,-1
 1233 1298 l 1,27,28
 1195 1320 1195 1320 1151 1340.5 c 128,-1,29
 1107 1361 1107 1361 1058.5 1376.5 c 128,-1,30
 1010 1392 1010 1392 957.5 1401.5 c 128,-1,31
 905 1411 905 1411 850 1411 c 0,32,33
 640 1411 640 1411 526.5 1256 c 128,-1,34
 413 1101 413 1101 413 791 c 0,35,36
 413 657 413 657 434.5 547 c 128,-1,37
 456 437 456 437 503 357.5 c 128,-1,38
 550 278 550 278 624.5 234.5 c 128,-1,39
 699 191 699 191 804 191 c 0,40,41
 867 191 867 191 922 200 c 128,-1,42
 977 209 977 209 1021.5 227.5 c 128,-1,43
 1066 246 1066 246 1099 275.5 c 128,-1,44
 1132 305 1132 305 1150 347 c 1,45,-1
 1150 679 l 1,0,-1
EndSplineSet
EndChar

StartChar: H
Encoding: 72 72 45
Width: 1601
GlyphClass: 2
Flags: W
LayerCount: 2
Fore
SplineSet
1139 741 m 1,0,-1
 462 741 l 1,1,-1
 462 0 l 1,2,-1
 156 0 l 1,3,-1
 156 1607 l 1,4,-1
 462 1607 l 1,5,-1
 462 926 l 1,6,-1
 1139 926 l 1,7,-1
 1139 1607 l 1,8,-1
 1444 1607 l 1,9,-1
 1444 0 l 1,10,-1
 1139 0 l 1,11,-1
 1139 741 l 1,0,-1
EndSplineSet
EndChar

StartChar: I
Encoding: 73 73 46
Width: 846
GlyphClass: 2
Flags: W
LayerCount: 2
Fore
SplineSet
273 150 m 1,0,-1
 273 1454 l 1,1,-1
 87 1454 l 1,2,-1
 87 1607 l 1,3,-1
 763 1607 l 1,4,-1
 763 1454 l 1,5,-1
 574 1454 l 1,6,-1
 574 150 l 1,7,-1
 763 150 l 1,8,-1
 763 0 l 1,9,-1
 87 0 l 1,10,-1
 87 150 l 1,11,-1
 273 150 l 1,0,-1
EndSplineSet
EndChar

StartChar: J
Encoding: 74 74 47
Width: 826
GlyphClass: 2
Flags: W
LayerCount: 2
Fore
SplineSet
39 109 m 1,0,1
 139 125 139 125 202.5 151 c 128,-1,2
 266 177 266 177 302 222 c 128,-1,3
 338 267 338 267 351.5 335.5 c 128,-1,4
 365 404 365 404 365 504 c 2,5,-1
 365 1607 l 1,6,-1
 670 1607 l 1,7,-1
 670 519 l 2,8,9
 670 374 670 374 642.5 264 c 128,-1,10
 615 154 615 154 550.5 78.5 c 128,-1,11
 486 3 486 3 380 -39 c 128,-1,12
 274 -81 274 -81 117 -89 c 1,13,-1
 39 109 l 1,0,1
EndSplineSet
EndChar

StartChar: K
Encoding: 75 75 48
Width: 1469
GlyphClass: 2
Flags: W
LayerCount: 2
Fore
SplineSet
462 0 m 1,0,-1
 156 0 l 1,1,-1
 156 1607 l 1,2,-1
 462 1607 l 1,3,-1
 462 895 l 1,4,-1
 601 895 l 1,5,-1
 1067 1607 l 1,6,-1
 1389 1607 l 1,7,-1
 843 809 l 1,8,-1
 1450 0 l 1,9,-1
 1107 0 l 1,10,-1
 593 713 l 1,11,-1
 462 713 l 1,12,-1
 462 0 l 1,0,-1
EndSplineSet
EndChar

StartChar: L
Encoding: 76 76 49
Width: 1216
GlyphClass: 2
Flags: W
LayerCount: 2
Fore
SplineSet
156 0 m 1,0,-1
 156 1607 l 1,1,-1
 461 1607 l 1,2,-1
 461 202 l 1,3,-1
 1181 202 l 1,4,-1
 1181 0 l 1,5,-1
 156 0 l 1,0,-1
EndSplineSet
EndChar

StartChar: M
Encoding: 77 77 50
Width: 1987
GlyphClass: 2
Flags: W
LayerCount: 2
Fore
SplineSet
423 1254 m 1,0,-1
 423 0 l 1,1,-1
 156 0 l 1,2,-1
 156 1607 l 1,3,-1
 557 1607 l 1,4,-1
 989 335 l 1,5,-1
 1430 1607 l 1,6,-1
 1831 1607 l 1,7,-1
 1831 0 l 1,8,-1
 1564 0 l 1,9,-1
 1564 1254 l 1,10,-1
 1140 0 l 1,11,-1
 849 0 l 1,12,-1
 423 1254 l 1,0,-1
EndSplineSet
EndChar

StartChar: N
Encoding: 78 78 51
Width: 1651
GlyphClass: 2
Flags: W
LayerCount: 2
Fore
SplineSet
1160 0 m 1,0,-1
 436 1225 l 1,1,-1
 436 0 l 1,2,-1
 156 0 l 1,3,-1
 156 1607 l 1,4,-1
 504 1607 l 1,5,-1
 1215 395 l 1,6,-1
 1215 1607 l 1,7,-1
 1495 1607 l 1,8,-1
 1495 0 l 1,9,-1
 1160 0 l 1,0,-1
EndSplineSet
EndChar

StartChar: O
Encoding: 79 79 52
Width: 1611
GlyphClass: 2
Flags: W
LayerCount: 2
Fore
SplineSet
1507 810 m 0,0,1
 1507 628 1507 628 1469.5 473.5 c 128,-1,2
 1432 319 1432 319 1349 206 c 128,-1,3
 1266 93 1266 93 1132 29 c 128,-1,4
 998 -35 998 -35 805 -35 c 0,5,6
 676 -35 676 -35 574 -5.5 c 128,-1,7
 472 24 472 24 394 78 c 128,-1,8
 316 132 316 132 261 209 c 128,-1,9
 206 286 206 286 171 381 c 128,-1,10
 136 476 136 476 120 586.5 c 128,-1,11
 104 697 104 697 104 819 c 0,12,13
 104 1010 104 1010 148.5 1161.5 c 128,-1,14
 193 1313 193 1313 280.5 1418 c 128,-1,15
 368 1523 368 1523 499.5 1579 c 128,-1,16
 631 1635 631 1635 805 1635 c 0,17,18
 980 1635 980 1635 1112 1579 c 128,-1,19
 1244 1523 1244 1523 1331.5 1416.5 c 128,-1,20
 1419 1310 1419 1310 1463 1157 c 128,-1,21
 1507 1004 1507 1004 1507 810 c 0,0,1
413 798 m 0,22,23
 413 660 413 660 434 548 c 128,-1,24
 455 436 455 436 501.5 357 c 128,-1,25
 548 278 548 278 623 235 c 128,-1,26
 698 192 698 192 805 192 c 0,27,28
 910 192 910 192 985 233.5 c 128,-1,29
 1060 275 1060 275 1107.5 353 c 128,-1,30
 1155 431 1155 431 1177 543.5 c 128,-1,31
 1199 656 1199 656 1199 798 c 0,32,33
 1199 941 1199 941 1177.5 1055 c 128,-1,34
 1156 1169 1156 1169 1108.5 1248 c 128,-1,35
 1061 1327 1061 1327 987 1369 c 128,-1,36
 913 1411 913 1411 808 1411 c 0,37,38
 701 1411 701 1411 626 1369.5 c 128,-1,39
 551 1328 551 1328 503.5 1249 c 128,-1,40
 456 1170 456 1170 434.5 1056 c 128,-1,41
 413 942 413 942 413 798 c 0,22,23
EndSplineSet
EndChar

StartChar: P
Encoding: 80 80 53
Width: 1391
GlyphClass: 2
Flags: W
LayerCount: 2
Fore
SplineSet
1337 1095 m 1,0,1
 1337 955 1337 955 1287.5 860 c 128,-1,2
 1238 765 1238 765 1141 706.5 c 128,-1,3
 1044 648 1044 648 900 622.5 c 128,-1,4
 756 597 756 597 568 597 c 2,5,-1
 462 597 l 1,6,-1
 462 0 l 1,7,-1
 156 0 l 1,8,-1
 156 1607 l 1,9,-1
 598 1607 l 2,10,11
 700 1607 700 1607 794.5 1598 c 128,-1,12
 889 1589 889 1589 970.5 1566.5 c 128,-1,13
 1052 1544 1052 1544 1119 1506.5 c 128,-1,14
 1186 1469 1186 1469 1234 1412 c 128,-1,15
 1282 1355 1282 1355 1309 1277 c 128,-1,16
 1336 1199 1336 1199 1337 1095 c 1,0,1
559 791 m 2,17,18
 673 791 673 791 761 806 c 128,-1,19
 849 821 849 821 909 855 c 128,-1,20
 969 889 969 889 999.5 945 c 128,-1,21
 1030 1001 1030 1001 1030 1083 c 0,22,23
 1030 1185 1030 1185 999 1248 c 128,-1,24
 968 1311 968 1311 911.5 1346 c 128,-1,25
 855 1381 855 1381 775 1393 c 128,-1,26
 695 1405 695 1405 596 1405 c 2,27,-1
 462 1405 l 1,28,-1
 462 791 l 1,29,-1
 559 791 l 2,17,18
EndSplineSet
EndChar

StartChar: Q
Encoding: 81 81 54
Width: 1618
GlyphClass: 2
Flags: W
LayerCount: 2
Fore
SplineSet
1513 797 m 0,0,1
 1513 632 1513 632 1481 493.5 c 128,-1,2
 1449 355 1449 355 1383.5 250 c 128,-1,3
 1318 145 1318 145 1217.5 76 c 128,-1,4
 1117 7 1117 7 979 -18 c 1,5,-1
 1309 -262 l 1,6,-1
 1154 -429 l 1,7,-1
 675 -24 l 1,8,9
 517 -3 517 -3 408.5 71 c 128,-1,10
 300 145 300 145 232.5 256.5 c 128,-1,11
 165 368 165 368 135 509 c 128,-1,12
 105 650 105 650 105 805 c 0,13,14
 105 986 105 986 146 1138.5 c 128,-1,15
 187 1291 187 1291 272.5 1401.5 c 128,-1,16
 358 1512 358 1512 489.5 1574 c 128,-1,17
 621 1636 621 1636 803 1636 c 0,18,19
 979 1636 979 1636 1112 1581 c 128,-1,20
 1245 1526 1245 1526 1334 1419 c 128,-1,21
 1423 1312 1423 1312 1468 1155.5 c 128,-1,22
 1513 999 1513 999 1513 797 c 0,0,1
809 1411 m 0,23,24
 695 1411 695 1411 619 1365 c 128,-1,25
 543 1319 543 1319 497.5 1237 c 128,-1,26
 452 1155 452 1155 432.5 1043.5 c 128,-1,27
 413 932 413 932 413 801 c 0,28,29
 413 672 413 672 431.5 561 c 128,-1,30
 450 450 450 450 495.5 367.5 c 128,-1,31
 541 285 541 285 617.5 238 c 128,-1,32
 694 191 694 191 809 191 c 0,33,34
 890 191 890 191 951.5 215.5 c 128,-1,35
 1013 240 1013 240 1057 283 c 128,-1,36
 1101 326 1101 326 1129.5 384.5 c 128,-1,37
 1158 443 1158 443 1175 510.5 c 128,-1,38
 1192 578 1192 578 1198.5 652 c 128,-1,39
 1205 726 1205 726 1205 801 c 256,40,41
 1205 876 1205 876 1198 951 c 128,-1,42
 1191 1026 1191 1026 1174 1093.5 c 128,-1,43
 1157 1161 1157 1161 1128.5 1219 c 128,-1,44
 1100 1277 1100 1277 1056 1320 c 128,-1,45
 1012 1363 1012 1363 951 1387 c 128,-1,46
 890 1411 890 1411 809 1411 c 0,23,24
EndSplineSet
EndChar

StartChar: R
Encoding: 82 82 55
Width: 1463
GlyphClass: 2
Flags: W
LayerCount: 2
Fore
SplineSet
608 900 m 2,0,1
 720 900 720 900 800.5 916 c 128,-1,2
 881 932 881 932 933 965 c 128,-1,3
 985 998 985 998 1009.5 1048.5 c 128,-1,4
 1034 1099 1034 1099 1034 1168 c 0,5,6
 1034 1249 1034 1249 1002 1296 c 128,-1,7
 970 1343 970 1343 912 1367.5 c 128,-1,8
 854 1392 854 1392 774 1398.5 c 128,-1,9
 694 1405 694 1405 598 1405 c 2,10,-1
 462 1405 l 1,11,-1
 462 900 l 1,12,-1
 608 900 l 2,0,1
889 805 m 1,13,14
 998 793 998 793 1083.5 765 c 128,-1,15
 1169 737 1169 737 1228 688.5 c 128,-1,16
 1287 640 1287 640 1318 567.5 c 128,-1,17
 1349 495 1349 495 1349 395 c 2,18,-1
 1349 0 l 1,19,-1
 1046 0 l 1,20,-1
 1046 416 l 2,21,22
 1046 513 1046 513 1015 571.5 c 128,-1,23
 984 630 984 630 926.5 661 c 128,-1,24
 869 692 869 692 787.5 701.5 c 128,-1,25
 706 711 706 711 606 711 c 2,26,-1
 462 711 l 1,27,-1
 462 0 l 1,28,-1
 156 0 l 1,29,-1
 156 1607 l 1,30,-1
 601 1607 l 2,31,32
 805 1607 805 1607 946 1582.5 c 128,-1,33
 1087 1558 1087 1558 1175.5 1507.5 c 128,-1,34
 1264 1457 1264 1457 1303.5 1380.5 c 128,-1,35
 1343 1304 1343 1304 1343 1201 c 0,36,37
 1343 1096 1343 1096 1309 1022.5 c 128,-1,38
 1275 949 1275 949 1214.5 901.5 c 128,-1,39
 1154 854 1154 854 1071 831 c 128,-1,40
 988 808 988 808 889 805 c 1,13,14
EndSplineSet
EndChar

StartChar: S
Encoding: 83 83 56
Width: 1325
GlyphClass: 2
Flags: W
LayerCount: 2
Fore
SplineSet
1246 443 m 0,0,1
 1246 339 1246 339 1212 252 c 128,-1,2
 1178 165 1178 165 1106.5 101 c 128,-1,3
 1035 37 1035 37 923.5 1.5 c 128,-1,4
 812 -34 812 -34 658 -34 c 0,5,6
 604 -34 604 -34 552 -28 c 128,-1,7
 500 -22 500 -22 452.5 -12.5 c 128,-1,8
 405 -3 405 -3 362.5 9.5 c 128,-1,9
 320 22 320 22 284 35 c 0,10,11
 199 65 199 65 127 104 c 1,12,-1
 182 323 l 1,13,14
 239 296 239 296 301 273 c 0,15,16
 355 253 355 253 422 233.5 c 128,-1,17
 489 214 489 214 560 205 c 0,18,19
 602 199 602 199 642 196.5 c 128,-1,20
 682 194 682 194 717 196 c 0,21,22
 773 200 773 200 817 213 c 128,-1,23
 861 226 861 226 892 250.5 c 128,-1,24
 923 275 923 275 939 312 c 128,-1,25
 955 349 955 349 955 402 c 0,26,27
 955 487 955 487 909 544 c 128,-1,28
 863 601 863 601 767 637 c 1,29,-1
 413 778 l 2,30,31
 341 806 341 806 280.5 845.5 c 128,-1,32
 220 885 220 885 176.5 936.5 c 128,-1,33
 133 988 133 988 109 1052.5 c 128,-1,34
 85 1117 85 1117 85 1196 c 0,35,36
 85 1311 85 1311 132 1394.5 c 128,-1,37
 179 1478 179 1478 257 1531.5 c 128,-1,38
 335 1585 335 1585 437 1610.5 c 128,-1,39
 539 1636 539 1636 650 1636 c 0,40,41
 752 1636 752 1636 840.5 1619 c 128,-1,42
 929 1602 929 1602 997.5 1579.5 c 128,-1,43
 1066 1557 1066 1557 1112 1535 c 128,-1,44
 1158 1513 1158 1513 1175 1503 c 1,45,-1
 1111 1295 l 1,46,47
 1096 1304 1096 1304 1055 1323 c 128,-1,48
 1014 1342 1014 1342 955.5 1361.5 c 128,-1,49
 897 1381 897 1381 827.5 1396 c 128,-1,50
 758 1411 758 1411 686 1411 c 0,51,52
 619 1411 619 1411 561.5 1402.5 c 128,-1,53
 504 1394 504 1394 462 1372 c 128,-1,54
 420 1350 420 1350 396 1312.5 c 128,-1,55
 372 1275 372 1275 372 1218 c 0,56,57
 372 1194 372 1194 378.5 1170.5 c 128,-1,58
 385 1147 385 1147 401.5 1125.5 c 128,-1,59
 418 1104 418 1104 447.5 1084 c 128,-1,60
 477 1064 477 1064 524 1047 c 2,61,-1
 869 915 l 2,62,63
 952 883 952 883 1021.5 840 c 128,-1,64
 1091 797 1091 797 1141 739.5 c 128,-1,65
 1191 682 1191 682 1218.5 608.5 c 128,-1,66
 1246 535 1246 535 1246 443 c 0,0,1
EndSplineSet
EndChar

StartChar: T
Encoding: 84 84 57
Width: 1214
GlyphClass: 2
Flags: W
LayerCount: 2
Fore
SplineSet
761 1405 m 1,0,-1
 761 0 l 1,1,-1
 455 0 l 1,2,-1
 455 1405 l 1,3,-1
 19 1405 l 1,4,-1
 19 1607 l 1,5,-1
 1191 1607 l 1,6,-1
 1191 1405 l 1,7,-1
 761 1405 l 1,0,-1
EndSplineSet
EndChar

StartChar: U
Encoding: 85 85 58
Width: 1589
GlyphClass: 2
Flags: W
LayerCount: 2
Fore
SplineSet
793 191 m 0,0,1
 908 191 908 191 976.5 226 c 128,-1,2
 1045 261 1045 261 1081.5 329.5 c 128,-1,3
 1118 398 1118 398 1129 498 c 128,-1,4
 1140 598 1140 598 1140 729 c 2,5,-1
 1140 1607 l 1,6,-1
 1446 1607 l 1,7,-1
 1446 733 l 2,8,9
 1446 546 1446 546 1410 402.5 c 128,-1,10
 1374 259 1374 259 1296 162 c 128,-1,11
 1218 65 1218 65 1094.5 15.5 c 128,-1,12
 971 -34 971 -34 797 -34 c 0,13,14
 618 -34 618 -34 493 15.5 c 128,-1,15
 368 65 368 65 289.5 162 c 128,-1,16
 211 259 211 259 175.5 402.5 c 128,-1,17
 140 546 140 546 140 733 c 2,18,-1
 140 1607 l 1,19,-1
 446 1607 l 1,20,-1
 446 729 l 2,21,22
 446 598 446 598 458.5 498 c 128,-1,23
 471 398 471 398 508.5 329.5 c 128,-1,24
 546 261 546 261 614 226 c 128,-1,25
 682 191 682 191 793 191 c 0,0,1
EndSplineSet
EndChar

StartChar: V
Encoding: 86 86 59
Width: 1413
GlyphClass: 2
Flags: W
LayerCount: 2
Fore
SplineSet
709 383 m 1,0,-1
 1082 1607 l 1,1,-1
 1370 1607 l 1,2,-1
 868 0 l 1,3,-1
 545 0 l 1,4,-1
 43 1607 l 1,5,-1
 329 1607 l 1,6,-1
 709 383 l 1,0,-1
EndSplineSet
EndChar

StartChar: W
Encoding: 87 87 60
Width: 2028
GlyphClass: 2
Flags: W
LayerCount: 2
Fore
SplineSet
1189 1607 m 1,0,-1
 1435 331 l 1,1,-1
 1691 1607 l 1,2,-1
 1986 1607 l 1,3,-1
 1638 -2 l 1,4,-1
 1261 -2 l 1,5,-1
 1014 1338 l 1,6,-1
 751 0 l 1,7,-1
 388 0 l 1,8,-1
 41 1607 l 1,9,-1
 336 1607 l 1,10,-1
 591 331 l 1,11,-1
 837 1607 l 1,12,-1
 1189 1607 l 1,0,-1
EndSplineSet
EndChar

StartChar: X
Encoding: 88 88 61
Width: 1374
GlyphClass: 2
Flags: W
LayerCount: 2
Fore
SplineSet
1040 1607 m 1,0,-1
 1354 1607 l 1,1,-1
 858 805 l 1,2,-1
 1355 0 l 1,3,-1
 1026 0 l 1,4,-1
 687 556 l 1,5,-1
 348 0 l 1,6,-1
 19 0 l 1,7,-1
 516 805 l 1,8,-1
 20 1607 l 1,9,-1
 335 1607 l 1,10,-1
 687 1029 l 1,11,-1
 1040 1607 l 1,0,-1
EndSplineSet
EndChar

StartChar: Y
Encoding: 89 89 62
Width: 1291
GlyphClass: 2
Flags: W
LayerCount: 2
Fore
SplineSet
1002 1607 m 1,0,-1
 1310 1607 l 1,1,-1
 789 514 l 1,2,-1
 789 0 l 1,3,-1
 498 0 l 1,4,-1
 498 514 l 1,5,-1
 -19 1607 l 1,6,-1
 287 1607 l 1,7,-1
 645 830 l 1,8,-1
 1002 1607 l 1,0,-1
EndSplineSet
EndChar

StartChar: Z
Encoding: 90 90 63
Width: 1250
GlyphClass: 2
Flags: W
LayerCount: 2
Fore
SplineSet
1174 1405 m 1,0,-1
 412 202 l 1,1,-1
 1176 202 l 1,2,-1
 1176 0 l 1,3,-1
 78 0 l 1,4,-1
 78 214 l 1,5,-1
 843 1405 l 1,6,-1
 78 1405 l 1,7,-1
 78 1607 l 1,8,-1
 1174 1607 l 1,9,-1
 1174 1405 l 1,0,-1
EndSplineSet
EndChar

StartChar: bracketleft
Encoding: 91 91 64
Width: 1137
GlyphClass: 2
Flags: W
LayerCount: 2
Fore
SplineSet
978 1607 m 1,0,-1
 978 1405 l 1,1,-1
 532 1405 l 1,2,-1
 532 202 l 1,3,-1
 978 202 l 1,4,-1
 978 0 l 1,5,-1
 249 0 l 1,6,-1
 249 1607 l 1,7,-1
 978 1607 l 1,0,-1
EndSplineSet
EndChar

StartChar: backslash
Encoding: 92 92 65
Width: 1142
GlyphClass: 2
Flags: W
LayerCount: 2
Fore
SplineSet
1013 -70 m 1,0,-1
 751 -159 l 1,1,-1
 149 1647 l 1,2,-1
 411 1733 l 1,3,-1
 1013 -70 l 1,0,-1
EndSplineSet
EndChar

StartChar: bracketright
Encoding: 93 93 66
Width: 1161
GlyphClass: 2
Flags: W
LayerCount: 2
Fore
SplineSet
935 1607 m 1,0,-1
 935 0 l 1,1,-1
 206 0 l 1,2,-1
 206 202 l 1,3,-1
 651 202 l 1,4,-1
 651 1405 l 1,5,-1
 206 1405 l 1,6,-1
 206 1607 l 1,7,-1
 935 1607 l 1,0,-1
EndSplineSet
EndChar

StartChar: asciicircum
Encoding: 94 94 67
Width: 1331
GlyphClass: 2
Flags: W
LayerCount: 2
Fore
SplineSet
763 1135 m 1,0,-1
 1039 552 l 1,1,-1
 819 521 l 1,2,-1
 664 909 l 1,3,-1
 510 521 l 1,4,-1
 291 552 l 1,5,-1
 568 1135 l 1,6,-1
 763 1135 l 1,0,-1
EndSplineSet
EndChar

StartChar: underscore
Encoding: 95 95 68
Width: 1204
GlyphClass: 2
Flags: W
LayerCount: 2
Fore
SplineSet
92 -105 m 1,0,-1
 92 115 l 1,1,-1
 1084 115 l 1,2,-1
 1084 -105 l 1,3,-1
 92 -105 l 1,0,-1
EndSplineSet
EndChar

StartChar: grave
Encoding: 96 96 69
Width: 844
GlyphClass: 2
Flags: W
LayerCount: 2
Fore
SplineSet
181 776 m 1,0,-1
 470 901 l 1,1,-1
 657 275 l 1,2,-1
 533 218 l 1,3,-1
 181 776 l 1,0,-1
EndSplineSet
EndChar

StartChar: a
Encoding: 97 97 70
Width: 1244
GlyphClass: 2
Flags: W
LayerCount: 2
Fore
SplineSet
617 1016 m 0,0,1
 516 1016 516 1016 420 989 c 128,-1,2
 324 962 324 962 239 912 c 1,3,-1
 160 1094 l 1,4,5
 211 1124 211 1124 263 1146.5 c 128,-1,6
 315 1169 315 1169 371 1184.5 c 128,-1,7
 427 1200 427 1200 489.5 1207.5 c 128,-1,8
 552 1215 552 1215 624 1215 c 0,9,10
 766 1215 766 1215 860 1181 c 128,-1,11
 954 1147 954 1147 1009.5 1079 c 128,-1,12
 1065 1011 1065 1011 1087.5 908 c 128,-1,13
 1110 805 1110 805 1110 666 c 2,14,-1
 1110 0 l 1,15,-1
 886 0 l 1,16,-1
 846 164 l 1,17,18
 781 65 781 65 696 20.5 c 128,-1,19
 611 -24 611 -24 494 -24 c 0,20,21
 399 -24 399 -24 323.5 0.5 c 128,-1,22
 248 25 248 25 195 73.5 c 128,-1,23
 142 122 142 122 113.5 193.5 c 128,-1,24
 85 265 85 265 85 360 c 0,25,26
 85 448 85 448 117 516 c 128,-1,27
 149 584 149 584 207 631.5 c 128,-1,28
 265 679 265 679 347 705 c 128,-1,29
 429 731 429 731 528 735 c 0,30,31
 551 735 551 735 573.5 735.5 c 128,-1,32
 596 736 596 736 619 735 c 0,33,34
 694 731 694 731 746 722 c 128,-1,35
 798 713 798 713 819 709 c 1,36,37
 819 778 819 778 815.5 834.5 c 128,-1,38
 812 891 812 891 792.5 931.5 c 128,-1,39
 773 972 773 972 732 994 c 128,-1,40
 691 1016 691 1016 617 1016 c 0,0,1
569 177 m 0,41,42
 639 177 639 177 700.5 208 c 128,-1,43
 762 239 762 239 819 300 c 1,44,-1
 819 561 l 1,45,46
 810 561 810 561 791.5 563.5 c 128,-1,47
 773 566 773 566 750.5 568 c 128,-1,48
 728 570 728 570 705.5 572 c 128,-1,49
 683 574 683 574 667 574 c 0,50,51
 595 574 595 574 541 565 c 128,-1,52
 487 556 487 556 450.5 533.5 c 128,-1,53
 414 511 414 511 396 474 c 128,-1,54
 378 437 378 437 378 382 c 0,55,56
 378 274 378 274 429 225.5 c 128,-1,57
 480 177 480 177 569 177 c 0,41,42
EndSplineSet
EndChar

StartChar: b
Encoding: 98 98 71
Width: 1325
GlyphClass: 2
Flags: W
LayerCount: 2
Fore
SplineSet
713 177 m 0,0,1
 831 177 831 177 892 281 c 128,-1,2
 953 385 953 385 953 608 c 0,3,4
 953 722 953 722 939 800 c 128,-1,5
 925 878 925 878 897 926 c 128,-1,6
 869 974 869 974 828 995 c 128,-1,7
 787 1016 787 1016 732 1016 c 0,8,9
 660 1016 660 1016 590 986 c 128,-1,10
 520 956 520 956 446 890 c 1,11,-1
 446 292 l 1,12,13
 508 230 508 230 573.5 203.5 c 128,-1,14
 639 177 639 177 713 177 c 0,0,1
759 -24 m 0,15,16
 641 -24 641 -24 554.5 27 c 128,-1,17
 468 78 468 78 419 174 c 1,18,-1
 361 0 l 1,19,-1
 154 0 l 1,20,-1
 154 1668 l 1,21,-1
 446 1712 l 1,22,-1
 446 1067 l 1,23,24
 515 1142 515 1142 601.5 1178.5 c 128,-1,25
 688 1215 688 1215 773 1215 c 0,26,27
 879 1215 879 1215 961.5 1180 c 128,-1,28
 1044 1145 1044 1145 1102 1077.5 c 128,-1,29
 1160 1010 1160 1010 1193.5 912.5 c 128,-1,30
 1227 815 1227 815 1235 689 c 0,31,32
 1237 651 1237 651 1237.5 613.5 c 128,-1,33
 1238 576 1238 576 1236 539 c 0,34,35
 1229 393 1229 393 1193 287 c 128,-1,36
 1157 181 1157 181 1095.5 112 c 128,-1,37
 1034 43 1034 43 949 9.5 c 128,-1,38
 864 -24 864 -24 759 -24 c 0,15,16
EndSplineSet
EndChar

StartChar: c
Encoding: 99 99 72
Width: 1104
GlyphClass: 2
Flags: W
LayerCount: 2
Fore
SplineSet
653 -24 m 0,0,1
 550 -24 550 -24 467.5 0 c 128,-1,2
 385 24 385 24 322 66 c 128,-1,3
 259 108 259 108 214 165.5 c 128,-1,4
 169 223 169 223 140.5 291 c 128,-1,5
 112 359 112 359 98.5 433.5 c 128,-1,6
 85 508 85 508 85 585 c 0,7,8
 85 717 85 717 123.5 831.5 c 128,-1,9
 162 946 162 946 235 1031.5 c 128,-1,10
 308 1117 308 1117 414 1166 c 128,-1,11
 520 1215 520 1215 656 1215 c 0,12,13
 725 1215 725 1215 782.5 1206 c 128,-1,14
 840 1197 840 1197 887.5 1182 c 128,-1,15
 935 1167 935 1167 973 1147 c 128,-1,16
 1011 1127 1011 1127 1041 1105 c 1,17,-1
 978 912 l 1,18,19
 955 931 955 931 923.5 950 c 128,-1,20
 892 969 892 969 854.5 983.5 c 128,-1,21
 817 998 817 998 774 1007 c 128,-1,22
 731 1016 731 1016 686 1016 c 1,23,24
 602 1012 602 1012 543.5 983 c 128,-1,25
 485 954 485 954 448.5 900.5 c 128,-1,26
 412 847 412 847 395.5 769.5 c 128,-1,27
 379 692 379 692 379 591 c 0,28,29
 379 385 379 385 459.5 281 c 128,-1,30
 540 177 540 177 691 177 c 0,31,32
 738 177 738 177 778 185 c 128,-1,33
 818 193 818 193 853 207 c 128,-1,34
 888 221 888 221 918.5 240.5 c 128,-1,35
 949 260 949 260 978 283 c 1,36,-1
 1041 91 l 1,37,38
 1012 70 1012 70 974.5 49.5 c 128,-1,39
 937 29 937 29 889 12.5 c 128,-1,40
 841 -4 841 -4 782.5 -14 c 128,-1,41
 724 -24 724 -24 653 -24 c 0,0,1
EndSplineSet
EndChar

StartChar: d
Encoding: 100 100 73
Width: 1323
GlyphClass: 2
Flags: W
LayerCount: 2
Fore
SplineSet
375 596 m 0,0,1
 375 485 375 485 391.5 405.5 c 128,-1,2
 408 326 408 326 439.5 275 c 128,-1,3
 471 224 471 224 516.5 200.5 c 128,-1,4
 562 177 562 177 619 177 c 0,5,6
 697 177 697 177 766.5 205.5 c 128,-1,7
 836 234 836 234 884 293 c 1,8,-1
 884 890 l 1,9,10
 812 948 812 948 742.5 982 c 128,-1,11
 673 1016 673 1016 597 1016 c 0,12,13
 533 1016 533 1016 490 986.5 c 128,-1,14
 447 957 447 957 421.5 902.5 c 128,-1,15
 396 848 396 848 385.5 770.5 c 128,-1,16
 375 693 375 693 375 596 c 0,0,1
541 1215 m 0,17,18
 648 1215 648 1215 734 1176.5 c 128,-1,19
 820 1138 820 1138 884 1057 c 1,20,-1
 884 1668 l 1,21,-1
 1176 1712 l 1,22,-1
 1176 0 l 1,23,-1
 967 0 l 1,24,-1
 909 174 l 1,25,26
 887 131 887 131 850.5 94.5 c 128,-1,27
 814 58 814 58 768.5 32 c 128,-1,28
 723 6 723 6 670.5 -9 c 128,-1,29
 618 -24 618 -24 565 -24 c 0,30,31
 476 -24 476 -24 406 0.5 c 128,-1,32
 336 25 336 25 282.5 68.5 c 128,-1,33
 229 112 229 112 191.5 172.5 c 128,-1,34
 154 233 154 233 130.5 305.5 c 128,-1,35
 107 378 107 378 96 460 c 128,-1,36
 85 542 85 542 85 629 c 0,37,38
 85 748 85 748 116.5 854.5 c 128,-1,39
 148 961 148 961 207 1041 c 128,-1,40
 266 1121 266 1121 350.5 1168 c 128,-1,41
 435 1215 435 1215 541 1215 c 0,17,18
EndSplineSet
EndChar

StartChar: e
Encoding: 101 101 74
Width: 1203
GlyphClass: 2
Flags: W
LayerCount: 2
Fore
SplineSet
1063 84 m 1,0,1
 1018 57 1018 57 968 37 c 128,-1,2
 918 17 918 17 867 3.5 c 128,-1,3
 816 -10 816 -10 766 -17 c 128,-1,4
 716 -24 716 -24 670 -24 c 0,5,6
 532 -24 532 -24 423.5 17.5 c 128,-1,7
 315 59 315 59 239.5 136 c 128,-1,8
 164 213 164 213 124.5 322.5 c 128,-1,9
 85 432 85 432 85 568 c 0,10,11
 85 711 85 711 121 830 c 128,-1,12
 157 949 157 949 227 1034.5 c 128,-1,13
 297 1120 297 1120 400 1167.5 c 128,-1,14
 503 1215 503 1215 638 1215 c 0,15,16
 755 1215 755 1215 845 1177 c 128,-1,17
 935 1139 935 1139 996 1069.5 c 128,-1,18
 1057 1000 1057 1000 1088.5 902.5 c 128,-1,19
 1120 805 1120 805 1120 685 c 0,20,21
 1120 609 1120 609 1117 537 c 1,22,-1
 384 537 l 1,23,24
 386 354 386 354 468 265.5 c 128,-1,25
 550 177 550 177 693 177 c 0,26,27
 785 177 785 177 857 203 c 128,-1,28
 929 229 929 229 997 281 c 1,29,-1
 1063 84 l 1,0,1
877 704 m 2,30,31
 877 859 877 859 816.5 936.5 c 128,-1,32
 756 1014 756 1014 645 1016 c 1,33,34
 580 1014 580 1014 532 987.5 c 128,-1,35
 484 961 484 961 452 917.5 c 128,-1,36
 420 874 420 874 403 815.5 c 128,-1,37
 386 757 386 757 383 690 c 1,38,-1
 877 690 l 1,39,-1
 877 704 l 2,30,31
EndSplineSet
EndChar

StartChar: f
Encoding: 102 102 75
Width: 854
GlyphClass: 2
Flags: W
LayerCount: 2
Fore
SplineSet
656 1494 m 0,0,1
 611 1494 611 1494 583 1475.5 c 128,-1,2
 555 1457 555 1457 539.5 1419 c 128,-1,3
 524 1381 524 1381 518 1323 c 128,-1,4
 512 1265 512 1265 512 1185 c 1,5,-1
 824 1185 l 1,6,-1
 824 1053 l 1,7,-1
 512 1053 l 1,8,-1
 512 0 l 1,9,-1
 219 0 l 1,10,-1
 219 1053 l 1,11,-1
 24 1053 l 1,12,-1
 24 1185 l 1,13,-1
 219 1185 l 1,14,15
 219 1453 219 1453 310 1582 c 128,-1,16
 401 1711 401 1711 597 1711 c 0,17,18
 675 1711 675 1711 736 1696.5 c 128,-1,19
 797 1682 797 1682 845 1661 c 1,20,-1
 820 1453 l 1,21,22
 782 1467 782 1467 740 1480.5 c 128,-1,23
 698 1494 698 1494 656 1494 c 0,0,1
EndSplineSet
EndChar

StartChar: g
Encoding: 103 103 76
Width: 1280
GlyphClass: 2
Flags: W
LayerCount: 2
Fore
SplineSet
582 -299 m 0,0,1
 693 -299 693 -299 767 -290 c 128,-1,2
 841 -281 841 -281 885.5 -259 c 128,-1,3
 930 -237 930 -237 948.5 -200.5 c 128,-1,4
 967 -164 967 -164 967 -110 c 0,5,6
 967 -49 967 -49 939 -16.5 c 128,-1,7
 911 16 911 16 852 32.5 c 128,-1,8
 793 49 793 49 700.5 55 c 128,-1,9
 608 61 608 61 478 69 c 1,10,11
 458 58 458 58 437 41 c 128,-1,12
 416 24 416 24 397.5 2 c 128,-1,13
 379 -20 379 -20 364.5 -45 c 128,-1,14
 350 -70 350 -70 343 -97 c 1,15,16
 332 -130 332 -130 334 -157 c 0,17,18
 337 -203 337 -203 357 -231 c 128,-1,19
 377 -259 377 -259 410.5 -274 c 128,-1,20
 444 -289 444 -289 488 -294 c 128,-1,21
 532 -299 532 -299 582 -299 c 0,0,1
663 615 m 1,22,23
 699 621 699 621 732 637.5 c 128,-1,24
 765 654 765 654 790 681.5 c 128,-1,25
 815 709 815 709 830 748.5 c 128,-1,26
 845 788 845 788 845 841 c 0,27,28
 845 937 845 937 792.5 977.5 c 128,-1,29
 740 1018 740 1018 631 1018 c 0,30,31
 580 1018 580 1018 539 1009.5 c 128,-1,32
 498 1001 498 1001 469 979 c 128,-1,33
 440 957 440 957 424.5 920.5 c 128,-1,34
 409 884 409 884 409 828 c 0,35,36
 409 790 409 790 419 755.5 c 128,-1,37
 429 721 429 721 446.5 691.5 c 128,-1,38
 464 662 464 662 488 639.5 c 128,-1,39
 512 617 512 617 541 602 c 1,40,-1
 663 615 l 1,22,23
1018 1008 m 1,41,42
 1053 963 1053 963 1071.5 925 c 128,-1,43
 1090 887 1090 887 1090 849 c 0,44,45
 1090 779 1090 779 1071 713 c 128,-1,46
 1052 647 1052 647 1006 593 c 128,-1,47
 960 539 960 539 884.5 501 c 128,-1,48
 809 463 809 463 695 449 c 2,49,-1
 367 406 l 1,50,-1
 386 272 l 1,51,-1
 667 260 l 2,52,53
 809 253 809 253 913 229.5 c 128,-1,54
 1017 206 1017 206 1085.5 161 c 128,-1,55
 1154 116 1154 116 1187.5 47.5 c 128,-1,56
 1221 -21 1221 -21 1221 -117 c 0,57,58
 1221 -225 1221 -225 1178.5 -300.5 c 128,-1,59
 1136 -376 1136 -376 1054.5 -424 c 128,-1,60
 973 -472 973 -472 854 -494 c 128,-1,61
 735 -516 735 -516 582 -516 c 0,62,63
 459 -516 459 -516 368 -496 c 128,-1,64
 277 -476 277 -476 217 -433.5 c 128,-1,65
 157 -391 157 -391 127.5 -324 c 128,-1,66
 98 -257 98 -257 98 -164 c 0,67,68
 98 -118 98 -118 114 -77.5 c 128,-1,69
 130 -37 130 -37 158 -2.5 c 128,-1,70
 186 32 186 32 223.5 59 c 128,-1,71
 261 86 261 86 303 106 c 1,72,73
 260 112 260 112 229 128.5 c 128,-1,74
 198 145 198 145 177.5 175 c 128,-1,75
 157 205 157 205 146.5 249.5 c 128,-1,76
 136 294 136 294 133 356 c 1,77,78
 133 387 133 387 140 409 c 1,79,80
 147 443 147 443 168 466.5 c 128,-1,81
 189 490 189 490 220.5 506.5 c 128,-1,82
 252 523 252 523 291.5 534.5 c 128,-1,83
 331 546 331 546 374 556 c 1,84,85
 328 562 328 562 287.5 583.5 c 128,-1,86
 247 605 247 605 217 640 c 128,-1,87
 187 675 187 675 169.5 723.5 c 128,-1,88
 152 772 152 772 152 831 c 0,89,90
 152 920 152 920 184 991.5 c 128,-1,91
 216 1063 216 1063 276 1112.5 c 128,-1,92
 336 1162 336 1162 421 1188.5 c 128,-1,93
 506 1215 506 1215 613 1215 c 0,94,95
 711 1215 711 1215 785 1199 c 128,-1,96
 859 1183 859 1183 910 1148 c 1,97,98
 948 1166 948 1166 982 1177.5 c 128,-1,99
 1016 1189 1016 1189 1051.5 1195.5 c 128,-1,100
 1087 1202 1087 1202 1128 1204.5 c 128,-1,101
 1169 1207 1169 1207 1222 1207 c 2,102,-1
 1266 1207 l 1,103,-1
 1266 1008 l 1,104,-1
 1018 1008 l 1,41,42
EndSplineSet
EndChar

StartChar: h
Encoding: 104 104 77
Width: 1350
GlyphClass: 2
Flags: W
LayerCount: 2
Fore
SplineSet
446 1049 m 1,0,1
 522 1138 522 1138 606.5 1176.5 c 128,-1,2
 691 1215 691 1215 796 1215 c 0,3,4
 914 1215 914 1215 994 1177 c 128,-1,5
 1074 1139 1074 1139 1123 1071 c 128,-1,6
 1172 1003 1172 1003 1193 907 c 128,-1,7
 1214 811 1214 811 1214 696 c 2,8,-1
 1214 0 l 1,9,-1
 922 0 l 1,10,-1
 922 711 l 2,11,12
 922 863 922 863 875.5 939.5 c 128,-1,13
 829 1016 829 1016 729 1016 c 0,14,15
 671 1016 671 1016 627 1005 c 128,-1,16
 583 994 583 994 549 977.5 c 128,-1,17
 515 961 515 961 490 941 c 128,-1,18
 465 921 465 921 446 902 c 1,19,-1
 446 0 l 1,20,-1
 154 0 l 1,21,-1
 154 1662 l 1,22,-1
 446 1714 l 1,23,-1
 446 1049 l 1,0,1
EndSplineSet
EndChar

StartChar: i
Encoding: 105 105 78
Width: 649
GlyphClass: 2
Flags: W
LayerCount: 2
Fore
SplineSet
179 0 m 1,0,-1
 179 1185 l 1,1,-1
 468 1185 l 1,2,-1
 468 0 l 1,3,-1
 179 0 l 1,0,-1
161 1578 m 0,4,5
 161 1612 161 1612 174 1642.5 c 128,-1,6
 187 1673 187 1673 209 1695.5 c 128,-1,7
 231 1718 231 1718 261 1731 c 128,-1,8
 291 1744 291 1744 325 1744 c 256,9,10
 359 1744 359 1744 389 1731 c 128,-1,11
 419 1718 419 1718 441.5 1695.5 c 128,-1,12
 464 1673 464 1673 477 1642.5 c 128,-1,13
 490 1612 490 1612 490 1578 c 0,14,15
 490 1543 490 1543 476.5 1512.5 c 128,-1,16
 463 1482 463 1482 440.5 1459.5 c 128,-1,17
 418 1437 418 1437 388 1424.5 c 128,-1,18
 358 1412 358 1412 325 1412 c 0,19,20
 289 1412 289 1412 259 1425 c 128,-1,21
 229 1438 229 1438 207 1460.5 c 128,-1,22
 185 1483 185 1483 173 1513 c 128,-1,23
 161 1543 161 1543 161 1578 c 0,4,5
EndSplineSet
EndChar

StartChar: j
Encoding: 106 106 79
Width: 656
GlyphClass: 2
Flags: W
LayerCount: 2
Fore
SplineSet
191 1576 m 0,0,1
 191 1612 191 1612 203.5 1642 c 128,-1,2
 216 1672 216 1672 237.5 1694.5 c 128,-1,3
 259 1717 259 1717 288.5 1729.5 c 128,-1,4
 318 1742 318 1742 352 1742 c 256,5,6
 386 1742 386 1742 415.5 1729 c 128,-1,7
 445 1716 445 1716 466.5 1693.5 c 128,-1,8
 488 1671 488 1671 500.5 1640.5 c 128,-1,9
 513 1610 513 1610 513 1576 c 0,10,11
 513 1540 513 1540 500 1509.5 c 128,-1,12
 487 1479 487 1479 465.5 1457 c 128,-1,13
 444 1435 444 1435 414.5 1422.5 c 128,-1,14
 385 1410 385 1410 352 1410 c 0,15,16
 316 1410 316 1410 286 1423.5 c 128,-1,17
 256 1437 256 1437 235 1459.5 c 128,-1,18
 214 1482 214 1482 202.5 1512.5 c 128,-1,19
 191 1543 191 1543 191 1576 c 0,0,1
2 -173 m 1,20,21
 62 -136 62 -136 101.5 -94.5 c 128,-1,22
 141 -53 141 -53 164.5 0 c 128,-1,23
 188 53 188 53 197 120 c 128,-1,24
 206 187 206 187 206 274 c 2,25,-1
 206 1185 l 1,26,-1
 500 1185 l 1,27,-1
 500 187 l 2,28,29
 500 80 500 80 468.5 -12 c 128,-1,30
 437 -104 437 -104 382 -175.5 c 128,-1,31
 327 -247 327 -247 252 -295.5 c 128,-1,32
 177 -344 177 -344 89 -364 c 1,33,-1
 2 -173 l 1,20,21
EndSplineSet
EndChar

StartChar: k
Encoding: 107 107 80
Width: 1322
GlyphClass: 2
Flags: W
LayerCount: 2
Fore
SplineSet
446 0 m 1,0,-1
 154 0 l 1,1,-1
 154 1668 l 1,2,-1
 446 1713 l 1,3,-1
 446 706 l 1,4,-1
 942 1185 l 1,5,-1
 1267 1185 l 1,6,-1
 729 660 l 1,7,-1
 1287 0 l 1,8,-1
 954 0 l 1,9,-1
 550 529 l 1,10,-1
 446 436 l 1,11,-1
 446 0 l 1,0,-1
EndSplineSet
EndChar

StartChar: l
Encoding: 108 108 81
Width: 621
GlyphClass: 2
Flags: W
LayerCount: 2
Fore
SplineSet
457 0 m 1,0,-1
 163 0 l 1,1,-1
 163 1668 l 1,2,-1
 457 1712 l 1,3,-1
 457 0 l 1,0,-1
EndSplineSet
EndChar

StartChar: m
Encoding: 109 109 82
Width: 1985
GlyphClass: 2
Flags: W
LayerCount: 2
Fore
SplineSet
446 0 m 1,0,-1
 154 0 l 1,1,-1
 154 1185 l 1,2,-1
 363 1185 l 1,3,-1
 422 992 l 1,4,5
 475 1105 475 1105 564 1160 c 128,-1,6
 653 1215 653 1215 775 1215 c 0,7,8
 896 1215 896 1215 975.5 1165.5 c 128,-1,9
 1055 1116 1055 1116 1096 1019 c 1,10,11
 1162 1114 1162 1114 1257.5 1164.5 c 128,-1,12
 1353 1215 1353 1215 1484 1215 c 0,13,14
 1574 1215 1574 1215 1642.5 1184 c 128,-1,15
 1711 1153 1711 1153 1757 1095.5 c 128,-1,16
 1803 1038 1803 1038 1826 956 c 128,-1,17
 1849 874 1849 874 1849 773 c 2,18,-1
 1849 0 l 1,19,-1
 1556 0 l 1,20,-1
 1556 790 l 2,21,22
 1556 895 1556 895 1527 946.5 c 128,-1,23
 1498 998 1498 998 1444 1008 c 1,24,25
 1413 1017 1413 1017 1377 1012 c 1,26,27
 1318 1007 1318 1007 1262.5 973 c 128,-1,28
 1207 939 1207 939 1145 876 c 1,29,-1
 1145 0 l 1,30,-1
 853 0 l 1,31,-1
 853 797 l 2,32,33
 853 891 853 891 829.5 940.5 c 128,-1,34
 806 990 806 990 751 1003 c 1,35,36
 715 1015 715 1015 667 1009 c 1,37,38
 607 998 607 998 552 958.5 c 128,-1,39
 497 919 497 919 446 858 c 1,40,-1
 446 0 l 1,0,-1
EndSplineSet
EndChar

StartChar: n
Encoding: 110 110 83
Width: 1332
GlyphClass: 2
Flags: W
LayerCount: 2
Fore
SplineSet
425 1017 m 1,0,1
 451 1060 451 1060 489.5 1096.5 c 128,-1,2
 528 1133 528 1133 575.5 1159.5 c 128,-1,3
 623 1186 623 1186 677 1200.5 c 128,-1,4
 731 1215 731 1215 788 1215 c 0,5,6
 896 1215 896 1215 973.5 1184.5 c 128,-1,7
 1051 1154 1051 1154 1100.5 1093.5 c 128,-1,8
 1150 1033 1150 1033 1173 943.5 c 128,-1,9
 1196 854 1196 854 1196 737 c 2,10,-1
 1196 0 l 1,11,-1
 903 0 l 1,12,-1
 903 752 l 2,13,14
 903 890 903 890 859 953 c 128,-1,15
 815 1016 815 1016 715 1016 c 0,16,17
 674 1016 674 1016 632.5 1003 c 128,-1,18
 591 990 591 990 555 970 c 128,-1,19
 519 950 519 950 490.5 926.5 c 128,-1,20
 462 903 462 903 446 881 c 1,21,-1
 446 0 l 1,22,-1
 154 0 l 1,23,-1
 154 1185 l 1,24,-1
 374 1185 l 1,25,-1
 425 1017 l 1,0,1
EndSplineSet
EndChar

StartChar: o
Encoding: 111 111 84
Width: 1299
GlyphClass: 2
Flags: W
LayerCount: 2
Fore
SplineSet
647 168 m 0,0,1
 725 168 725 168 777.5 199.5 c 128,-1,2
 830 231 830 231 862 287 c 128,-1,3
 894 343 894 343 908 420 c 128,-1,4
 922 497 922 497 922 588 c 0,5,6
 922 678 922 678 908 755 c 128,-1,7
 894 832 894 832 862 889 c 128,-1,8
 830 946 830 946 777.5 978 c 128,-1,9
 725 1010 725 1010 647 1010 c 256,10,11
 569 1010 569 1010 516.5 977.5 c 128,-1,12
 464 945 464 945 432 888.5 c 128,-1,13
 400 832 400 832 386 755 c 128,-1,14
 372 678 372 678 372 588 c 0,15,16
 372 542 372 542 376 493 c 128,-1,17
 380 444 380 444 391 397.5 c 128,-1,18
 402 351 402 351 421 309.5 c 128,-1,19
 440 268 440 268 470.5 237 c 128,-1,20
 501 206 501 206 544.5 187 c 128,-1,21
 588 168 588 168 647 168 c 0,0,1
1209 587 m 0,22,23
 1209 456 1209 456 1176.5 343 c 128,-1,24
 1144 230 1144 230 1076 147 c 128,-1,25
 1008 64 1008 64 901 16.5 c 128,-1,26
 794 -31 794 -31 646 -31 c 256,27,28
 498 -31 498 -31 391.5 16.5 c 128,-1,29
 285 64 285 64 216 147 c 128,-1,30
 147 230 147 230 114.5 343 c 128,-1,31
 82 456 82 456 82 587 c 0,32,33
 82 720 82 720 115 834 c 128,-1,34
 148 948 148 948 217 1031.5 c 128,-1,35
 286 1115 286 1115 392.5 1162.5 c 128,-1,36
 499 1210 499 1210 646 1210 c 256,37,38
 793 1210 793 1210 899.5 1162.5 c 128,-1,39
 1006 1115 1006 1115 1074.5 1031.5 c 128,-1,40
 1143 948 1143 948 1176 834 c 128,-1,41
 1209 720 1209 720 1209 587 c 0,22,23
EndSplineSet
EndChar

StartChar: p
Encoding: 112 112 85
Width: 1332
GlyphClass: 2
Flags: W
LayerCount: 2
Fore
SplineSet
736 1016 m 0,0,1
 658 1016 658 1016 581 981 c 128,-1,2
 504 946 504 946 446 886 c 1,3,-1
 446 314 l 1,4,5
 513 251 513 251 588.5 214 c 128,-1,6
 664 177 664 177 730 177 c 0,7,8
 776 177 776 177 811 194.5 c 128,-1,9
 846 212 846 212 871 242 c 128,-1,10
 896 272 896 272 912.5 311.5 c 128,-1,11
 929 351 929 351 938.5 395.5 c 128,-1,12
 948 440 948 440 952 486.5 c 128,-1,13
 956 533 956 533 956 577 c 0,14,15
 956 681 956 681 944 762.5 c 128,-1,16
 932 844 932 844 906 900.5 c 128,-1,17
 880 957 880 957 838 986.5 c 128,-1,18
 796 1016 796 1016 736 1016 c 0,0,1
756 -24 m 0,19,20
 663 -24 663 -24 583 20 c 128,-1,21
 503 64 503 64 446 140 c 1,22,-1
 446 -437 l 1,23,-1
 154 -446 l 1,24,-1
 154 1185 l 1,25,-1
 375 1185 l 1,26,-1
 429 1012 l 1,27,28
 475 1104 475 1104 561 1159.5 c 128,-1,29
 647 1215 647 1215 768 1215 c 0,30,31
 1006 1215 1006 1215 1126.5 1054 c 128,-1,32
 1247 893 1247 893 1247 586 c 0,33,34
 1247 453 1247 453 1214.5 341 c 128,-1,35
 1182 229 1182 229 1119.5 148 c 128,-1,36
 1057 67 1057 67 965.5 21.5 c 128,-1,37
 874 -24 874 -24 756 -24 c 0,19,20
EndSplineSet
EndChar

StartChar: q
Encoding: 113 113 86
Width: 1323
GlyphClass: 2
Flags: W
LayerCount: 2
Fore
SplineSet
605 177 m 0,0,1
 640 177 640 177 678 187.5 c 128,-1,2
 716 198 716 198 752.5 216 c 128,-1,3
 789 234 789 234 823 258 c 128,-1,4
 857 282 857 282 884 308 c 1,5,-1
 884 870 l 1,6,7
 825 945 825 945 755.5 980.5 c 128,-1,8
 686 1016 686 1016 614 1016 c 0,9,10
 540 1016 540 1016 493.5 981 c 128,-1,11
 447 946 447 946 420.5 887 c 128,-1,12
 394 828 394 828 384 750.5 c 128,-1,13
 374 673 374 673 374 588 c 0,14,15
 374 507 374 507 383.5 433 c 128,-1,16
 393 359 393 359 418.5 302 c 128,-1,17
 444 245 444 245 489 211 c 128,-1,18
 534 177 534 177 605 177 c 0,0,1
572 1215 m 0,19,20
 669 1215 669 1215 752.5 1164.5 c 128,-1,21
 836 1114 836 1114 892 1009 c 1,22,-1
 935 1185 l 1,23,-1
 1176 1185 l 1,24,-1
 1176 -442 l 1,25,-1
 884 -452 l 1,26,-1
 884 141 l 1,27,28
 821 66 821 66 742 21 c 128,-1,29
 663 -24 663 -24 566 -24 c 0,30,31
 482 -24 482 -24 413.5 -1.5 c 128,-1,32
 345 21 345 21 291.5 62 c 128,-1,33
 238 103 238 103 199 159.5 c 128,-1,34
 160 216 160 216 134.5 284 c 128,-1,35
 109 352 109 352 97 428.5 c 128,-1,36
 85 505 85 505 85 586 c 0,37,38
 85 730 85 730 112.5 846 c 128,-1,39
 140 962 140 962 199 1044 c 128,-1,40
 258 1126 258 1126 350.5 1170.5 c 128,-1,41
 443 1215 443 1215 572 1215 c 0,19,20
EndSplineSet
EndChar

StartChar: r
Encoding: 114 114 87
Width: 852
GlyphClass: 2
Flags: W
LayerCount: 2
Fore
SplineSet
433 994 m 1,0,1
 479 1070 479 1070 539 1121 c 128,-1,2
 599 1172 599 1172 679 1183 c 1,3,4
 714 1190 714 1190 748.5 1190 c 128,-1,5
 783 1190 783 1190 819 1188 c 1,6,-1
 819 944 l 1,7,8
 802 951 802 951 772 953.5 c 128,-1,9
 742 956 742 956 708 956 c 0,10,11
 638 956 638 956 572 923.5 c 128,-1,12
 506 891 506 891 446 840 c 1,13,-1
 446 0 l 1,14,-1
 154 0 l 1,15,-1
 154 1185 l 1,16,-1
 397 1185 l 1,17,-1
 433 994 l 1,0,1
EndSplineSet
EndChar

StartChar: s
Encoding: 115 115 88
Width: 1070
GlyphClass: 2
Flags: W
LayerCount: 2
Fore
SplineSet
345 560 m 1,0,1
 293 579 293 579 247 605 c 128,-1,2
 201 631 201 631 166.5 668.5 c 128,-1,3
 132 706 132 706 111.5 759 c 128,-1,4
 91 812 91 812 91 886 c 0,5,6
 91 964 91 964 124 1025.5 c 128,-1,7
 157 1087 157 1087 216 1129 c 128,-1,8
 275 1171 275 1171 356 1193 c 128,-1,9
 437 1215 437 1215 534 1215 c 0,10,11
 609 1215 609 1215 681.5 1201 c 128,-1,12
 754 1187 754 1187 812.5 1168.5 c 128,-1,13
 871 1150 871 1150 910 1132.5 c 128,-1,14
 949 1115 949 1115 957 1109 c 1,15,-1
 891 921 l 1,16,17
 879 930 879 930 842.5 946 c 128,-1,18
 806 962 806 962 756.5 977.5 c 128,-1,19
 707 993 707 993 651.5 1004.5 c 128,-1,20
 596 1016 596 1016 545 1016 c 0,21,22
 440 1016 440 1016 395 979.5 c 128,-1,23
 350 943 350 943 350 886 c 0,24,25
 350 864 350 864 357 847.5 c 128,-1,26
 364 831 364 831 379 817.5 c 128,-1,27
 394 804 394 804 417 792.5 c 128,-1,28
 440 781 440 781 471 769 c 2,29,-1
 663 698 l 2,30,31
 741 669 741 669 802 635.5 c 128,-1,32
 863 602 863 602 905.5 559 c 128,-1,33
 948 516 948 516 970 463.5 c 128,-1,34
 992 411 992 411 992 345 c 0,35,36
 992 255 992 255 958.5 186 c 128,-1,37
 925 117 925 117 864.5 70.5 c 128,-1,38
 804 24 804 24 720 0 c 128,-1,39
 636 -24 636 -24 536 -24 c 0,40,41
 449 -24 449 -24 372.5 -8.5 c 128,-1,42
 296 7 296 7 237.5 27 c 128,-1,43
 179 47 179 47 142 65.5 c 128,-1,44
 105 84 105 84 97 90 c 1,45,-1
 163 281 l 1,46,47
 172 274 172 274 209.5 257 c 128,-1,48
 247 240 247 240 299.5 222 c 128,-1,49
 352 204 352 204 411 190.5 c 128,-1,50
 470 177 470 177 522 177 c 0,51,52
 564 177 564 177 600.5 184.5 c 128,-1,53
 637 192 637 192 663.5 210 c 128,-1,54
 690 228 690 228 705.5 258 c 128,-1,55
 721 288 721 288 721 332 c 0,56,57
 721 380 721 380 683 412.5 c 128,-1,58
 645 445 645 445 578 470 c 2,59,-1
 345 560 l 1,0,1
EndSplineSet
EndChar

StartChar: t
Encoding: 116 116 89
Width: 919
GlyphClass: 2
Flags: W
LayerCount: 2
Fore
SplineSet
553 -24 m 0,0,1
 464 -24 464 -24 400.5 4.5 c 128,-1,2
 337 33 337 33 296.5 92 c 128,-1,3
 256 151 256 151 237.5 241 c 128,-1,4
 219 331 219 331 219 455 c 2,5,-1
 219 1054 l 1,6,-1
 16 1054 l 1,7,-1
 16 1185 l 1,8,-1
 226 1185 l 1,9,-1
 236 1597 l 1,10,-1
 510 1667 l 1,11,-1
 510 1185 l 1,12,-1
 845 1185 l 1,13,-1
 845 1054 l 1,14,-1
 510 1054 l 1,15,-1
 510 377 l 2,16,17
 510 277 510 277 535.5 227 c 128,-1,18
 561 177 561 177 628 177 c 0,19,20
 666 177 666 177 712 198 c 128,-1,21
 758 219 758 219 812 251 c 1,22,-1
 889 72 l 1,23,24
 867 58 867 58 834.5 41.5 c 128,-1,25
 802 25 802 25 759.5 10.5 c 128,-1,26
 717 -4 717 -4 665 -14 c 128,-1,27
 613 -24 613 -24 553 -24 c 0,0,1
EndSplineSet
EndChar

StartChar: u
Encoding: 117 117 90
Width: 1311
GlyphClass: 2
Flags: W
LayerCount: 2
Fore
SplineSet
424 438 m 2,0,1
 424 333 424 333 454 268.5 c 128,-1,2
 484 204 484 204 559 190 c 1,3,4
 612 177 612 177 671 192 c 1,5,6
 724 200 724 200 770 224 c 128,-1,7
 816 248 816 248 866 297 c 1,8,-1
 866 1185 l 1,9,-1
 1159 1185 l 1,10,-1
 1159 0 l 1,11,-1
 949 0 l 1,12,-1
 891 180 l 1,13,14
 871 135 871 135 839.5 97.5 c 128,-1,15
 808 60 808 60 767 33 c 128,-1,16
 726 6 726 6 675.5 -9 c 128,-1,17
 625 -24 625 -24 567 -24 c 0,18,19
 352 -24 352 -24 243 92.5 c 128,-1,20
 134 209 134 209 134 454 c 2,21,-1
 134 1185 l 1,22,-1
 424 1185 l 1,23,-1
 424 438 l 2,0,1
EndSplineSet
EndChar

StartChar: v
Encoding: 118 118 91
Width: 1178
GlyphClass: 2
Flags: W
LayerCount: 2
Fore
SplineSet
421 0 m 1,0,-1
 20 1185 l 1,1,-1
 323 1185 l 1,2,-1
 591 266 l 1,3,-1
 854 1185 l 1,4,-1
 1160 1185 l 1,5,-1
 757 0 l 1,6,-1
 421 0 l 1,0,-1
EndSplineSet
EndChar

StartChar: w
Encoding: 119 119 92
Width: 1634
GlyphClass: 2
Flags: W
LayerCount: 2
Fore
SplineSet
816 838 m 1,0,-1
 619 0 l 1,1,-1
 333 0 l 1,2,-1
 20 1185 l 1,3,-1
 295 1185 l 1,4,-1
 482 274 l 1,5,-1
 683 1185 l 1,6,-1
 954 1185 l 1,7,-1
 1151 274 l 1,8,-1
 1345 1185 l 1,9,-1
 1616 1185 l 1,10,-1
 1303 0 l 1,11,-1
 1015 0 l 1,12,-1
 816 838 l 1,0,-1
EndSplineSet
EndChar

StartChar: x
Encoding: 120 120 93
Width: 1179
GlyphClass: 2
Flags: W
LayerCount: 2
Fore
SplineSet
362 0 m 1,0,-1
 39 0 l 1,1,-1
 446 595 l 1,2,-1
 32 1185 l 1,3,-1
 362 1185 l 1,4,-1
 593 796 l 1,5,-1
 824 1185 l 1,6,-1
 1148 1185 l 1,7,-1
 741 595 l 1,8,-1
 1141 0 l 1,9,-1
 823 0 l 1,10,-1
 593 404 l 1,11,-1
 362 0 l 1,0,-1
EndSplineSet
EndChar

StartChar: y
Encoding: 121 121 94
Width: 1181
GlyphClass: 2
Flags: W
LayerCount: 2
Fore
SplineSet
20 1185 m 1,0,-1
 315 1185 l 1,1,-1
 627 331 l 1,2,-1
 866 1185 l 1,3,-1
 1163 1185 l 1,4,-1
 744 -35 l 2,5,6
 699 -165 699 -165 638 -249.5 c 128,-1,7
 577 -334 577 -334 508.5 -383.5 c 128,-1,8
 440 -433 440 -433 367.5 -453 c 128,-1,9
 295 -473 295 -473 226 -473 c 1,10,-1
 145 -276 l 1,11,12
 226 -266 226 -266 283.5 -246 c 128,-1,13
 341 -226 341 -226 381.5 -189.5 c 128,-1,14
 422 -153 422 -153 449.5 -98 c 128,-1,15
 477 -43 477 -43 499 36 c 1,16,-1
 20 1185 l 1,0,-1
EndSplineSet
EndChar

StartChar: z
Encoding: 122 122 95
Width: 1061
GlyphClass: 2
Flags: W
LayerCount: 2
Fore
SplineSet
120 986 m 1,0,-1
 120 1185 l 1,1,-1
 955 1185 l 1,2,-1
 955 977 l 1,3,-1
 407 199 l 1,4,-1
 962 199 l 1,5,-1
 962 0 l 1,6,-1
 101 0 l 1,7,-1
 101 210 l 1,8,-1
 664 986 l 1,9,-1
 120 986 l 1,0,-1
EndSplineSet
EndChar

StartChar: braceleft
Encoding: 123 123 96
Width: 856
GlyphClass: 2
Flags: W
LayerCount: 2
Fore
SplineSet
562 1045 m 1,0,1
 561 947 561 947 545 880.5 c 128,-1,2
 529 814 529 814 501 770.5 c 128,-1,3
 473 727 473 727 435 702 c 128,-1,4
 397 677 397 677 353 664 c 1,5,6
 408 646 408 646 447 615 c 128,-1,7
 486 584 486 584 511.5 537.5 c 128,-1,8
 537 491 537 491 549.5 428 c 128,-1,9
 562 365 562 365 563 283 c 1,10,11
 563 177 563 177 574 115 c 128,-1,12
 585 53 585 53 605.5 21 c 128,-1,13
 626 -11 626 -11 656 -20 c 128,-1,14
 686 -29 686 -29 725 -29 c 1,15,-1
 725 -213 l 1,16,17
 641 -213 641 -213 568.5 -194 c 128,-1,18
 496 -175 496 -175 440 -130 c 128,-1,19
 384 -85 384 -85 347.5 -11 c 128,-1,20
 311 63 311 63 299 173 c 0,21,22
 294 211 294 211 290.5 248.5 c 128,-1,23
 287 286 287 286 283 324 c 1,24,25
 278 394 278 394 266 440.5 c 128,-1,26
 254 487 254 487 234.5 515.5 c 128,-1,27
 215 544 215 544 188 556 c 128,-1,28
 161 568 161 568 127 568 c 1,29,-1
 127 760 l 1,30,31
 161 760 161 760 188 772.5 c 128,-1,32
 215 785 215 785 234.5 813.5 c 128,-1,33
 254 842 254 842 266 889 c 128,-1,34
 278 936 278 936 283 1005 c 0,35,36
 286 1043 286 1043 290 1080 c 128,-1,37
 294 1117 294 1117 298 1155 c 0,38,39
 310 1264 310 1264 347 1338 c 128,-1,40
 384 1412 384 1412 440 1457.5 c 128,-1,41
 496 1503 496 1503 568.5 1522.5 c 128,-1,42
 641 1542 641 1542 725 1542 c 1,43,-1
 725 1357 l 1,44,45
 687 1357 687 1357 657 1348.5 c 128,-1,46
 627 1340 627 1340 606 1308.5 c 128,-1,47
 585 1277 585 1277 573.5 1215 c 128,-1,48
 562 1153 562 1153 562 1045 c 1,0,1
EndSplineSet
EndChar

StartChar: bar
Encoding: 124 124 97
Width: 752
GlyphClass: 2
Flags: W
LayerCount: 2
Fore
SplineSet
246 1709 m 1,0,-1
 507 1709 l 1,1,-1
 507 -135 l 1,2,-1
 246 -135 l 1,3,-1
 246 1709 l 1,0,-1
EndSplineSet
EndChar

StartChar: braceright
Encoding: 125 125 98
Width: 858
GlyphClass: 2
Flags: W
LayerCount: 2
Fore
SplineSet
311 1046 m 0,0,1
 311 1119 311 1119 305.5 1170.5 c 128,-1,2
 300 1222 300 1222 290 1256.5 c 128,-1,3
 280 1291 280 1291 266 1311.5 c 128,-1,4
 252 1332 252 1332 234 1342 c 128,-1,5
 216 1352 216 1352 194.5 1355 c 128,-1,6
 173 1358 173 1358 149 1358 c 1,7,-1
 149 1543 l 1,8,9
 233 1543 233 1543 305.5 1523.5 c 128,-1,10
 378 1504 378 1504 434 1459 c 128,-1,11
 490 1414 490 1414 526.5 1339.5 c 128,-1,12
 563 1265 563 1265 575 1156 c 0,13,14
 580 1119 580 1119 583.5 1081.5 c 128,-1,15
 587 1044 587 1044 591 1006 c 1,16,17
 596 937 596 937 607.5 890 c 128,-1,18
 619 843 619 843 638.5 814.5 c 128,-1,19
 658 786 658 786 684.5 773.5 c 128,-1,20
 711 761 711 761 746 761 c 1,21,-1
 746 569 l 1,22,23
 712 569 712 569 685.5 557 c 128,-1,24
 659 545 659 545 639.5 516.5 c 128,-1,25
 620 488 620 488 607.5 441 c 128,-1,26
 595 394 595 394 590 325 c 0,27,28
 587 287 587 287 583 250 c 128,-1,29
 579 213 579 213 575 175 c 0,30,31
 563 66 563 66 526.5 -8 c 128,-1,32
 490 -82 490 -82 434.5 -127.5 c 128,-1,33
 379 -173 379 -173 306 -193 c 128,-1,34
 233 -213 233 -213 149 -213 c 1,35,-1
 149 -29 l 1,36,37
 174 -29 174 -29 195.5 -26 c 128,-1,38
 217 -23 217 -23 234.5 -12.5 c 128,-1,39
 252 -2 252 -2 266 18 c 128,-1,40
 280 38 280 38 290 73 c 128,-1,41
 300 108 300 108 305 159.5 c 128,-1,42
 310 211 310 211 311 284 c 0,43,44
 312 447 312 447 361.5 538.5 c 128,-1,45
 411 630 411 630 521 665 c 1,46,47
 474 679 474 679 436 704 c 128,-1,48
 398 729 398 729 370.5 773 c 128,-1,49
 343 817 343 817 327.5 883.5 c 128,-1,50
 312 950 312 950 311 1046 c 0,0,1
EndSplineSet
EndChar

StartChar: asciitilde
Encoding: 126 126 99
Width: 1106
GlyphClass: 2
Flags: W
LayerCount: 2
Fore
SplineSet
775 286 m 0,0,1
 729 286 729 286 684.5 299.5 c 128,-1,2
 640 313 640 313 600 334 c 0,3,4
 568 350 568 350 538.5 366.5 c 128,-1,5
 509 383 509 383 484 396.5 c 128,-1,6
 459 410 459 410 438 418.5 c 128,-1,7
 417 427 417 427 401 427 c 0,8,9
 367 427 367 427 352.5 400 c 128,-1,10
 338 373 338 373 338 304 c 1,11,-1
 146 304 l 1,12,13
 146 467 146 467 205 542 c 128,-1,14
 264 617 264 617 371 617 c 0,15,16
 427 617 427 617 475.5 595.5 c 128,-1,17
 524 574 524 574 568.5 548 c 128,-1,18
 613 522 613 522 655 500.5 c 128,-1,19
 697 479 697 479 740 479 c 0,20,21
 778 479 778 479 788 507.5 c 128,-1,22
 798 536 798 536 798 587 c 1,23,-1
 997 587 l 1,24,25
 997 520 997 520 982 464.5 c 128,-1,26
 967 409 967 409 938.5 369.5 c 128,-1,27
 910 330 910 330 868.5 308 c 128,-1,28
 827 286 827 286 775 286 c 0,0,1
EndSplineSet
EndChar

StartChar: exclamdown
Encoding: 161 161 101
Width: 806
GlyphClass: 2
Flags: W
LayerCount: 2
Fore
SplineSet
578 -1 m 1,0,-1
 249 -1 l 1,1,-1
 318 1130 l 1,2,-1
 512 1130 l 1,3,-1
 578 -1 l 1,0,-1
260 1415 m 0,4,5
 260 1507 260 1507 301 1545.5 c 128,-1,6
 342 1584 342 1584 427 1584 c 0,7,8
 470 1584 470 1584 499 1571.5 c 128,-1,9
 528 1559 528 1559 545.5 1536.5 c 128,-1,10
 563 1514 563 1514 570.5 1483 c 128,-1,11
 578 1452 578 1452 578 1415 c 0,12,13
 578 1337 578 1337 539.5 1300.5 c 128,-1,14
 501 1264 501 1264 427 1264 c 0,15,16
 388 1264 388 1264 354.5 1273 c 128,-1,17
 321 1282 321 1282 293 1298 c 1,18,19
 277 1323 277 1323 268.5 1353 c 128,-1,20
 260 1383 260 1383 260 1415 c 0,4,5
EndSplineSet
EndChar

StartChar: cent
Encoding: 162 162 102
Width: 1133
GlyphClass: 2
Flags: W
LayerCount: 2
Fore
SplineSet
399 594 m 0,0,1
 399 423 399 423 455.5 322.5 c 128,-1,2
 512 222 512 222 630 198 c 1,3,-1
 630 997 l 1,4,5
 561 985 561 985 516 947.5 c 128,-1,6
 471 910 471 910 445 855.5 c 128,-1,7
 419 801 419 801 409 733.5 c 128,-1,8
 399 666 399 666 399 594 c 0,0,1
630 -17 m 1,9,10
 514 -11 514 -11 417.5 32.5 c 128,-1,11
 321 76 321 76 251.5 153.5 c 128,-1,12
 182 231 182 231 143.5 342 c 128,-1,13
 105 453 105 453 105 594 c 256,14,15
 105 735 105 735 146 846.5 c 128,-1,16
 187 958 187 958 258 1036.5 c 128,-1,17
 329 1115 329 1115 424.5 1158.5 c 128,-1,18
 520 1202 520 1202 630 1208 c 1,19,-1
 630 1382 l 1,20,-1
 771 1382 l 1,21,-1
 771 1202 l 1,22,23
 850 1193 850 1193 922.5 1167 c 128,-1,24
 995 1141 995 1141 1061 1102 c 1,25,-1
 998 910 l 1,26,27
 962 939 962 939 901 963.5 c 128,-1,28
 840 988 840 988 771 996 c 1,29,-1
 771 192 l 1,30,31
 803 193 803 193 837.5 203 c 128,-1,32
 872 213 872 213 903.5 226.5 c 128,-1,33
 935 240 935 240 959.5 253 c 128,-1,34
 984 266 984 266 997 273 c 1,35,-1
 1056 81 l 1,36,37
 1045 75 1045 75 1015 60 c 128,-1,38
 985 45 985 45 945 29 c 128,-1,39
 905 13 905 13 859 1 c 128,-1,40
 813 -11 813 -11 771 -11 c 1,41,-1
 771 -154 l 1,42,-1
 630 -154 l 1,43,-1
 630 -17 l 1,9,10
EndSplineSet
EndChar

StartChar: sterling
Encoding: 163 163 103
Width: 1195
GlyphClass: 2
Flags: W
LayerCount: 2
Fore
SplineSet
201 193 m 1,0,1
 220 215 220 215 244.5 257 c 128,-1,2
 269 299 269 299 291.5 353 c 128,-1,3
 314 407 314 407 329.5 469.5 c 128,-1,4
 345 532 345 532 345 595 c 1,5,-1
 188 595 l 1,6,-1
 188 724 l 1,7,-1
 320 724 l 1,8,9
 308 735 308 735 288.5 758.5 c 128,-1,10
 269 782 269 782 250.5 816 c 128,-1,11
 232 850 232 850 218.5 893.5 c 128,-1,12
 205 937 205 937 205 988 c 0,13,14
 205 1074 205 1074 237.5 1140.5 c 128,-1,15
 270 1207 270 1207 331.5 1253 c 128,-1,16
 393 1299 393 1299 480.5 1322.5 c 128,-1,17
 568 1346 568 1346 678 1346 c 0,18,19
 755 1346 755 1346 819.5 1333.5 c 128,-1,20
 884 1321 884 1321 935.5 1302.5 c 128,-1,21
 987 1284 987 1284 1025 1263.5 c 128,-1,22
 1063 1243 1063 1243 1088 1227 c 1,23,-1
 991 1035 l 1,24,25
 965 1051 965 1051 933 1067.5 c 128,-1,26
 901 1084 901 1084 864 1097.5 c 128,-1,27
 827 1111 827 1111 785 1119.5 c 128,-1,28
 743 1128 743 1128 697 1128 c 0,29,30
 631 1128 631 1128 588.5 1114 c 128,-1,31
 546 1100 546 1100 521.5 1076 c 128,-1,32
 497 1052 497 1052 487 1020 c 128,-1,33
 477 988 477 988 477 953 c 0,34,35
 477 921 477 921 482.5 894 c 128,-1,36
 488 867 488 867 499.5 841 c 128,-1,37
 511 815 511 815 529 787.5 c 128,-1,38
 547 760 547 760 573 728 c 1,39,-1
 994 728 l 1,40,-1
 994 595 l 1,41,-1
 584 595 l 1,42,43
 584 517 584 517 566.5 450.5 c 128,-1,44
 549 384 549 384 525.5 333 c 128,-1,45
 502 282 502 282 479.5 248 c 128,-1,46
 457 214 457 214 447 199 c 1,47,-1
 1058 199 l 1,48,-1
 1058 0 l 1,49,-1
 201 0 l 1,50,-1
 201 193 l 1,0,1
EndSplineSet
EndChar

StartChar: currency
Encoding: 164 164 104
Width: 1409
GlyphClass: 2
Flags: W
LayerCount: 2
Fore
SplineSet
337 749 m 1,0,1
 266 858 266 858 266 986 c 0,2,3
 266 1119 266 1119 344 1236 c 1,4,-1
 142 1438 l 1,5,-1
 271 1567 l 1,6,-1
 474 1365 l 1,7,8
 590 1445 590 1445 726 1445 c 0,9,10
 854 1445 854 1445 962 1375 c 1,11,-1
 1156 1567 l 1,12,-1
 1285 1438 l 1,13,-1
 1090 1243 l 1,14,15
 1154 1142 1154 1142 1154 1016 c 0,16,17
 1154 881 1154 881 1074 765 c 1,18,-1
 1285 554 l 1,19,-1
 1156 424 l 1,20,-1
 944 636 l 1,21,22
 827 557 827 557 696 557 c 0,23,24
 633 557 633 557 576.5 573 c 128,-1,25
 520 589 520 589 469 621 c 1,26,-1
 271 424 l 1,27,-1
 142 554 l 1,28,-1
 337 749 l 1,0,1
719 1278 m 0,29,30
 662 1278 662 1278 610.5 1254.5 c 128,-1,31
 559 1231 559 1231 519 1191.5 c 128,-1,32
 479 1152 479 1152 455.5 1100.5 c 128,-1,33
 432 1049 432 1049 432 992 c 256,34,35
 432 935 432 935 454.5 886 c 128,-1,36
 477 837 477 837 514.5 800.5 c 128,-1,37
 552 764 552 764 602 743 c 128,-1,38
 652 722 652 722 706 722 c 0,39,40
 761 722 761 722 812 746 c 128,-1,41
 863 770 863 770 902 809.5 c 128,-1,42
 941 849 941 849 964.5 900.5 c 128,-1,43
 988 952 988 952 988 1008 c 0,44,45
 988 1063 988 1063 966 1112 c 128,-1,46
 944 1161 944 1161 907 1198 c 128,-1,47
 870 1235 870 1235 821.5 1256.5 c 128,-1,48
 773 1278 773 1278 719 1278 c 0,29,30
EndSplineSet
EndChar

StartChar: yen
Encoding: 165 165 105
Width: 1300
GlyphClass: 2
Flags: W
LayerCount: 2
Fore
SplineSet
1008 1606 m 1,0,-1
 1324 1606 l 1,1,-1
 891 752 l 1,2,-1
 1121 752 l 1,3,-1
 1121 636 l 1,4,-1
 842 636 l 1,5,-1
 804 518 l 1,6,-1
 1121 518 l 1,7,-1
 1121 404 l 1,8,-1
 802 404 l 1,9,-1
 802 0 l 1,10,-1
 512 0 l 1,11,-1
 512 404 l 1,12,-1
 190 404 l 1,13,-1
 190 518 l 1,14,-1
 510 518 l 1,15,-1
 473 636 l 1,16,-1
 190 636 l 1,17,-1
 190 752 l 1,18,-1
 421 752 l 1,19,-1
 -9 1606 l 1,20,-1
 302 1606 l 1,21,-1
 655 816 l 1,22,-1
 1008 1606 l 1,0,-1
EndSplineSet
EndChar

StartChar: brokenbar
Encoding: 166 166 106
Width: 722
GlyphClass: 2
Flags: W
LayerCount: 2
Fore
SplineSet
239 1662 m 1,0,-1
 505 1662 l 1,1,-1
 505 925 l 1,2,-1
 239 925 l 1,3,-1
 239 1662 l 1,0,-1
239 646 m 1,4,-1
 505 646 l 1,5,-1
 505 -91 l 1,6,-1
 239 -91 l 1,7,-1
 239 646 l 1,4,-1
EndSplineSet
EndChar

StartChar: section
Encoding: 167 167 107
Width: 1171
GlyphClass: 2
Flags: W
LayerCount: 2
Fore
SplineSet
584 640 m 0,0,1
 630 640 630 640 669 646 c 128,-1,2
 708 652 708 652 736 666 c 128,-1,3
 764 680 764 680 780 703.5 c 128,-1,4
 796 727 796 727 796 762 c 0,5,6
 796 829 796 829 745 859 c 128,-1,7
 694 889 694 889 584 889 c 0,8,9
 524 889 524 889 484 880 c 128,-1,10
 444 871 444 871 420 855 c 128,-1,11
 396 839 396 839 386 815.5 c 128,-1,12
 376 792 376 792 376 764 c 0,13,14
 376 701 376 701 425.5 670.5 c 128,-1,15
 475 640 475 640 584 640 c 0,0,1
898 1281 m 1,16,17
 885 1291 885 1291 853 1310 c 128,-1,18
 821 1329 821 1329 777.5 1348.5 c 128,-1,19
 734 1368 734 1368 683.5 1382.5 c 128,-1,20
 633 1397 633 1397 582 1397 c 0,21,22
 516 1397 516 1397 476 1388 c 128,-1,23
 436 1379 436 1379 414.5 1363 c 128,-1,24
 393 1347 393 1347 385.5 1326.5 c 128,-1,25
 378 1306 378 1306 378 1282 c 0,26,27
 378 1270 378 1270 382 1258 c 128,-1,28
 386 1246 386 1246 398 1233 c 128,-1,29
 410 1220 410 1220 431 1207 c 128,-1,30
 452 1194 452 1194 486 1181 c 1,31,32
 526 1164 526 1164 573 1148 c 128,-1,33
 620 1132 620 1132 674 1112 c 0,34,35
 776 1076 776 1076 842.5 1039 c 128,-1,36
 909 1002 909 1002 949 960 c 128,-1,37
 989 918 989 918 1005 869.5 c 128,-1,38
 1021 821 1021 821 1021 761 c 0,39,40
 1021 710 1021 710 1004.5 670 c 128,-1,41
 988 630 988 630 959 600.5 c 128,-1,42
 930 571 930 571 891 551 c 128,-1,43
 852 531 852 531 808 521 c 1,44,45
 870 497 870 497 911.5 464.5 c 128,-1,46
 953 432 953 432 977.5 393.5 c 128,-1,47
 1002 355 1002 355 1012.5 310 c 128,-1,48
 1023 265 1023 265 1023 216 c 0,49,50
 1023 127 1023 127 985 65.5 c 128,-1,51
 947 4 947 4 884.5 -34.5 c 128,-1,52
 822 -73 822 -73 742 -90 c 128,-1,53
 662 -107 662 -107 578 -107 c 0,54,55
 502 -107 502 -107 429.5 -87 c 128,-1,56
 357 -67 357 -67 299 -42 c 128,-1,57
 241 -17 241 -17 203 6 c 128,-1,58
 165 29 165 29 159 34 c 1,59,-1
 243 223 l 1,60,61
 255 211 255 211 289.5 190 c 128,-1,62
 324 169 324 169 369 148.5 c 128,-1,63
 414 128 414 128 463.5 113.5 c 128,-1,64
 513 99 513 99 554 99 c 0,65,66
 671 99 671 99 730 133.5 c 128,-1,67
 789 168 789 168 789 243 c 0,68,69
 789 277 789 277 779 300.5 c 128,-1,70
 769 324 769 324 748.5 341 c 128,-1,71
 728 358 728 358 697 371 c 128,-1,72
 666 384 666 384 625 398 c 2,73,-1
 463 454 l 2,74,75
 380 482 380 482 322 511.5 c 128,-1,76
 264 541 264 541 227 577.5 c 128,-1,77
 190 614 190 614 173.5 662 c 128,-1,78
 157 710 157 710 157 775 c 0,79,80
 157 812 157 812 168 850 c 128,-1,81
 179 888 179 888 204.5 921.5 c 128,-1,82
 230 955 230 955 272 981 c 128,-1,83
 314 1007 314 1007 376 1019 c 1,84,85
 316 1040 316 1040 274.5 1067.5 c 128,-1,86
 233 1095 233 1095 206.5 1129.5 c 128,-1,87
 180 1164 180 1164 168.5 1208 c 128,-1,88
 157 1252 157 1252 157 1306 c 0,89,90
 157 1367 157 1367 185 1421 c 128,-1,91
 213 1475 213 1475 266 1515.5 c 128,-1,92
 319 1556 319 1556 397 1579.5 c 128,-1,93
 475 1603 475 1603 574 1603 c 0,94,95
 619 1603 619 1603 665.5 1594 c 128,-1,96
 712 1585 712 1585 755 1570.5 c 128,-1,97
 798 1556 798 1556 836.5 1539 c 128,-1,98
 875 1522 875 1522 904.5 1506 c 128,-1,99
 934 1490 934 1490 953.5 1477.5 c 128,-1,100
 973 1465 973 1465 978 1460 c 1,101,-1
 898 1281 l 1,16,17
EndSplineSet
EndChar

StartChar: dieresis
Encoding: 168 168 108
Width: 1151
GlyphClass: 2
Flags: W
LayerCount: 2
Fore
SplineSet
109 414 m 256,0,1
 109 448 109 448 121.5 478.5 c 128,-1,2
 134 509 134 509 156 531.5 c 128,-1,3
 178 554 178 554 208 567 c 128,-1,4
 238 580 238 580 273 580 c 256,5,6
 308 580 308 580 338.5 567 c 128,-1,7
 369 554 369 554 391.5 531.5 c 128,-1,8
 414 509 414 509 426.5 478.5 c 128,-1,9
 439 448 439 448 439 414 c 0,10,11
 439 379 439 379 426.5 349 c 128,-1,12
 414 319 414 319 391.5 296.5 c 128,-1,13
 369 274 369 274 338.5 261 c 128,-1,14
 308 248 308 248 273 248 c 0,15,16
 237 248 237 248 207 261 c 128,-1,17
 177 274 177 274 155 296.5 c 128,-1,18
 133 319 133 319 121 349.5 c 128,-1,19
 109 380 109 380 109 414 c 256,0,1
719 414 m 256,20,21
 719 448 719 448 731.5 478.5 c 128,-1,22
 744 509 744 509 766 531.5 c 128,-1,23
 788 554 788 554 818 567 c 128,-1,24
 848 580 848 580 883 580 c 256,25,26
 918 580 918 580 948 567 c 128,-1,27
 978 554 978 554 1000.5 531.5 c 128,-1,28
 1023 509 1023 509 1036 478.5 c 128,-1,29
 1049 448 1049 448 1049 414 c 0,30,31
 1049 379 1049 379 1036 349 c 128,-1,32
 1023 319 1023 319 1000.5 296.5 c 128,-1,33
 978 274 978 274 948 261 c 128,-1,34
 918 248 918 248 883 248 c 0,35,36
 847 248 847 248 816.5 261 c 128,-1,37
 786 274 786 274 764.5 296.5 c 128,-1,38
 743 319 743 319 731 349.5 c 128,-1,39
 719 380 719 380 719 414 c 256,20,21
EndSplineSet
EndChar

StartChar: copyright
Encoding: 169 169 109
Width: 2126
GlyphClass: 2
Flags: W
LayerCount: 2
Fore
SplineSet
1056 103 m 256,0,1
 1216 103 1216 103 1347 158.5 c 128,-1,2
 1478 214 1478 214 1572 310.5 c 128,-1,3
 1666 407 1666 407 1717.5 537 c 128,-1,4
 1769 667 1769 667 1769 815 c 0,5,6
 1769 926 1769 926 1740.5 1022.5 c 128,-1,7
 1712 1119 1712 1119 1662 1198.5 c 128,-1,8
 1612 1278 1612 1278 1544.5 1340 c 128,-1,9
 1477 1402 1477 1402 1399.5 1445 c 128,-1,10
 1322 1488 1322 1488 1237 1510 c 128,-1,11
 1152 1532 1152 1532 1068 1532 c 0,12,13
 983 1532 983 1532 898 1510 c 128,-1,14
 813 1488 813 1488 735 1445 c 128,-1,15
 657 1402 657 1402 590 1340 c 128,-1,16
 523 1278 523 1278 473.5 1198.5 c 128,-1,17
 424 1119 424 1119 395.5 1022.5 c 128,-1,18
 367 926 367 926 367 815 c 0,19,20
 367 667 367 667 414.5 537 c 128,-1,21
 462 407 462 407 551.5 310.5 c 128,-1,22
 641 214 641 214 768.5 158.5 c 128,-1,23
 896 103 896 103 1056 103 c 256,0,1
808 817 m 0,24,25
 808 720 808 720 827 655.5 c 128,-1,26
 846 591 846 591 882.5 552 c 128,-1,27
 919 513 919 513 971.5 497 c 128,-1,28
 1024 481 1024 481 1092 481 c 0,29,30
 1123 481 1123 481 1155 485.5 c 128,-1,31
 1187 490 1187 490 1223 500.5 c 128,-1,32
 1259 511 1259 511 1301 528 c 128,-1,33
 1343 545 1343 545 1393 570 c 1,34,-1
 1393 385 l 1,35,36
 1306 341 1306 341 1236 321 c 128,-1,37
 1166 301 1166 301 1105 301 c 0,38,39
 1005 301 1005 301 928.5 322 c 128,-1,40
 852 343 852 343 795.5 380 c 128,-1,41
 739 417 739 417 701 467 c 128,-1,42
 663 517 663 517 640 575 c 128,-1,43
 617 633 617 633 607 696 c 128,-1,44
 597 759 597 759 597 823 c 0,45,46
 597 931 597 931 626 1024 c 128,-1,47
 655 1117 655 1117 716 1185.5 c 128,-1,48
 777 1254 777 1254 871 1293.5 c 128,-1,49
 965 1333 965 1333 1095 1333 c 0,50,51
 1128 1333 1128 1333 1166.5 1327 c 128,-1,52
 1205 1321 1205 1321 1243.5 1310 c 128,-1,53
 1282 1299 1282 1299 1319 1284 c 128,-1,54
 1356 1269 1356 1269 1388 1252 c 1,55,-1
 1388 1071 l 1,56,57
 1305 1113 1305 1113 1230 1132.5 c 128,-1,58
 1155 1152 1155 1152 1087 1152 c 0,59,60
 1009 1152 1009 1152 956 1129 c 128,-1,61
 903 1106 903 1106 870 1062.5 c 128,-1,62
 837 1019 837 1019 822.5 957 c 128,-1,63
 808 895 808 895 808 817 c 0,24,25
1061 -91 m 0,64,65
 940 -91 940 -91 825.5 -61.5 c 128,-1,66
 711 -32 711 -32 609.5 23 c 128,-1,67
 508 78 508 78 423.5 158 c 128,-1,68
 339 238 339 238 278 339 c 128,-1,69
 217 440 217 440 183 560.5 c 128,-1,70
 149 681 149 681 149 818 c 256,71,72
 149 955 149 955 184.5 1076 c 128,-1,73
 220 1197 220 1197 282.5 1298 c 128,-1,74
 345 1399 345 1399 431.5 1478.5 c 128,-1,75
 518 1558 518 1558 620 1613.5 c 128,-1,76
 722 1669 722 1669 836 1698 c 128,-1,77
 950 1727 950 1727 1068 1727 c 0,78,79
 1184 1727 1184 1727 1297 1697.5 c 128,-1,80
 1410 1668 1410 1668 1512 1613 c 128,-1,81
 1614 1558 1614 1558 1700.5 1478 c 128,-1,82
 1787 1398 1787 1398 1850.5 1297 c 128,-1,83
 1914 1196 1914 1196 1950 1075.5 c 128,-1,84
 1986 955 1986 955 1986 818 c 0,85,86
 1986 682 1986 682 1951.5 562 c 128,-1,87
 1917 442 1917 442 1854.5 341 c 128,-1,88
 1792 240 1792 240 1706 159.5 c 128,-1,89
 1620 79 1620 79 1517 23.5 c 128,-1,90
 1414 -32 1414 -32 1298.5 -61.5 c 128,-1,91
 1183 -91 1183 -91 1061 -91 c 0,64,65
EndSplineSet
EndChar

StartChar: ordfeminine
Encoding: 170 170 110
Width: 1246
GlyphClass: 2
Flags: W
LayerCount: 2
Fore
SplineSet
817 828 m 2,0,1
 816 828 816 828 801 803 c 128,-1,2
 786 778 786 778 752 748 c 128,-1,3
 718 718 718 718 662 693 c 128,-1,4
 606 668 606 668 523 668 c 0,5,6
 449 668 449 668 390.5 687.5 c 128,-1,7
 332 707 332 707 291 744 c 128,-1,8
 250 781 250 781 228 835.5 c 128,-1,9
 206 890 206 890 206 960 c 0,10,11
 206 1032 206 1032 232 1087.5 c 128,-1,12
 258 1143 258 1143 305.5 1181 c 128,-1,13
 353 1219 353 1219 419 1238.5 c 128,-1,14
 485 1258 485 1258 565 1258 c 0,15,16
 608 1258 608 1258 649.5 1253 c 128,-1,17
 691 1248 691 1248 723.5 1241 c 128,-1,18
 756 1234 756 1234 776.5 1227.5 c 128,-1,19
 797 1221 797 1221 799 1218 c 1,20,-1
 799 1276 l 2,21,22
 799 1334 799 1334 792.5 1378.5 c 128,-1,23
 786 1423 786 1423 765.5 1453 c 128,-1,24
 745 1483 745 1483 707.5 1498 c 128,-1,25
 670 1513 670 1513 607 1513 c 0,26,27
 548 1513 548 1513 495.5 1502 c 128,-1,28
 443 1491 443 1491 403.5 1478 c 128,-1,29
 364 1465 364 1465 340.5 1454 c 128,-1,30
 317 1443 317 1443 316 1443 c 2,31,-1
 263 1552 l 2,32,33
 264 1552 264 1552 290 1565.5 c 128,-1,34
 316 1579 316 1579 361 1595 c 128,-1,35
 406 1611 406 1611 467 1624.5 c 128,-1,36
 528 1638 528 1638 599 1638 c 0,37,38
 701 1638 701 1638 770 1616 c 128,-1,39
 839 1594 839 1594 881.5 1545.5 c 128,-1,40
 924 1497 924 1497 942 1420.5 c 128,-1,41
 960 1344 960 1344 960 1235 c 2,42,-1
 960 686 l 1,43,-1
 844 686 l 1,44,-1
 817 828 l 2,0,1
799 1141 m 1,45,46
 748 1149 748 1149 704 1153.5 c 128,-1,47
 660 1158 660 1158 623 1158 c 0,48,49
 367 1158 367 1158 367 971 c 0,50,51
 367 918 367 918 377 882 c 128,-1,52
 387 846 387 846 409.5 823.5 c 128,-1,53
 432 801 432 801 469 791 c 128,-1,54
 506 781 506 781 561 781 c 256,55,56
 616 781 616 781 660 799.5 c 128,-1,57
 704 818 704 818 735 840.5 c 128,-1,58
 766 863 766 863 782.5 882 c 128,-1,59
 799 901 799 901 799 903 c 2,60,-1
 799 1141 l 1,45,46
270 575 m 1,61,-1
 954 575 l 1,62,-1
 954 446 l 1,63,-1
 270 446 l 1,64,-1
 270 575 l 1,61,-1
EndSplineSet
EndChar

StartChar: guillemotleft
Encoding: 171 171 111
Width: 1754
GlyphClass: 2
Flags: W
LayerCount: 2
Fore
SplineSet
1135 588 m 1,0,-1
 1602 299 l 1,1,-1
 1602 8 l 1,2,-1
 861 473 l 1,3,-1
 861 697 l 1,4,-1
 1602 1161 l 1,5,-1
 1602 870 l 1,6,-1
 1135 588 l 1,0,-1
396 588 m 1,7,-1
 862 299 l 1,8,-1
 862 8 l 1,9,-1
 121 473 l 1,10,-1
 121 697 l 1,11,-1
 862 1161 l 1,12,-1
 862 870 l 1,13,-1
 396 588 l 1,7,-1
EndSplineSet
EndChar

StartChar: logicalnot
Encoding: 172 172 112
Width: 1388
GlyphClass: 2
Flags: W
LayerCount: 2
Fore
SplineSet
77 768 m 1,0,-1
 77 990 l 1,1,-1
 1234 990 l 1,2,-1
 1234 277 l 1,3,-1
 1045 277 l 1,4,-1
 1045 768 l 1,5,-1
 77 768 l 1,0,-1
EndSplineSet
EndChar

StartChar: uni00AD
Encoding: 173 173 113
Width: 1038
GlyphClass: 2
Flags: W
LayerCount: 2
Fore
SplineSet
158 558 m 1,0,-1
 158 772 l 1,1,-1
 836 772 l 1,2,-1
 836 558 l 1,3,-1
 158 558 l 1,0,-1
EndSplineSet
EndChar

StartChar: registered
Encoding: 174 174 114
Width: 1378
GlyphClass: 2
Flags: W
LayerCount: 2
Fore
SplineSet
50 1197 m 0,0,1
 50 1323 50 1323 98.5 1436.5 c 128,-1,2
 147 1550 147 1550 234 1635.5 c 128,-1,3
 321 1721 321 1721 440.5 1771.5 c 128,-1,4
 560 1822 560 1822 702 1822 c 0,5,6
 837 1822 837 1822 956 1774 c 128,-1,7
 1075 1726 1075 1726 1163.5 1642 c 128,-1,8
 1252 1558 1252 1558 1303.5 1444 c 128,-1,9
 1355 1330 1355 1330 1355 1197 c 0,10,11
 1355 1069 1355 1069 1305.5 955.5 c 128,-1,12
 1256 842 1256 842 1168.5 757 c 128,-1,13
 1081 672 1081 672 961.5 622.5 c 128,-1,14
 842 573 842 573 702 573 c 0,15,16
 610 573 610 573 526 595 c 128,-1,17
 442 617 442 617 369.5 657 c 128,-1,18
 297 697 297 697 238 753.5 c 128,-1,19
 179 810 179 810 137.5 879.5 c 128,-1,20
 96 949 96 949 73 1029 c 128,-1,21
 50 1109 50 1109 50 1197 c 0,0,1
701 696 m 256,22,23
 813 696 813 696 906 735 c 128,-1,24
 999 774 999 774 1066.5 841.5 c 128,-1,25
 1134 909 1134 909 1171.5 1000 c 128,-1,26
 1209 1091 1209 1091 1209 1195 c 0,27,28
 1209 1301 1209 1301 1171 1393 c 128,-1,29
 1133 1485 1133 1485 1065.5 1552 c 128,-1,30
 998 1619 998 1619 905 1657.5 c 128,-1,31
 812 1696 812 1696 701 1696 c 256,32,33
 590 1696 590 1696 497 1657.5 c 128,-1,34
 404 1619 404 1619 337 1551.5 c 128,-1,35
 270 1484 270 1484 232.5 1392 c 128,-1,36
 195 1300 195 1300 195 1194 c 256,37,38
 195 1088 195 1088 232 997 c 128,-1,39
 269 906 269 906 336 839 c 128,-1,40
 403 772 403 772 496 734 c 128,-1,41
 589 696 589 696 701 696 c 256,22,23
737 1285 m 1,42,43
 782 1290 782 1290 802.5 1307 c 128,-1,44
 823 1324 823 1324 821 1361 c 1,45,46
 818 1379 818 1379 807.5 1391.5 c 128,-1,47
 797 1404 797 1404 775 1411.5 c 128,-1,48
 753 1419 753 1419 717 1422.5 c 128,-1,49
 681 1426 681 1426 627 1426 c 1,50,-1
 627 1247 l 1,51,-1
 691 1247 l 2,52,53
 714 1247 714 1247 725.5 1254.5 c 128,-1,54
 737 1262 737 1262 737 1285 c 1,42,43
841 853 m 1,55,-1
 662 1145 l 1,56,-1
 624 1145 l 1,57,-1
 624 873 l 1,58,-1
 500 873 l 1,59,-1
 500 1527 l 1,60,-1
 639 1527 l 2,61,62
 703 1527 703 1527 759.5 1519 c 128,-1,63
 816 1511 816 1511 858 1491 c 128,-1,64
 900 1471 900 1471 924.5 1436 c 128,-1,65
 949 1401 949 1401 949 1347 c 0,66,67
 949 1309 949 1309 940.5 1279.5 c 128,-1,68
 932 1250 932 1250 912.5 1228 c 128,-1,69
 893 1206 893 1206 860.5 1191.5 c 128,-1,70
 828 1177 828 1177 780 1168 c 1,71,-1
 958 912 l 1,72,-1
 841 853 l 1,55,-1
EndSplineSet
EndChar

StartChar: glyph115
Encoding: 175 175 115
Width: 1003
GlyphClass: 2
Flags: W
LayerCount: 2
Fore
SplineSet
98 215 m 1,0,-1
 780 215 l 1,1,-1
 780 98 l 1,2,-1
 98 98 l 1,3,-1
 98 215 l 1,0,-1
EndSplineSet
EndChar

StartChar: degree
Encoding: 176 176 116
Width: 819
GlyphClass: 2
Flags: W
LayerCount: 2
Fore
SplineSet
199 990 m 0,0,1
 199 946 199 946 215 909 c 128,-1,2
 231 872 231 872 259 844 c 128,-1,3
 287 816 287 816 325 800.5 c 128,-1,4
 363 785 363 785 407 785 c 256,5,6
 451 785 451 785 488.5 800.5 c 128,-1,7
 526 816 526 816 554 843.5 c 128,-1,8
 582 871 582 871 597.5 908.5 c 128,-1,9
 613 946 613 946 613 990 c 256,10,11
 613 1034 613 1034 597 1071.5 c 128,-1,12
 581 1109 581 1109 553 1136.5 c 128,-1,13
 525 1164 525 1164 487.5 1179.5 c 128,-1,14
 450 1195 450 1195 407 1195 c 0,15,16
 363 1195 363 1195 325 1179.5 c 128,-1,17
 287 1164 287 1164 259 1136 c 128,-1,18
 231 1108 231 1108 215 1070.5 c 128,-1,19
 199 1033 199 1033 199 990 c 0,0,1
407 1259 m 0,20,21
 465 1259 465 1259 516 1238.5 c 128,-1,22
 567 1218 567 1218 605.5 1182 c 128,-1,23
 644 1146 644 1146 666.5 1096 c 128,-1,24
 689 1046 689 1046 689 987 c 256,25,26
 689 928 689 928 665.5 878.5 c 128,-1,27
 642 829 642 829 602 794 c 128,-1,28
 562 759 562 759 510 739.5 c 128,-1,29
 458 720 458 720 401 720 c 256,30,31
 344 720 344 720 293.5 741.5 c 128,-1,32
 243 763 243 763 205 800 c 128,-1,33
 167 837 167 837 145 886.5 c 128,-1,34
 123 936 123 936 123 993 c 256,35,36
 123 1050 123 1050 146.5 1099 c 128,-1,37
 170 1148 170 1148 209 1183.5 c 128,-1,38
 248 1219 248 1219 299.5 1239 c 128,-1,39
 351 1259 351 1259 407 1259 c 0,20,21
EndSplineSet
EndChar

StartChar: plusminus
Encoding: 177 177 117
Width: 1158
GlyphClass: 2
Flags: W
LayerCount: 2
Fore
SplineSet
222 -22 m 1,0,-1
 222 175 l 1,1,-1
 993 175 l 1,2,-1
 993 -22 l 1,3,-1
 222 -22 l 1,0,-1
724 707 m 1,4,-1
 724 351 l 1,5,-1
 490 351 l 1,6,-1
 490 707 l 1,7,-1
 193 707 l 1,8,-1
 193 926 l 1,9,-1
 490 926 l 1,10,-1
 490 1280 l 1,11,-1
 724 1280 l 1,12,-1
 724 926 l 1,13,-1
 1022 926 l 1,14,-1
 1022 707 l 1,15,-1
 724 707 l 1,4,-1
EndSplineSet
EndChar

StartChar: uni00B2
Encoding: 178 178 118
Width: 1126
GlyphClass: 2
Flags: W
LayerCount: 2
Fore
SplineSet
253 805 m 1,0,-1
 524 1045 l 2,1,2
 592 1105 592 1105 635.5 1147.5 c 128,-1,3
 679 1190 679 1190 703.5 1224.5 c 128,-1,4
 728 1259 728 1259 737.5 1289 c 128,-1,5
 747 1319 747 1319 747 1354 c 0,6,7
 747 1424 747 1424 699 1462 c 128,-1,8
 651 1500 651 1500 566 1500 c 0,9,10
 518 1500 518 1500 466.5 1492 c 128,-1,11
 415 1484 415 1484 371 1474 c 0,12,13
 320 1463 320 1463 270 1448 c 1,14,-1
 270 1586 l 1,15,16
 306 1601 306 1601 354 1612 c 0,17,18
 395 1622 395 1622 451 1630 c 128,-1,19
 507 1638 507 1638 576 1638 c 0,20,21
 676 1638 676 1638 742 1610 c 128,-1,22
 808 1582 808 1582 847.5 1540 c 128,-1,23
 887 1498 887 1498 903 1448.5 c 128,-1,24
 919 1399 919 1399 919 1357 c 0,25,26
 919 1309 919 1309 907 1266.5 c 128,-1,27
 895 1224 895 1224 867 1180.5 c 128,-1,28
 839 1137 839 1137 792.5 1089 c 128,-1,29
 746 1041 746 1041 676 982 c 2,30,-1
 485 820 l 1,31,-1
 891 820 l 1,32,-1
 891 668 l 1,33,-1
 253 668 l 1,34,-1
 253 805 l 1,0,-1
EndSplineSet
EndChar

StartChar: uni00B3
Encoding: 179 179 119
Width: 1208
GlyphClass: 2
Flags: W
LayerCount: 2
Fore
SplineSet
351 745 m 1,0,1
 376 733 376 733 406.5 720 c 128,-1,2
 437 707 437 707 472.5 696.5 c 128,-1,3
 508 686 508 686 548 679 c 128,-1,4
 588 672 588 672 631 672 c 0,5,6
 679 672 679 672 719.5 685 c 128,-1,7
 760 698 760 698 789.5 721.5 c 128,-1,8
 819 745 819 745 835 778.5 c 128,-1,9
 851 812 851 812 851 853 c 0,10,11
 851 947 851 947 788 1002 c 128,-1,12
 725 1057 725 1057 589 1072 c 1,13,-1
 589 1207 l 1,14,15
 635 1207 635 1207 679 1217.5 c 128,-1,16
 723 1228 723 1228 757 1249.5 c 128,-1,17
 791 1271 791 1271 811.5 1304.5 c 128,-1,18
 832 1338 832 1338 832 1383 c 0,19,20
 832 1458 832 1458 777.5 1499.5 c 128,-1,21
 723 1541 723 1541 608 1541 c 0,22,23
 579 1541 579 1541 548 1536.5 c 128,-1,24
 517 1532 517 1532 486 1524 c 128,-1,25
 455 1516 455 1516 426.5 1505.5 c 128,-1,26
 398 1495 398 1495 374 1484 c 1,27,-1
 327 1611 l 1,28,29
 329 1612 329 1612 352.5 1622.5 c 128,-1,30
 376 1633 376 1633 415 1645 c 128,-1,31
 454 1657 454 1657 505 1667 c 128,-1,32
 556 1677 556 1677 613 1677 c 0,33,34
 650 1677 650 1677 692 1671.5 c 128,-1,35
 734 1666 734 1666 775.5 1653.5 c 128,-1,36
 817 1641 817 1641 855 1620 c 128,-1,37
 893 1599 893 1599 922 1567.5 c 128,-1,38
 951 1536 951 1536 968.5 1493 c 128,-1,39
 986 1450 986 1450 986 1394 c 0,40,41
 986 1324 986 1324 958.5 1276 c 128,-1,42
 931 1228 931 1228 892 1198 c 128,-1,43
 853 1168 853 1168 811 1155 c 128,-1,44
 769 1142 769 1142 741 1142 c 1,45,46
 766 1137 766 1137 796.5 1127.5 c 128,-1,47
 827 1118 827 1118 857.5 1102.5 c 128,-1,48
 888 1087 888 1087 917 1063.5 c 128,-1,49
 946 1040 946 1040 968 1007.5 c 128,-1,50
 990 975 990 975 1003.5 932.5 c 128,-1,51
 1017 890 1017 890 1017 835 c 0,52,53
 1017 758 1017 758 982 702 c 128,-1,54
 947 646 947 646 891 610 c 128,-1,55
 835 574 835 574 765.5 557 c 128,-1,56
 696 540 696 540 628 540 c 0,57,58
 537 540 537 540 455.5 559 c 128,-1,59
 374 578 374 578 300 618 c 1,60,-1
 351 745 l 1,0,1
EndSplineSet
EndChar

StartChar: acute
Encoding: 180 180 120
Width: 1117
GlyphClass: 2
Flags: W
LayerCount: 2
Fore
SplineSet
449 269 m 1,0,-1
 638 892 l 1,1,-1
 924 766 l 1,2,-1
 569 213 l 1,3,-1
 449 269 l 1,0,-1
EndSplineSet
EndChar

StartChar: uni00B5
Encoding: 181 181 121
Width: 1320
GlyphClass: 2
Flags: W
LayerCount: 2
Fore
SplineSet
185 1169 m 1,0,-1
 359 1169 l 1,1,-1
 359 442 l 2,2,3
 359 123 359 123 611 123 c 0,4,5
 681 123 681 123 740 142 c 128,-1,6
 799 161 799 161 844.5 186.5 c 128,-1,7
 890 212 890 212 919 237 c 128,-1,8
 948 262 948 262 958 274 c 1,9,-1
 958 1169 l 1,10,-1
 1166 1169 l 1,11,-1
 1166 16 l 1,12,-1
 1020 16 l 1,13,-1
 996 170 l 1,14,15
 825 -20 825 -20 599 -20 c 0,16,17
 553 -20 553 -20 515 -6.5 c 128,-1,18
 477 7 477 7 447 27.5 c 128,-1,19
 417 48 417 48 395 71 c 128,-1,20
 373 94 373 94 359 113 c 1,21,-1
 359 -291 l 1,22,-1
 185 -291 l 1,23,-1
 185 1169 l 1,0,-1
EndSplineSet
EndChar

StartChar: paragraph
Encoding: 182 182 122
Width: 1417
GlyphClass: 2
Flags: W
LayerCount: 2
Fore
SplineSet
1247 0 m 1,0,-1
 1015 0 l 1,1,-1
 1015 1457 l 1,2,-1
 877 1457 l 1,3,-1
 877 0 l 1,4,-1
 641 0 l 1,5,-1
 641 801 l 1,6,7
 570 801 570 801 502.5 809 c 128,-1,8
 435 817 435 817 375 836.5 c 128,-1,9
 315 856 315 856 264.5 887 c 128,-1,10
 214 918 214 918 177.5 964 c 128,-1,11
 141 1010 141 1010 120.5 1071.5 c 128,-1,12
 100 1133 100 1133 100 1214 c 0,13,14
 100 1299 100 1299 124 1361.5 c 128,-1,15
 148 1424 148 1424 190 1467.5 c 128,-1,16
 232 1511 232 1511 289 1538 c 128,-1,17
 346 1565 346 1565 411 1580 c 128,-1,18
 476 1595 476 1595 546.5 1600.5 c 128,-1,19
 617 1606 617 1606 686 1606 c 2,20,-1
 1247 1606 l 1,21,-1
 1247 0 l 1,0,-1
EndSplineSet
EndChar

StartChar: periodcentered
Encoding: 183 183 123
Width: 591
GlyphClass: 2
Flags: W
LayerCount: 2
Fore
SplineSet
115 696 m 256,0,1
 115 732 115 732 128.5 764 c 128,-1,2
 142 796 142 796 165.5 820 c 128,-1,3
 189 844 189 844 220.5 858 c 128,-1,4
 252 872 252 872 289 872 c 256,5,6
 326 872 326 872 358.5 858 c 128,-1,7
 391 844 391 844 415 820 c 128,-1,8
 439 796 439 796 452.5 764 c 128,-1,9
 466 732 466 732 466 696 c 256,10,11
 466 660 466 660 452.5 628 c 128,-1,12
 439 596 439 596 415 571.5 c 128,-1,13
 391 547 391 547 358.5 533 c 128,-1,14
 326 519 326 519 289 519 c 256,15,16
 252 519 252 519 220 533 c 128,-1,17
 188 547 188 547 165 571 c 128,-1,18
 142 595 142 595 128.5 627.5 c 128,-1,19
 115 660 115 660 115 696 c 256,0,1
EndSplineSet
EndChar

StartChar: cedilla
Encoding: 184 184 124
Width: 637
GlyphClass: 2
Flags: W
LayerCount: 2
Fore
SplineSet
102 -462 m 1,0,1
 102 -462 102 -462 122 -468 c 1,2,3
 141 -475 141 -475 168.5 -483.5 c 128,-1,4
 196 -492 196 -492 227.5 -498.5 c 128,-1,5
 259 -505 259 -505 283 -505 c 0,6,7
 312 -505 312 -505 336.5 -500.5 c 128,-1,8
 361 -496 361 -496 378.5 -483.5 c 128,-1,9
 396 -471 396 -471 406 -447.5 c 128,-1,10
 416 -424 416 -424 416 -386 c 0,11,12
 416 -308 416 -308 352 -274.5 c 128,-1,13
 288 -241 288 -241 154 -241 c 1,14,-1
 166 45 l 1,15,-1
 288 45 l 1,16,-1
 281 -136 l 1,17,18
 332 -136 332 -136 386.5 -149 c 128,-1,19
 441 -162 441 -162 485.5 -191 c 128,-1,20
 530 -220 530 -220 559 -268 c 128,-1,21
 588 -316 588 -316 588 -385 c 0,22,23
 588 -506 588 -506 516.5 -574 c 128,-1,24
 445 -642 445 -642 309 -642 c 0,25,26
 268 -642 268 -642 233.5 -635.5 c 128,-1,27
 199 -629 199 -629 172.5 -620.5 c 128,-1,28
 146 -612 146 -612 128 -604 c 128,-1,29
 110 -596 110 -596 102 -593 c 1,30,-1
 102 -462 l 1,0,1
EndSplineSet
EndChar

StartChar: uni00B9
Encoding: 185 185 125
Width: 740
GlyphClass: 2
Flags: W
LayerCount: 2
Fore
SplineSet
327 1304 m 1,0,-1
 156 1232 l 1,1,-1
 119 1345 l 1,2,-1
 356 1440 l 1,3,-1
 496 1414 l 1,4,-1
 496 478 l 1,5,-1
 327 478 l 1,6,-1
 327 1304 l 1,0,-1
EndSplineSet
EndChar

StartChar: ordmasculine
Encoding: 186 186 126
Width: 1265
GlyphClass: 2
Flags: W
LayerCount: 2
Fore
SplineSet
638 670 m 0,0,1
 530 670 530 670 450.5 707.5 c 128,-1,2
 371 745 371 745 318.5 810 c 128,-1,3
 266 875 266 875 240 963 c 128,-1,4
 214 1051 214 1051 214 1152 c 0,5,6
 214 1251 214 1251 239.5 1339 c 128,-1,7
 265 1427 265 1427 317.5 1493.5 c 128,-1,8
 370 1560 370 1560 449.5 1599 c 128,-1,9
 529 1638 529 1638 638 1638 c 256,10,11
 747 1638 747 1638 827 1599 c 128,-1,12
 907 1560 907 1560 959.5 1493.5 c 128,-1,13
 1012 1427 1012 1427 1037.5 1339 c 128,-1,14
 1063 1251 1063 1251 1063 1152 c 0,15,16
 1063 1052 1063 1052 1037.5 964.5 c 128,-1,17
 1012 877 1012 877 959.5 811.5 c 128,-1,18
 907 746 907 746 827 708 c 128,-1,19
 747 670 747 670 638 670 c 0,0,1
638 797 m 256,20,21
 710 797 710 797 760.5 823.5 c 128,-1,22
 811 850 811 850 843 897.5 c 128,-1,23
 875 945 875 945 890 1010.5 c 128,-1,24
 905 1076 905 1076 905 1154 c 0,25,26
 905 1230 905 1230 890 1295.5 c 128,-1,27
 875 1361 875 1361 843 1409 c 128,-1,28
 811 1457 811 1457 760.5 1484.5 c 128,-1,29
 710 1512 710 1512 638 1512 c 256,30,31
 566 1512 566 1512 515.5 1485 c 128,-1,32
 465 1458 465 1458 433 1410 c 128,-1,33
 401 1362 401 1362 386 1296.5 c 128,-1,34
 371 1231 371 1231 371 1154 c 256,35,36
 371 1077 371 1077 386 1011.5 c 128,-1,37
 401 946 401 946 433 898.5 c 128,-1,38
 465 851 465 851 515.5 824 c 128,-1,39
 566 797 566 797 638 797 c 256,20,21
300 575 m 1,40,-1
 984 575 l 1,41,-1
 984 446 l 1,42,-1
 300 446 l 1,43,-1
 300 575 l 1,40,-1
EndSplineSet
EndChar

StartChar: guillemotright
Encoding: 187 187 127
Width: 1780
GlyphClass: 2
Flags: W
LayerCount: 2
Fore
SplineSet
172 1161 m 1,0,-1
 913 697 l 1,1,-1
 913 473 l 1,2,-1
 172 8 l 1,3,-1
 172 299 l 1,4,-1
 648 588 l 1,5,-1
 172 870 l 1,6,-1
 172 1161 l 1,0,-1
911 1161 m 1,7,-1
 1653 697 l 1,8,-1
 1653 473 l 1,9,-1
 911 8 l 1,10,-1
 911 299 l 1,11,-1
 1388 588 l 1,12,-1
 911 870 l 1,13,-1
 911 1161 l 1,7,-1
EndSplineSet
EndChar

StartChar: onequarter
Encoding: 188 188 128
Width: 1947
GlyphClass: 2
Flags: W
LayerCount: 2
Fore
SplineSet
1478 244 m 1,0,-1
 1478 648 l 1,1,-1
 1210 244 l 1,2,-1
 1478 244 l 1,0,-1
1683 965 m 1,3,-1
 1683 245 l 1,4,-1
 1829 245 l 1,5,-1
 1829 73 l 1,6,-1
 1683 73 l 1,7,-1
 1683 -168 l 1,8,-1
 1474 -177 l 1,9,-1
 1474 73 l 1,10,-1
 987 73 l 1,11,-1
 957 217 l 1,12,-1
 1504 1011 l 1,13,-1
 1683 965 l 1,3,-1
1222 1498 m 1,14,-1
 1410 1410 l 1,15,-1
 553 -115 l 1,16,-1
 369 -30 l 1,17,-1
 1222 1498 l 1,14,-1
298 1261 m 1,18,-1
 152 1198 l 1,19,-1
 91 1353 l 1,20,-1
 362 1460 l 1,21,-1
 525 1425 l 1,22,-1
 525 481 l 1,23,-1
 298 481 l 1,24,-1
 298 1261 l 1,18,-1
EndSplineSet
EndChar

StartChar: onehalf
Encoding: 189 189 129
Width: 2119
GlyphClass: 2
Flags: W
LayerCount: 2
Fore
SplineSet
1747 654 m 0,0,1
 1747 717 1747 717 1708 749 c 128,-1,2
 1669 781 1669 781 1594 781 c 0,3,4
 1565 781 1565 781 1528 774 c 128,-1,5
 1491 767 1491 767 1452 756.5 c 128,-1,6
 1413 746 1413 746 1376 733.5 c 128,-1,7
 1339 721 1339 721 1312 709 c 1,8,-1
 1267 884 l 1,9,10
 1304 899 1304 899 1343 913.5 c 128,-1,11
 1382 928 1382 928 1425 940 c 128,-1,12
 1468 952 1468 952 1514.5 959.5 c 128,-1,13
 1561 967 1561 967 1613 967 c 0,14,15
 1696 967 1696 967 1763.5 946.5 c 128,-1,16
 1831 926 1831 926 1879 888 c 128,-1,17
 1927 850 1927 850 1953.5 797 c 128,-1,18
 1980 744 1980 744 1980 678 c 0,19,20
 1980 629 1980 629 1968.5 586.5 c 128,-1,21
 1957 544 1957 544 1931 501.5 c 128,-1,22
 1905 459 1905 459 1862 413 c 128,-1,23
 1819 367 1819 367 1755 312 c 2,24,-1
 1607 183 l 1,25,-1
 1954 183 l 1,26,-1
 1954 -9 l 1,27,-1
 1274 -9 l 1,28,-1
 1274 153 l 1,29,30
 1343 213 1343 213 1412 272.5 c 128,-1,31
 1481 332 1481 332 1550 392 c 0,32,33
 1590 427 1590 427 1625.5 458.5 c 128,-1,34
 1661 490 1661 490 1688 521 c 128,-1,35
 1715 552 1715 552 1731 584.5 c 128,-1,36
 1747 617 1747 617 1747 654 c 0,0,1
320 1261 m 1,37,-1
 175 1198 l 1,38,-1
 113 1353 l 1,39,-1
 385 1460 l 1,40,-1
 547 1425 l 1,41,-1
 547 481 l 1,42,-1
 320 481 l 1,43,-1
 320 1261 l 1,37,-1
1234 1498 m 1,44,-1
 1422 1410 l 1,45,-1
 565 -115 l 1,46,-1
 381 -30 l 1,47,-1
 1234 1498 l 1,44,-1
EndSplineSet
EndChar

StartChar: threequarters
Encoding: 190 190 130
Width: 2178
GlyphClass: 2
Flags: W
LayerCount: 2
Fore
SplineSet
1714 244 m 1,0,-1
 1714 654 l 1,1,-1
 1428 244 l 1,2,-1
 1714 244 l 1,0,-1
1907 965 m 1,3,-1
 1907 244 l 1,4,-1
 2053 244 l 1,5,-1
 2053 73 l 1,6,-1
 1907 73 l 1,7,-1
 1907 -168 l 1,8,-1
 1710 -177 l 1,9,-1
 1710 73 l 1,10,-1
 1210 73 l 1,11,-1
 1181 217 l 1,12,-1
 1728 1011 l 1,13,-1
 1907 965 l 1,3,-1
1441 1498 m 1,14,-1
 1633 1410 l 1,15,-1
 777 -115 l 1,16,-1
 593 -30 l 1,17,-1
 1441 1498 l 1,14,-1
619 1303 m 1,18,19
 619 1361 619 1361 575 1391 c 128,-1,20
 531 1421 531 1421 447 1421 c 0,21,22
 423 1421 423 1421 393.5 1416.5 c 128,-1,23
 364 1412 364 1412 333.5 1404 c 128,-1,24
 303 1396 303 1396 272 1385.5 c 128,-1,25
 241 1375 241 1375 213 1363 c 1,26,-1
 138 1528 l 1,27,28
 151 1536 151 1536 179.5 1549 c 128,-1,29
 208 1562 208 1562 247.5 1574 c 128,-1,30
 287 1586 287 1586 335.5 1595 c 128,-1,31
 384 1604 384 1604 437 1604 c 0,32,33
 513 1604 513 1604 585 1589.5 c 128,-1,34
 657 1575 657 1575 712 1540.5 c 128,-1,35
 767 1506 767 1506 800.5 1448 c 128,-1,36
 834 1390 834 1390 834 1304 c 0,37,38
 834 1253 834 1253 816 1212 c 128,-1,39
 798 1171 798 1171 769.5 1140.5 c 128,-1,40
 741 1110 741 1110 705.5 1091.5 c 128,-1,41
 670 1073 670 1073 636 1067 c 1,42,43
 676 1058 676 1058 716.5 1035.5 c 128,-1,44
 757 1013 757 1013 790 978.5 c 128,-1,45
 823 944 823 944 843.5 897 c 128,-1,46
 864 850 864 850 864 792 c 0,47,48
 864 704 864 704 829 642.5 c 128,-1,49
 794 581 794 581 735 542.5 c 128,-1,50
 676 504 676 504 598.5 486.5 c 128,-1,51
 521 469 521 469 437 469 c 0,52,53
 404 469 404 469 365 473 c 128,-1,54
 326 477 326 477 285.5 485.5 c 128,-1,55
 245 494 245 494 206.5 506 c 128,-1,56
 168 518 168 518 136 533 c 1,57,-1
 198 709 l 1,58,59
 209 703 209 703 233.5 693 c 128,-1,60
 258 683 258 683 291.5 673.5 c 128,-1,61
 325 664 325 664 365.5 656.5 c 128,-1,62
 406 649 406 649 449 649 c 0,63,64
 538 649 538 649 588 685.5 c 128,-1,65
 638 722 638 722 638 797 c 0,66,67
 638 838 638 838 619.5 870.5 c 128,-1,68
 601 903 601 903 568 926 c 128,-1,69
 535 949 535 949 488.5 962 c 128,-1,70
 442 975 442 975 386 978 c 1,71,-1
 386 1154 l 1,72,73
 431 1154 431 1154 472.5 1162 c 128,-1,74
 514 1170 514 1170 546.5 1188 c 128,-1,75
 579 1206 579 1206 598.5 1234.5 c 128,-1,76
 618 1263 618 1263 619 1303 c 1,18,19
EndSplineSet
EndChar

StartChar: questiondown
Encoding: 191 191 131
Width: 1209
GlyphClass: 2
Flags: W
LayerCount: 2
Fore
SplineSet
913 1363 m 1,0,1
 903 1338 903 1338 884 1316 c 128,-1,2
 865 1294 865 1294 839.5 1278 c 128,-1,3
 814 1262 814 1262 783 1252.5 c 128,-1,4
 752 1243 752 1243 716 1243 c 1,5,6
 665 1266 665 1266 632 1321 c 128,-1,7
 599 1376 599 1376 599 1451 c 1,8,9
 609 1476 609 1476 628 1498 c 128,-1,10
 647 1520 647 1520 672.5 1536 c 128,-1,11
 698 1552 698 1552 729.5 1561.5 c 128,-1,12
 761 1571 761 1571 796 1571 c 1,13,14
 821 1560 821 1560 842.5 1539 c 128,-1,15
 864 1518 864 1518 880 1491 c 128,-1,16
 896 1464 896 1464 904.5 1431 c 128,-1,17
 913 1398 913 1398 913 1363 c 1,0,1
407 350 m 0,18,19
 407 294 407 294 427 258.5 c 128,-1,20
 447 223 447 223 483 203 c 128,-1,21
 519 183 519 183 569 175.5 c 128,-1,22
 619 168 619 168 679 168 c 256,23,24
 739 168 739 168 800.5 180 c 128,-1,25
 862 192 862 192 912.5 206.5 c 128,-1,26
 963 221 963 221 994.5 233.5 c 128,-1,27
 1026 246 1026 246 1026 247 c 2,28,-1
 1100 33 l 1,29,30
 1070 18 1070 18 1025.5 0.5 c 128,-1,31
 981 -17 981 -17 924.5 -31.5 c 128,-1,32
 868 -46 868 -46 801.5 -55.5 c 128,-1,33
 735 -65 735 -65 660 -65 c 0,34,35
 548 -65 548 -65 450 -43 c 128,-1,36
 352 -21 352 -21 279 26.5 c 128,-1,37
 206 74 206 74 164 149 c 128,-1,38
 122 224 122 224 122 329 c 0,39,40
 122 399 122 399 148 472 c 128,-1,41
 174 545 174 545 234 612.5 c 128,-1,42
 294 680 294 680 391 739 c 128,-1,43
 488 798 488 798 631 841 c 1,44,-1
 631 1150 l 1,45,-1
 901 1150 l 1,46,-1
 901 705 l 1,47,48
 809 673 809 673 720 640.5 c 128,-1,49
 631 608 631 608 561.5 567 c 128,-1,50
 492 526 492 526 449.5 473.5 c 128,-1,51
 407 421 407 421 407 350 c 0,18,19
EndSplineSet
EndChar

StartChar: AE
Encoding: 198 198 138
Width: 1989
GlyphClass: 2
Flags: W
LayerCount: 2
Fore
SplineSet
932 1413 m 1,0,-1
 554 519 l 1,1,-1
 932 519 l 1,2,-1
 932 1413 l 1,0,-1
1893 1408 m 1,3,-1
 1220 1408 l 1,4,-1
 1220 937 l 1,5,-1
 1821 937 l 1,6,-1
 1821 764 l 1,7,-1
 1221 764 l 1,8,-1
 1221 199 l 1,9,-1
 1911 199 l 1,10,-1
 1911 0 l 1,11,-1
 933 0 l 1,12,-1
 933 364 l 1,13,-1
 501 364 l 1,14,-1
 349 0 l 1,15,-1
 43 0 l 1,16,-1
 756 1607 l 1,17,-1
 1893 1607 l 1,18,-1
 1893 1408 l 1,3,-1
EndSplineSet
EndChar

StartChar: Eth
Encoding: 208 208 148
Width: 1559
GlyphClass: 2
Flags: W
LayerCount: 2
Fore
SplineSet
1145 800 m 0,0,1
 1145 924 1145 924 1130 1029.5 c 128,-1,2
 1115 1135 1115 1135 1072.5 1215 c 128,-1,3
 1030 1295 1030 1295 953.5 1345 c 128,-1,4
 877 1395 877 1395 755 1407 c 0,5,6
 723 1410 723 1410 689.5 1412 c 128,-1,7
 656 1414 656 1414 619 1414 c 2,8,-1
 466 1414 l 1,9,-1
 466 924 l 1,10,-1
 723 924 l 1,11,-1
 723 729 l 1,12,-1
 466 729 l 1,13,-1
 466 199 l 1,14,-1
 619 199 l 2,15,16
 691 199 691 199 754 205 c 0,17,18
 877 216 877 216 953.5 265 c 128,-1,19
 1030 314 1030 314 1072.5 392.5 c 128,-1,20
 1115 471 1115 471 1130 575 c 128,-1,21
 1145 679 1145 679 1145 800 c 0,0,1
1454 798 m 0,22,23
 1454 617 1454 617 1409.5 469.5 c 128,-1,24
 1365 322 1365 322 1272 218 c 128,-1,25
 1179 114 1179 114 1035 57 c 128,-1,26
 891 0 891 0 691 0 c 2,27,-1
 161 0 l 1,28,-1
 161 729 l 1,29,-1
 -2 729 l 1,30,-1
 -2 924 l 1,31,-1
 161 924 l 1,32,-1
 161 1607 l 1,33,-1
 691 1607 l 2,34,35
 887 1607 887 1607 1030.5 1553.5 c 128,-1,36
 1174 1500 1174 1500 1268 1397 c 128,-1,37
 1362 1294 1362 1294 1408 1143.5 c 128,-1,38
 1454 993 1454 993 1454 798 c 0,22,23
EndSplineSet
EndChar

StartChar: multiply
Encoding: 215 215 155
Width: 1361
GlyphClass: 2
Flags: W
LayerCount: 2
Fore
SplineSet
393 1011 m 1,0,-1
 699 715 l 1,1,-1
 1005 1011 l 1,2,-1
 1159 847 l 1,3,-1
 861 560 l 1,4,-1
 1159 272 l 1,5,-1
 1005 108 l 1,6,-1
 699 404 l 1,7,-1
 393 108 l 1,8,-1
 240 272 l 1,9,-1
 537 560 l 1,10,-1
 240 847 l 1,11,-1
 393 1011 l 1,0,-1
EndSplineSet
EndChar

StartChar: Oslash
Encoding: 216 216 156
Width: 1612
GlyphClass: 2
Flags: W
LayerCount: 2
Fore
SplineSet
452 44 m 1,0,1
 369 87 369 87 304.5 155 c 128,-1,2
 240 223 240 223 195.5 317 c 128,-1,3
 151 411 151 411 128 531.5 c 128,-1,4
 105 652 105 652 105 801 c 0,5,6
 105 1028 105 1028 159 1187 c 128,-1,7
 213 1346 213 1346 307 1445.5 c 128,-1,8
 401 1545 401 1545 528 1590.5 c 128,-1,9
 655 1636 655 1636 800 1636 c 0,10,11
 969 1636 969 1636 1104 1582 c 1,12,-1
 1179 1759 l 1,13,-1
 1301 1714 l 1,14,-1
 1219 1521 l 1,15,16
 1293 1470 1293 1470 1347 1397 c 128,-1,17
 1401 1324 1401 1324 1436.5 1232.5 c 128,-1,18
 1472 1141 1472 1141 1489.5 1032.5 c 128,-1,19
 1507 924 1507 924 1507 801 c 0,20,21
 1507 615 1507 615 1467 461.5 c 128,-1,22
 1427 308 1427 308 1342 197.5 c 128,-1,23
 1257 87 1257 87 1124 26.5 c 128,-1,24
 991 -34 991 -34 805 -34 c 0,25,26
 745 -34 745 -34 687 -27.5 c 128,-1,27
 629 -21 629 -21 575 -4 c 1,28,-1
 506 -167 l 1,29,-1
 382 -121 l 1,30,-1
 452 44 l 1,0,1
666 215 m 1,31,32
 683 210 683 210 719 200.5 c 128,-1,33
 755 191 755 191 806 191 c 0,34,35
 885 191 885 191 945 213.5 c 128,-1,36
 1005 236 1005 236 1048.5 276.5 c 128,-1,37
 1092 317 1092 317 1121 373.5 c 128,-1,38
 1150 430 1150 430 1167.5 498 c 128,-1,39
 1185 566 1185 566 1192 642.5 c 128,-1,40
 1199 719 1199 719 1199 801 c 0,41,42
 1199 949 1199 949 1178 1059 c 128,-1,43
 1157 1169 1157 1169 1108 1252 c 1,44,-1
 666 215 l 1,31,32
477 526 m 1,45,46
 478 502 478 502 480.5 470.5 c 128,-1,47
 483 439 483 439 491 406 c 128,-1,48
 499 373 499 373 513.5 342 c 128,-1,49
 528 311 528 311 554 287 c 1,50,-1
 1010 1356 l 1,51,52
 966 1385 966 1385 916 1398 c 128,-1,53
 866 1411 866 1411 809 1411 c 0,54,55
 691 1411 691 1411 614.5 1364 c 128,-1,56
 538 1317 538 1317 493 1234.5 c 128,-1,57
 448 1152 448 1152 430.5 1040.5 c 128,-1,58
 413 929 413 929 413 801 c 0,59,60
 413 717 413 717 426.5 645.5 c 128,-1,61
 440 574 440 574 477 526 c 1,45,46
EndSplineSet
EndChar

StartChar: Thorn
Encoding: 222 222 162
Width: 1410
GlyphClass: 2
Flags: W
LayerCount: 2
Fore
SplineSet
987 859 m 0,0,1
 987 944 987 944 974 1007.5 c 128,-1,2
 961 1071 961 1071 932.5 1114.5 c 128,-1,3
 904 1158 904 1158 858 1181.5 c 128,-1,4
 812 1205 812 1205 746 1210 c 1,5,6
 699 1212 699 1212 658.5 1208 c 128,-1,7
 618 1204 618 1204 581.5 1197.5 c 128,-1,8
 545 1191 545 1191 512.5 1182.5 c 128,-1,9
 480 1174 480 1174 450 1166 c 1,10,-1
 450 566 l 1,11,12
 556 536 556 536 641.5 524 c 128,-1,13
 727 512 727 512 804 523 c 0,14,15
 867 531 867 531 903.5 565.5 c 128,-1,16
 940 600 940 600 958.5 648.5 c 128,-1,17
 977 697 977 697 982 752.5 c 128,-1,18
 987 808 987 808 987 859 c 0,0,1
684 304 m 0,19,20
 538 304 538 304 450 382 c 1,21,-1
 450 -136 l 1,22,-1
 156 -136 l 1,23,-1
 156 1607 l 1,24,-1
 439 1607 l 1,25,-1
 439 1320 l 1,26,27
 476 1343 476 1343 520.5 1361 c 128,-1,28
 565 1379 565 1379 613 1391 c 128,-1,29
 661 1403 661 1403 710 1408.5 c 128,-1,30
 759 1414 759 1414 805 1412 c 1,31,32
 919 1404 919 1404 1001.5 1370 c 128,-1,33
 1084 1336 1084 1336 1139 1279.5 c 128,-1,34
 1194 1223 1194 1223 1224.5 1145.5 c 128,-1,35
 1255 1068 1255 1068 1267 974 c 0,36,37
 1278 886 1278 886 1272 797 c 0,38,39
 1264 680 1264 680 1223.5 588.5 c 128,-1,40
 1183 497 1183 497 1109.5 433.5 c 128,-1,41
 1036 370 1036 370 929.5 337 c 128,-1,42
 823 304 823 304 684 304 c 0,19,20
EndSplineSet
EndChar

StartChar: germandbls
Encoding: 223 223 163
Width: 1535
GlyphClass: 2
Flags: W
LayerCount: 2
Fore
SplineSet
613 736 m 1,0,1
 613 746 613 746 612.5 757.5 c 128,-1,2
 612 769 612 769 612 789 c 128,-1,3
 612 809 612 809 612 840.5 c 128,-1,4
 612 872 612 872 612 922 c 1,5,6
 721 922 721 922 797.5 931.5 c 128,-1,7
 874 941 874 941 923 968.5 c 128,-1,8
 972 996 972 996 994.5 1047 c 128,-1,9
 1017 1098 1017 1098 1017 1181 c 0,10,11
 1017 1235 1017 1235 1002 1276.5 c 128,-1,12
 987 1318 987 1318 953.5 1345.5 c 128,-1,13
 920 1373 920 1373 865 1387 c 128,-1,14
 810 1401 810 1401 729 1401 c 256,15,16
 648 1401 648 1401 596.5 1377.5 c 128,-1,17
 545 1354 545 1354 515 1305 c 128,-1,18
 485 1256 485 1256 474 1180 c 128,-1,19
 463 1104 463 1104 463 999 c 2,20,-1
 463 0 l 1,21,-1
 156 0 l 1,22,-1
 156 1002 l 2,23,24
 156 1146 156 1146 187 1258.5 c 128,-1,25
 218 1371 218 1371 286.5 1448.5 c 128,-1,26
 355 1526 355 1526 464 1566.5 c 128,-1,27
 573 1607 573 1607 729 1607 c 0,28,29
 838 1607 838 1607 921.5 1590 c 128,-1,30
 1005 1573 1005 1573 1066.5 1543.5 c 128,-1,31
 1128 1514 1128 1514 1170 1474 c 128,-1,32
 1212 1434 1212 1434 1237.5 1387 c 128,-1,33
 1263 1340 1263 1340 1274 1289 c 128,-1,34
 1285 1238 1285 1238 1285 1186 c 0,35,36
 1285 1121 1285 1121 1267 1062.5 c 128,-1,37
 1249 1004 1249 1004 1211.5 958.5 c 128,-1,38
 1174 913 1174 913 1116 882.5 c 128,-1,39
 1058 852 1058 852 977 843 c 1,40,41
 1090 831 1090 831 1179.5 797.5 c 128,-1,42
 1269 764 1269 764 1330.5 706.5 c 128,-1,43
 1392 649 1392 649 1424.5 567.5 c 128,-1,44
 1457 486 1457 486 1457 379 c 0,45,46
 1457 277 1457 277 1423 196 c 128,-1,47
 1389 115 1389 115 1330 53.5 c 128,-1,48
 1271 -8 1271 -8 1189.5 -51 c 128,-1,49
 1108 -94 1108 -94 1014 -121 c 128,-1,50
 920 -148 920 -148 816 -160.5 c 128,-1,51
 712 -173 712 -173 607 -173 c 1,52,-1
 607 63 l 1,53,54
 654 66 654 66 700 71 c 128,-1,55
 746 76 746 76 782 84 c 1,56,57
 869 94 869 94 938.5 116 c 128,-1,58
 1008 138 1008 138 1057 175.5 c 128,-1,59
 1106 213 1106 213 1132 267.5 c 128,-1,60
 1158 322 1158 322 1158 398 c 0,61,62
 1158 479 1158 479 1127.5 542 c 128,-1,63
 1097 605 1097 605 1031 648 c 128,-1,64
 965 691 965 691 861.5 713.5 c 128,-1,65
 758 736 758 736 613 736 c 1,0,1
EndSplineSet
EndChar

StartChar: ae
Encoding: 230 230 170
Width: 1899
GlyphClass: 2
Flags: W
LayerCount: 2
Fore
SplineSet
1573 690 m 1,0,1
 1573 778 1573 778 1556 839 c 128,-1,2
 1539 900 1539 900 1508.5 938 c 128,-1,3
 1478 976 1478 976 1436.5 993 c 128,-1,4
 1395 1010 1395 1010 1346 1010 c 0,5,6
 1296 1010 1296 1010 1251 991.5 c 128,-1,7
 1206 973 1206 973 1171.5 934 c 128,-1,8
 1137 895 1137 895 1115.5 834.5 c 128,-1,9
 1094 774 1094 774 1092 690 c 1,10,-1
 1573 690 l 1,0,1
1758 89 m 1,11,12
 1743 78 1743 78 1703 59.5 c 128,-1,13
 1663 41 1663 41 1608.5 23.5 c 128,-1,14
 1554 6 1554 6 1491.5 -6.5 c 128,-1,15
 1429 -19 1429 -19 1369 -19 c 0,16,17
 1294 -19 1294 -19 1231 -7 c 128,-1,18
 1168 5 1168 5 1115.5 31 c 128,-1,19
 1063 57 1063 57 1020 98.5 c 128,-1,20
 977 140 977 140 942 199 c 1,21,22
 906 143 906 143 857 101.5 c 128,-1,23
 808 60 808 60 749.5 33 c 128,-1,24
 691 6 691 6 626 -7.5 c 128,-1,25
 561 -21 561 -21 494 -21 c 0,26,27
 298 -21 298 -21 194.5 76.5 c 128,-1,28
 91 174 91 174 91 366 c 0,29,30
 91 459 91 459 123 526 c 128,-1,31
 155 593 155 593 211 637.5 c 128,-1,32
 267 682 267 682 344.5 705 c 128,-1,33
 422 728 422 728 513 733 c 0,34,35
 542 735 542 735 574 735 c 128,-1,36
 606 735 606 735 639 734 c 0,37,38
 690 731 690 731 735 724.5 c 128,-1,39
 780 718 780 718 814 709 c 1,40,41
 814 780 814 780 809 834 c 128,-1,42
 804 888 804 888 784.5 924 c 128,-1,43
 765 960 765 960 724.5 978.5 c 128,-1,44
 684 997 684 997 614 997 c 0,45,46
 551 997 551 997 485 984.5 c 128,-1,47
 419 972 419 972 363 955.5 c 128,-1,48
 307 939 307 939 268 923.5 c 128,-1,49
 229 908 229 908 221 902 c 1,50,-1
 165 1091 l 1,51,52
 173 1098 173 1098 196.5 1109.5 c 128,-1,53
 220 1121 220 1121 255 1134.5 c 128,-1,54
 290 1148 290 1148 333.5 1161 c 128,-1,55
 377 1174 377 1174 425 1185 c 128,-1,56
 473 1196 473 1196 522 1202.5 c 128,-1,57
 571 1209 571 1209 618 1209 c 0,58,59
 761 1209 761 1209 850 1166.5 c 128,-1,60
 939 1124 939 1124 982 1029 c 1,61,62
 1008 1075 1008 1075 1046.5 1108.5 c 128,-1,63
 1085 1142 1085 1142 1132.5 1164.5 c 128,-1,64
 1180 1187 1180 1187 1235 1198 c 128,-1,65
 1290 1209 1290 1209 1349 1209 c 0,66,67
 1461 1209 1461 1209 1548 1170.5 c 128,-1,68
 1635 1132 1635 1132 1694.5 1062.5 c 128,-1,69
 1754 993 1754 993 1785 896 c 128,-1,70
 1816 799 1816 799 1816 682 c 0,71,72
 1816 612 1816 612 1813 537 c 1,73,-1
 1092 537 l 1,74,75
 1093 459 1093 459 1109.5 394.5 c 128,-1,76
 1126 330 1126 330 1161 284 c 128,-1,77
 1196 238 1196 238 1251 213 c 128,-1,78
 1306 188 1306 188 1384 188 c 0,79,80
 1436 188 1436 188 1486 198.5 c 128,-1,81
 1536 209 1536 209 1577 224 c 128,-1,82
 1618 239 1618 239 1648.5 255.5 c 128,-1,83
 1679 272 1679 272 1693 284 c 1,84,-1
 1758 89 l 1,11,12
370 381 m 0,85,86
 370 280 370 280 419.5 231 c 128,-1,87
 469 182 469 182 566 182 c 0,88,89
 630 182 630 182 690.5 212.5 c 128,-1,90
 751 243 751 243 814 300 c 1,91,-1
 814 561 l 1,92,93
 777 566 777 566 743.5 569 c 128,-1,94
 710 572 710 572 680 573 c 0,95,96
 659 574 659 574 640 573.5 c 128,-1,97
 621 573 621 573 603 571 c 1,98,99
 537 568 537 568 492.5 554.5 c 128,-1,100
 448 541 448 541 421 517 c 128,-1,101
 394 493 394 493 382 459 c 128,-1,102
 370 425 370 425 370 381 c 0,85,86
EndSplineSet
EndChar

StartChar: igrave
Encoding: 236 236 176
Width: 667
GlyphClass: 2
Flags: W
LayerCount: 2
Fore
SplineSet
-40 1912 m 1,0,-1
 250 2038 l 1,1,-1
 437 1411 l 1,2,-1
 313 1355 l 1,3,-1
 -40 1912 l 1,0,-1
203 0 m 1,4,-1
 203 1185 l 1,5,-1
 493 1185 l 1,6,-1
 493 0 l 1,7,-1
 203 0 l 1,4,-1
EndSplineSet
EndChar

StartChar: iacute
Encoding: 237 237 177
Width: 667
GlyphClass: 2
Flags: W
LayerCount: 2
Fore
SplineSet
155 1387 m 1,0,-1
 344 2010 l 1,1,-1
 630 1885 l 1,2,-1
 275 1331 l 1,3,-1
 155 1387 l 1,0,-1
203 0 m 1,4,-1
 203 1185 l 1,5,-1
 493 1185 l 1,6,-1
 493 0 l 1,7,-1
 203 0 l 1,4,-1
EndSplineSet
EndChar

StartChar: icircumflex
Encoding: 238 238 178
Width: 667
GlyphClass: 2
Flags: W
LayerCount: 2
Fore
SplineSet
433 1954 m 1,0,-1
 708 1372 l 1,1,-1
 488 1341 l 1,2,-1
 334 1728 l 1,3,-1
 180 1341 l 1,4,-1
 -39 1372 l 1,5,-1
 237 1954 l 1,6,-1
 433 1954 l 1,0,-1
203 0 m 1,7,-1
 203 1185 l 1,8,-1
 493 1185 l 1,9,-1
 493 0 l 1,10,-1
 203 0 l 1,7,-1
EndSplineSet
EndChar

StartChar: idieresis
Encoding: 239 239 179
Width: 667
GlyphClass: 2
Flags: W
LayerCount: 2
Fore
SplineSet
-150 1491 m 256,0,1
 -150 1525 -150 1525 -137.5 1555.5 c 128,-1,2
 -125 1586 -125 1586 -103 1608.5 c 128,-1,3
 -81 1631 -81 1631 -51 1644 c 128,-1,4
 -21 1657 -21 1657 14 1657 c 256,5,6
 49 1657 49 1657 79.5 1644 c 128,-1,7
 110 1631 110 1631 132.5 1608.5 c 128,-1,8
 155 1586 155 1586 167.5 1555.5 c 128,-1,9
 180 1525 180 1525 180 1491 c 0,10,11
 180 1456 180 1456 167.5 1426 c 128,-1,12
 155 1396 155 1396 132.5 1373.5 c 128,-1,13
 110 1351 110 1351 79.5 1338 c 128,-1,14
 49 1325 49 1325 14 1325 c 0,15,16
 -22 1325 -22 1325 -52 1338 c 128,-1,17
 -82 1351 -82 1351 -104 1373.5 c 128,-1,18
 -126 1396 -126 1396 -138 1426.5 c 128,-1,19
 -150 1457 -150 1457 -150 1491 c 256,0,1
460 1491 m 256,20,21
 460 1525 460 1525 472.5 1555.5 c 128,-1,22
 485 1586 485 1586 507 1608.5 c 128,-1,23
 529 1631 529 1631 559 1644 c 128,-1,24
 589 1657 589 1657 624 1657 c 256,25,26
 659 1657 659 1657 689 1644 c 128,-1,27
 719 1631 719 1631 741.5 1608.5 c 128,-1,28
 764 1586 764 1586 777 1555.5 c 128,-1,29
 790 1525 790 1525 790 1491 c 0,30,31
 790 1456 790 1456 777 1426 c 128,-1,32
 764 1396 764 1396 741.5 1373.5 c 128,-1,33
 719 1351 719 1351 689 1338 c 128,-1,34
 659 1325 659 1325 624 1325 c 0,35,36
 588 1325 588 1325 558 1338 c 128,-1,37
 528 1351 528 1351 506 1373.5 c 128,-1,38
 484 1396 484 1396 472 1426.5 c 128,-1,39
 460 1457 460 1457 460 1491 c 256,20,21
203 0 m 1,40,-1
 203 1185 l 1,41,-1
 493 1185 l 1,42,-1
 493 0 l 1,43,-1
 203 0 l 1,40,-1
EndSplineSet
EndChar

StartChar: eth
Encoding: 240 240 180
Width: 1272
GlyphClass: 2
Flags: W
LayerCount: 2
Fore
SplineSet
1176 654 m 0,0,1
 1176 481 1176 481 1139.5 354 c 128,-1,2
 1103 227 1103 227 1032 144.5 c 128,-1,3
 961 62 961 62 855 22 c 128,-1,4
 749 -18 749 -18 611 -18 c 0,5,6
 474 -18 474 -18 375 31.5 c 128,-1,7
 276 81 276 81 211.5 166 c 128,-1,8
 147 251 147 251 116 364 c 128,-1,9
 85 477 85 477 85 603 c 0,10,11
 85 732 85 732 116 843 c 128,-1,12
 147 954 147 954 206 1035.5 c 128,-1,13
 265 1117 265 1117 351 1163 c 128,-1,14
 437 1209 437 1209 547 1209 c 0,15,16
 658 1209 658 1209 745.5 1166.5 c 128,-1,17
 833 1124 833 1124 884 1057 c 1,18,19
 866 1126 866 1126 815.5 1211 c 128,-1,20
 765 1296 765 1296 692 1379 c 1,21,-1
 453 1305 l 1,22,-1
 410 1433 l 1,23,-1
 586 1488 l 1,24,25
 539 1532 539 1532 494 1566.5 c 128,-1,26
 449 1601 449 1601 402 1630 c 1,27,-1
 528 1780 l 1,28,29
 565 1758 565 1758 599 1736.5 c 128,-1,30
 633 1715 633 1715 667 1689.5 c 128,-1,31
 701 1664 701 1664 737.5 1633 c 128,-1,32
 774 1602 774 1602 817 1560 c 1,33,-1
 1113 1653 l 1,34,-1
 1156 1525 l 1,35,-1
 919 1451 l 1,36,37
 975 1377 975 1377 1022.5 1294 c 128,-1,38
 1070 1211 1070 1211 1104 1114 c 128,-1,39
 1138 1017 1138 1017 1157 903 c 128,-1,40
 1176 789 1176 789 1176 654 c 0,0,1
375 597 m 0,41,42
 375 507 375 507 388 431.5 c 128,-1,43
 401 356 401 356 430.5 301.5 c 128,-1,44
 460 247 460 247 506.5 216 c 128,-1,45
 553 185 553 185 619 185 c 0,46,47
 682 185 682 185 729 210.5 c 128,-1,48
 776 236 776 236 808.5 282.5 c 128,-1,49
 841 329 841 329 859 393.5 c 128,-1,50
 877 458 877 458 882 537 c 1,51,52
 884 600 884 600 885 664.5 c 128,-1,53
 886 729 886 729 886 796 c 1,54,55
 871 856 871 856 841 896.5 c 128,-1,56
 811 937 811 937 773 961.5 c 128,-1,57
 735 986 735 986 692.5 996.5 c 128,-1,58
 650 1007 650 1007 610 1007 c 0,59,60
 490 1007 490 1007 432.5 903 c 128,-1,61
 375 799 375 799 375 597 c 0,41,42
EndSplineSet
EndChar

StartChar: divide
Encoding: 247 247 187
Width: 1163
GlyphClass: 2
Flags: W
LayerCount: 2
Fore
SplineSet
433 1041 m 256,0,1
 433 1075 433 1075 445 1105.5 c 128,-1,2
 457 1136 457 1136 478.5 1158.5 c 128,-1,3
 500 1181 500 1181 530 1194 c 128,-1,4
 560 1207 560 1207 595 1207 c 256,5,6
 630 1207 630 1207 659.5 1194 c 128,-1,7
 689 1181 689 1181 710 1158.5 c 128,-1,8
 731 1136 731 1136 743 1106 c 128,-1,9
 755 1076 755 1076 755 1041 c 256,10,11
 755 1006 755 1006 743 976 c 128,-1,12
 731 946 731 946 710 923.5 c 128,-1,13
 689 901 689 901 659.5 888 c 128,-1,14
 630 875 630 875 595 875 c 0,15,16
 559 875 559 875 529 888 c 128,-1,17
 499 901 499 901 478 923.5 c 128,-1,18
 457 946 457 946 445 976.5 c 128,-1,19
 433 1007 433 1007 433 1041 c 256,0,1
434 309 m 256,20,21
 434 343 434 343 446 373.5 c 128,-1,22
 458 404 458 404 479.5 426.5 c 128,-1,23
 501 449 501 449 531 462 c 128,-1,24
 561 475 561 475 596 475 c 256,25,26
 631 475 631 475 660.5 462 c 128,-1,27
 690 449 690 449 711 426.5 c 128,-1,28
 732 404 732 404 744 373.5 c 128,-1,29
 756 343 756 343 756 309 c 0,30,31
 756 274 756 274 744 244 c 128,-1,32
 732 214 732 214 711 191.5 c 128,-1,33
 690 169 690 169 660.5 156 c 128,-1,34
 631 143 631 143 596 143 c 0,35,36
 560 143 560 143 530 156 c 128,-1,37
 500 169 500 169 479 191.5 c 128,-1,38
 458 214 458 214 446 244.5 c 128,-1,39
 434 275 434 275 434 309 c 256,20,21
148 570 m 1,40,-1
 148 784 l 1,41,-1
 1041 784 l 1,42,-1
 1041 570 l 1,43,-1
 148 570 l 1,40,-1
EndSplineSet
EndChar

StartChar: oslash
Encoding: 248 248 188
Width: 1299
GlyphClass: 2
Flags: W
LayerCount: 2
Fore
SplineSet
736 1015 m 1,0,1
 719 1021 719 1021 697.5 1023.5 c 128,-1,2
 676 1026 676 1026 649 1026 c 0,3,4
 584 1026 584 1026 528 1002.5 c 128,-1,5
 472 979 472 979 431 928.5 c 128,-1,6
 390 878 390 878 367 798.5 c 128,-1,7
 344 719 344 719 344 607 c 0,8,9
 344 522 344 522 356.5 456.5 c 128,-1,10
 369 391 369 391 388 344.5 c 128,-1,11
 407 298 407 298 428.5 269.5 c 128,-1,12
 450 241 450 241 468 229 c 1,13,-1
 736 1015 l 1,0,1
440 -188 m 1,14,-1
 340 -154 l 1,15,-1
 402 27 l 1,16,17
 243 94 243 94 164 239 c 128,-1,18
 85 384 85 384 85 592 c 0,19,20
 85 727 85 727 121 840.5 c 128,-1,21
 157 954 157 954 228 1036 c 128,-1,22
 299 1118 299 1118 404.5 1163.5 c 128,-1,23
 510 1209 510 1209 649 1209 c 0,24,25
 687 1209 687 1209 723 1205 c 128,-1,26
 759 1201 759 1201 794 1194 c 1,27,-1
 860 1389 l 1,28,-1
 957 1355 l 1,29,-1
 892 1164 l 1,30,31
 973 1130 973 1130 1033 1074.5 c 128,-1,32
 1093 1019 1093 1019 1133 946 c 128,-1,33
 1173 873 1173 873 1193 783.5 c 128,-1,34
 1213 694 1213 694 1213 592 c 0,35,36
 1213 457 1213 457 1177.5 345 c 128,-1,37
 1142 233 1142 233 1071 152.5 c 128,-1,38
 1000 72 1000 72 894.5 27 c 128,-1,39
 789 -18 789 -18 649 -18 c 0,40,41
 570 -18 570 -18 503 -3 c 1,42,-1
 440 -188 l 1,14,-1
649 163 m 0,43,44
 727 163 727 163 785.5 194 c 128,-1,45
 844 225 844 225 882.5 281.5 c 128,-1,46
 921 338 921 338 940.5 417.5 c 128,-1,47
 960 497 960 497 960 594 c 0,48,49
 960 681 960 681 946.5 744 c 128,-1,50
 933 807 933 807 912.5 850.5 c 128,-1,51
 892 894 892 894 868.5 920 c 128,-1,52
 845 946 845 946 826 960 c 1,53,-1
 562 173 l 1,54,55
 592 163 592 163 649 163 c 0,43,44
EndSplineSet
EndChar

StartChar: thorn
Encoding: 254 254 194
Width: 1331
GlyphClass: 2
Flags: W
LayerCount: 2
Fore
SplineSet
954 581 m 0,0,1
 954 668 954 668 942 744.5 c 128,-1,2
 930 821 930 821 902.5 878 c 128,-1,3
 875 935 875 935 829 968 c 128,-1,4
 783 1001 783 1001 715 1001 c 0,5,6
 661 1001 661 1001 618 989 c 128,-1,7
 575 977 575 977 542 959.5 c 128,-1,8
 509 942 509 942 485.5 923 c 128,-1,9
 462 904 462 904 446 891 c 1,10,-1
 446 291 l 1,11,12
 502 240 502 240 578.5 212 c 128,-1,13
 655 184 655 184 737 184 c 0,14,15
 785 184 785 184 819.5 202 c 128,-1,16
 854 220 854 220 878 250.5 c 128,-1,17
 902 281 902 281 917 321.5 c 128,-1,18
 932 362 932 362 940 406 c 128,-1,19
 948 450 948 450 951 495 c 128,-1,20
 954 540 954 540 954 581 c 0,0,1
757 -18 m 0,21,22
 546 -18 546 -18 445 115 c 1,23,-1
 445 -437 l 1,24,-1
 154 -446 l 1,25,-1
 154 1601 l 1,26,-1
 441 1601 l 1,27,-1
 441 1045 l 1,28,29
 491 1120 491 1120 577 1162 c 128,-1,30
 663 1204 663 1204 765 1204 c 0,31,32
 891 1204 891 1204 982 1155 c 128,-1,33
 1073 1106 1073 1106 1131.5 1021.5 c 128,-1,34
 1190 937 1190 937 1218 824 c 128,-1,35
 1246 711 1246 711 1246 583 c 0,36,37
 1246 451 1246 451 1213.5 340.5 c 128,-1,38
 1181 230 1181 230 1118.5 150.5 c 128,-1,39
 1056 71 1056 71 965 26.5 c 128,-1,40
 874 -18 874 -18 757 -18 c 0,21,22
EndSplineSet
EndChar

StartChar: OE
Encoding: 338 338 196
Width: 2325
GlyphClass: 2
Flags: W
LayerCount: 2
Fore
SplineSet
1200 0 m 1,0,-1
 1200 1607 l 1,1,-1
 2249 1607 l 1,2,-1
 2249 1405 l 1,3,-1
 1505 1405 l 1,4,-1
 1505 931 l 1,5,-1
 2154 931 l 1,6,-1
 2154 745 l 1,7,-1
 1505 745 l 1,8,-1
 1505 199 l 1,9,-1
 2260 199 l 1,10,-1
 2260 0 l 1,11,-1
 1200 0 l 1,0,-1
1507 810 m 0,12,13
 1507 628 1507 628 1469.5 473.5 c 128,-1,14
 1432 319 1432 319 1349 206 c 128,-1,15
 1266 93 1266 93 1132 29 c 128,-1,16
 998 -35 998 -35 805 -35 c 0,17,18
 676 -35 676 -35 574 -5.5 c 128,-1,19
 472 24 472 24 394 78 c 128,-1,20
 316 132 316 132 261 209 c 128,-1,21
 206 286 206 286 171 381 c 128,-1,22
 136 476 136 476 120 586.5 c 128,-1,23
 104 697 104 697 104 819 c 0,24,25
 104 1010 104 1010 148.5 1161.5 c 128,-1,26
 193 1313 193 1313 280.5 1418 c 128,-1,27
 368 1523 368 1523 499.5 1579 c 128,-1,28
 631 1635 631 1635 805 1635 c 0,29,30
 980 1635 980 1635 1112 1579 c 128,-1,31
 1244 1523 1244 1523 1331.5 1416.5 c 128,-1,32
 1419 1310 1419 1310 1463 1157 c 128,-1,33
 1507 1004 1507 1004 1507 810 c 0,12,13
413 798 m 0,34,35
 413 660 413 660 434 548 c 128,-1,36
 455 436 455 436 501.5 357 c 128,-1,37
 548 278 548 278 623 235 c 128,-1,38
 698 192 698 192 805 192 c 0,39,40
 910 192 910 192 985 233.5 c 128,-1,41
 1060 275 1060 275 1107.5 353 c 128,-1,42
 1155 431 1155 431 1177 543.5 c 128,-1,43
 1199 656 1199 656 1199 798 c 0,44,45
 1199 941 1199 941 1177.5 1055 c 128,-1,46
 1156 1169 1156 1169 1108.5 1248 c 128,-1,47
 1061 1327 1061 1327 987 1369 c 128,-1,48
 913 1411 913 1411 808 1411 c 0,49,50
 701 1411 701 1411 626 1369.5 c 128,-1,51
 551 1328 551 1328 503.5 1249 c 128,-1,52
 456 1170 456 1170 434.5 1056 c 128,-1,53
 413 942 413 942 413 798 c 0,34,35
EndSplineSet
EndChar

StartChar: oe
Encoding: 339 339 197
Width: 2045
GlyphClass: 2
Flags: W
LayerCount: 2
Fore
SplineSet
1719 690 m 1,0,1
 1719 1013 1719 1013 1487 1016 c 1,2,3
 1426 1015 1426 1015 1378.5 990.5 c 128,-1,4
 1331 966 1331 966 1297.5 923 c 128,-1,5
 1264 880 1264 880 1246 820.5 c 128,-1,6
 1228 761 1228 761 1225 690 c 1,7,-1
 1719 690 l 1,0,1
650 169 m 0,8,9
 726 169 726 169 778.5 199.5 c 128,-1,10
 831 230 831 230 864 285.5 c 128,-1,11
 897 341 897 341 911.5 418 c 128,-1,12
 926 495 926 495 926 588 c 256,13,14
 926 681 926 681 911.5 758.5 c 128,-1,15
 897 836 897 836 864 892 c 128,-1,16
 831 948 831 948 778.5 979 c 128,-1,17
 726 1010 726 1010 650 1010 c 256,18,19
 574 1010 574 1010 521.5 979 c 128,-1,20
 469 948 469 948 437 892 c 128,-1,21
 405 836 405 836 390.5 758.5 c 128,-1,22
 376 681 376 681 376 588 c 0,23,24
 376 540 376 540 380 490.5 c 128,-1,25
 384 441 384 441 395.5 395 c 128,-1,26
 407 349 407 349 426 308 c 128,-1,27
 445 267 445 267 475.5 236 c 128,-1,28
 506 205 506 205 549 187 c 128,-1,29
 592 169 592 169 650 169 c 0,8,9
1905 84 m 1,30,31
 1860 58 1860 58 1810.5 37.5 c 128,-1,32
 1761 17 1761 17 1710 3.5 c 128,-1,33
 1659 -10 1659 -10 1608.5 -17 c 128,-1,34
 1558 -24 1558 -24 1512 -24 c 0,35,36
 1353 -24 1353 -24 1246.5 29.5 c 128,-1,37
 1140 83 1140 83 1076 194 c 1,38,39
 1052 138 1052 138 1008 95.5 c 128,-1,40
 964 53 964 53 907.5 24.5 c 128,-1,41
 851 -4 851 -4 785 -18 c 128,-1,42
 719 -32 719 -32 650 -32 c 0,43,44
 512 -32 512 -32 406.5 11.5 c 128,-1,45
 301 55 301 55 230 136 c 128,-1,46
 159 217 159 217 122.5 331.5 c 128,-1,47
 86 446 86 446 86 587 c 0,48,49
 86 716 86 716 118 829.5 c 128,-1,50
 150 943 150 943 218.5 1027.5 c 128,-1,51
 287 1112 287 1112 393.5 1161 c 128,-1,52
 500 1210 500 1210 650 1210 c 0,53,54
 721 1210 721 1210 785 1197 c 128,-1,55
 849 1184 849 1184 903 1155.5 c 128,-1,56
 957 1127 957 1127 1000 1081.5 c 128,-1,57
 1043 1036 1043 1036 1072 970 c 1,58,59
 1108 1034 1108 1034 1149.5 1080.5 c 128,-1,60
 1191 1127 1191 1127 1240.5 1157 c 128,-1,61
 1290 1187 1290 1187 1349 1201 c 128,-1,62
 1408 1215 1408 1215 1480 1215 c 0,63,64
 1596 1215 1596 1215 1686 1177.5 c 128,-1,65
 1776 1140 1776 1140 1837.5 1071 c 128,-1,66
 1899 1002 1899 1002 1930.5 904 c 128,-1,67
 1962 806 1962 806 1962 685 c 0,68,69
 1962 609 1962 609 1959 537 c 1,70,-1
 1226 537 l 1,71,72
 1227 446 1227 446 1249 378.5 c 128,-1,73
 1271 311 1271 311 1310.5 266 c 128,-1,74
 1350 221 1350 221 1407 199 c 128,-1,75
 1464 177 1464 177 1535 177 c 0,76,77
 1628 177 1628 177 1699.5 203 c 128,-1,78
 1771 229 1771 229 1839 281 c 1,79,-1
 1905 84 l 1,30,31
EndSplineSet
EndChar

StartChar: Scaron
Encoding: 352 352 198
Width: 1325
GlyphClass: 2
Flags: W
LayerCount: 2
Fore
SplineSet
578 1821 m 1,0,-1
 302 2404 l 1,1,-1
 522 2435 l 1,2,-1
 677 2047 l 1,3,-1
 830 2435 l 1,4,-1
 1050 2404 l 1,5,-1
 773 1821 l 1,6,-1
 578 1821 l 1,0,-1
1246 443 m 0,7,8
 1246 339 1246 339 1212 252 c 128,-1,9
 1178 165 1178 165 1106.5 101 c 128,-1,10
 1035 37 1035 37 923.5 1.5 c 128,-1,11
 812 -34 812 -34 658 -34 c 0,12,13
 604 -34 604 -34 552 -28 c 128,-1,14
 500 -22 500 -22 452.5 -12.5 c 128,-1,15
 405 -3 405 -3 362.5 9.5 c 128,-1,16
 320 22 320 22 284 35 c 0,17,18
 199 65 199 65 127 104 c 1,19,-1
 182 323 l 1,20,21
 239 296 239 296 301 273 c 0,22,23
 355 253 355 253 422 233.5 c 128,-1,24
 489 214 489 214 560 205 c 0,25,26
 602 199 602 199 642 196.5 c 128,-1,27
 682 194 682 194 717 196 c 0,28,29
 773 200 773 200 817 213 c 128,-1,30
 861 226 861 226 892 250.5 c 128,-1,31
 923 275 923 275 939 312 c 128,-1,32
 955 349 955 349 955 402 c 0,33,34
 955 487 955 487 909 544 c 128,-1,35
 863 601 863 601 767 637 c 1,36,-1
 413 778 l 2,37,38
 341 806 341 806 280.5 845.5 c 128,-1,39
 220 885 220 885 176.5 936.5 c 128,-1,40
 133 988 133 988 109 1052.5 c 128,-1,41
 85 1117 85 1117 85 1196 c 0,42,43
 85 1311 85 1311 132 1394.5 c 128,-1,44
 179 1478 179 1478 257 1531.5 c 128,-1,45
 335 1585 335 1585 437 1610.5 c 128,-1,46
 539 1636 539 1636 650 1636 c 0,47,48
 752 1636 752 1636 840.5 1619 c 128,-1,49
 929 1602 929 1602 997.5 1579.5 c 128,-1,50
 1066 1557 1066 1557 1112 1535 c 128,-1,51
 1158 1513 1158 1513 1175 1503 c 1,52,-1
 1111 1295 l 1,53,54
 1096 1304 1096 1304 1055 1323 c 128,-1,55
 1014 1342 1014 1342 955.5 1361.5 c 128,-1,56
 897 1381 897 1381 827.5 1396 c 128,-1,57
 758 1411 758 1411 686 1411 c 0,58,59
 619 1411 619 1411 561.5 1402.5 c 128,-1,60
 504 1394 504 1394 462 1372 c 128,-1,61
 420 1350 420 1350 396 1312.5 c 128,-1,62
 372 1275 372 1275 372 1218 c 0,63,64
 372 1194 372 1194 378.5 1170.5 c 128,-1,65
 385 1147 385 1147 401.5 1125.5 c 128,-1,66
 418 1104 418 1104 447.5 1084 c 128,-1,67
 477 1064 477 1064 524 1047 c 2,68,-1
 869 915 l 2,69,70
 952 883 952 883 1021.5 840 c 128,-1,71
 1091 797 1091 797 1141 739.5 c 128,-1,72
 1191 682 1191 682 1218.5 608.5 c 128,-1,73
 1246 535 1246 535 1246 443 c 0,7,8
EndSplineSet
EndChar

StartChar: scaron
Encoding: 353 353 199
Width: 1092
GlyphClass: 2
Flags: W
LayerCount: 2
Fore
SplineSet
450 1393 m 1,0,-1
 174 1976 l 1,1,-1
 394 2007 l 1,2,-1
 549 1619 l 1,3,-1
 702 2007 l 1,4,-1
 922 1976 l 1,5,-1
 645 1393 l 1,6,-1
 450 1393 l 1,0,-1
357 560 m 1,7,8
 305 579 305 579 259 605 c 128,-1,9
 213 631 213 631 178.5 668.5 c 128,-1,10
 144 706 144 706 123.5 759 c 128,-1,11
 103 812 103 812 103 886 c 0,12,13
 103 964 103 964 136 1025.5 c 128,-1,14
 169 1087 169 1087 228 1129 c 128,-1,15
 287 1171 287 1171 368 1193 c 128,-1,16
 449 1215 449 1215 546 1215 c 0,17,18
 621 1215 621 1215 693.5 1201 c 128,-1,19
 766 1187 766 1187 824.5 1168.5 c 128,-1,20
 883 1150 883 1150 922 1132.5 c 128,-1,21
 961 1115 961 1115 969 1109 c 1,22,-1
 903 921 l 1,23,24
 891 930 891 930 854.5 946 c 128,-1,25
 818 962 818 962 768.5 977.5 c 128,-1,26
 719 993 719 993 663.5 1004.5 c 128,-1,27
 608 1016 608 1016 557 1016 c 0,28,29
 452 1016 452 1016 407 979.5 c 128,-1,30
 362 943 362 943 362 886 c 0,31,32
 362 864 362 864 369 847.5 c 128,-1,33
 376 831 376 831 391 817.5 c 128,-1,34
 406 804 406 804 429 792.5 c 128,-1,35
 452 781 452 781 483 769 c 2,36,-1
 675 698 l 2,37,38
 753 669 753 669 814 635.5 c 128,-1,39
 875 602 875 602 917.5 559 c 128,-1,40
 960 516 960 516 982 463.5 c 128,-1,41
 1004 411 1004 411 1004 345 c 0,42,43
 1004 255 1004 255 970.5 186 c 128,-1,44
 937 117 937 117 876.5 70.5 c 128,-1,45
 816 24 816 24 732 0 c 128,-1,46
 648 -24 648 -24 548 -24 c 0,47,48
 461 -24 461 -24 384.5 -8.5 c 128,-1,49
 308 7 308 7 249.5 27 c 128,-1,50
 191 47 191 47 154 65.5 c 128,-1,51
 117 84 117 84 109 90 c 1,52,-1
 175 281 l 1,53,54
 184 274 184 274 221.5 257 c 128,-1,55
 259 240 259 240 311.5 222 c 128,-1,56
 364 204 364 204 423 190.5 c 128,-1,57
 482 177 482 177 534 177 c 0,58,59
 576 177 576 177 612.5 184.5 c 128,-1,60
 649 192 649 192 675.5 210 c 128,-1,61
 702 228 702 228 717.5 258 c 128,-1,62
 733 288 733 288 733 332 c 0,63,64
 733 380 733 380 695 412.5 c 128,-1,65
 657 445 657 445 590 470 c 2,66,-1
 357 560 l 1,7,8
EndSplineSet
EndChar

StartChar: florin
Encoding: 402 402 201
Width: 835
GlyphClass: 2
Flags: W
LayerCount: 2
Fore
SplineSet
713 1494 m 0,0,1
 668 1494 668 1494 639 1476 c 128,-1,2
 610 1458 610 1458 592.5 1417 c 128,-1,3
 575 1376 575 1376 566.5 1308.5 c 128,-1,4
 558 1241 558 1241 554 1142 c 1,5,-1
 849 1142 l 1,6,-1
 845 1010 l 1,7,-1
 549 1010 l 1,8,-1
 523 365 l 1,9,10
 514 195 514 195 478.5 83.5 c 128,-1,11
 443 -28 443 -28 381 -98 c 1,12,13
 332 -98 332 -98 286 -93 c 128,-1,14
 240 -88 240 -88 199 -82 c 128,-1,15
 158 -76 158 -76 123 -71 c 128,-1,16
 88 -66 88 -66 61 -66 c 1,17,-1
 91 54 l 1,18,19
 91 63 91 63 97.5 67.5 c 128,-1,20
 104 72 104 72 114.5 76.5 c 128,-1,21
 125 81 125 81 137 85.5 c 128,-1,22
 149 90 149 90 160 99 c 1,23,24
 188 134 188 134 205 185.5 c 128,-1,25
 222 237 222 237 226 318 c 2,26,-1
 256 1010 l 1,27,-1
 46 1010 l 1,28,-1
 50 1142 l 1,29,-1
 260 1142 l 1,30,31
 266 1290 266 1290 291 1397 c 128,-1,32
 316 1504 316 1504 364 1574 c 128,-1,33
 412 1644 412 1644 485 1677.5 c 128,-1,34
 558 1711 558 1711 660 1711 c 0,35,36
 699 1711 699 1711 735.5 1705 c 128,-1,37
 772 1699 772 1699 803.5 1690.5 c 128,-1,38
 835 1682 835 1682 860.5 1673.5 c 128,-1,39
 886 1665 886 1665 904 1661 c 1,40,-1
 878 1455 l 1,41,42
 868 1459 868 1459 850.5 1465.5 c 128,-1,43
 833 1472 833 1472 810.5 1478.5 c 128,-1,44
 788 1485 788 1485 762.5 1489.5 c 128,-1,45
 737 1494 737 1494 713 1494 c 0,0,1
EndSplineSet
EndChar

StartChar: circumflex
Encoding: 710 710 202
Width: 1331
GlyphClass: 2
Flags: W
LayerCount: 2
Fore
SplineSet
787 837 m 1,0,-1
 1064 254 l 1,1,-1
 843 223 l 1,2,-1
 689 611 l 1,3,-1
 535 223 l 1,4,-1
 316 254 l 1,5,-1
 592 837 l 1,6,-1
 787 837 l 1,0,-1
EndSplineSet
EndChar

StartChar: ring
Encoding: 730 730 203
Width: 1256
GlyphClass: 2
Flags: W
LayerCount: 2
Fore
SplineSet
459 519 m 0,0,1
 459 483 459 483 472 452.5 c 128,-1,2
 485 422 485 422 508 399.5 c 128,-1,3
 531 377 531 377 562 364 c 128,-1,4
 593 351 593 351 628 351 c 0,5,6
 664 351 664 351 694.5 364 c 128,-1,7
 725 377 725 377 748 399.5 c 128,-1,8
 771 422 771 422 784 452.5 c 128,-1,9
 797 483 797 483 797 519 c 256,10,11
 797 555 797 555 783.5 585.5 c 128,-1,12
 770 616 770 616 747 639 c 128,-1,13
 724 662 724 662 693.5 675 c 128,-1,14
 663 688 663 688 628 688 c 0,15,16
 592 688 592 688 561.5 675 c 128,-1,17
 531 662 531 662 508 639 c 128,-1,18
 485 616 485 616 472 585 c 128,-1,19
 459 554 459 554 459 519 c 0,0,1
629 825 m 0,20,21
 695 825 695 825 754 801.5 c 128,-1,22
 813 778 813 778 856.5 737 c 128,-1,23
 900 696 900 696 925.5 639.5 c 128,-1,24
 951 583 951 583 951 516 c 256,25,26
 951 449 951 449 924 393.5 c 128,-1,27
 897 338 897 338 852 298 c 128,-1,28
 807 258 807 258 747.5 235.5 c 128,-1,29
 688 213 688 213 622 213 c 0,30,31
 557 213 557 213 499.5 237 c 128,-1,32
 442 261 442 261 399 303 c 128,-1,33
 356 345 356 345 331 401.5 c 128,-1,34
 306 458 306 458 306 522 c 0,35,36
 306 587 306 587 332.5 642.5 c 128,-1,37
 359 698 359 698 403 738.5 c 128,-1,38
 447 779 447 779 505.5 802 c 128,-1,39
 564 825 564 825 629 825 c 0,20,21
EndSplineSet
EndChar

StartChar: tilde
Encoding: 732 732 204
Width: 1438
GlyphClass: 2
Flags: W
LayerCount: 2
Fore
SplineSet
942 228 m 0,0,1
 889 228 889 228 834.5 246.5 c 128,-1,2
 780 265 780 265 726 293 c 0,3,4
 673 320 673 320 630 342 c 128,-1,5
 587 364 587 364 558 364 c 0,6,7
 531 364 531 364 513.5 339.5 c 128,-1,8
 496 315 496 315 496 246 c 1,9,-1
 305 246 l 1,10,11
 305 559 305 559 528 559 c 0,12,13
 592 559 592 559 642.5 539.5 c 128,-1,14
 693 520 693 520 743 494 c 0,15,16
 767 482 767 482 791 470 c 128,-1,17
 815 458 815 458 837 448 c 128,-1,18
 859 438 859 438 878.5 432 c 128,-1,19
 898 426 898 426 913 426 c 0,20,21
 936 426 936 426 946.5 447 c 128,-1,22
 957 468 957 468 957 529 c 1,23,-1
 1155 529 l 1,24,25
 1155 385 1155 385 1099.5 306.5 c 128,-1,26
 1044 228 1044 228 942 228 c 0,0,1
EndSplineSet
EndChar

StartChar: uni0306
Encoding: 774 774 205
Width: 1103
GlyphClass: 2
Flags: W
LayerCount: 2
Fore
SplineSet
863 1668 m 1,0,1
 863 1519 863 1519 786.5 1443 c 128,-1,2
 710 1367 710 1367 549 1367 c 256,3,4
 388 1367 388 1367 310.5 1444 c 128,-1,5
 233 1521 233 1521 233 1668 c 1,6,-1
 410 1668 l 1,7,8
 410 1583 410 1583 443 1544 c 128,-1,9
 476 1505 476 1505 549 1505 c 256,10,11
 622 1505 622 1505 654.5 1544 c 128,-1,12
 687 1583 687 1583 687 1668 c 1,13,-1
 863 1668 l 1,0,1
EndSplineSet
EndChar

StartChar: uni0E81
Encoding: 3713 3713 206
Width: 1429
GlyphClass: 2
Flags: W
LayerCount: 2
Fore
SplineSet
880 936 m 1,0,1
 793 934 793 934 624 822 c 1,2,3
 625 804 625 804 625.5 794 c 128,-1,4
 626 784 626 784 626 782 c 2,5,-1
 626 333 l 2,6,7
 626 256 626 256 606.5 194.5 c 128,-1,8
 587 133 587 133 549.5 90 c 128,-1,9
 512 47 512 47 457 23.5 c 128,-1,10
 402 0 402 0 332 0 c 0,11,12
 70 0 70 0 70 213 c 0,13,14
 70 252 70 252 85 287.5 c 128,-1,15
 100 323 100 323 126 349.5 c 128,-1,16
 152 376 152 376 186 392 c 128,-1,17
 220 408 220 408 258 408 c 1,18,19
 269 407 269 407 281.5 406.5 c 128,-1,20
 294 406 294 406 306 402 c 2,21,-1
 359 385 l 1,22,-1
 359 702 l 1,23,24
 344 700 344 700 331.5 699 c 128,-1,25
 319 698 319 698 308 698 c 0,26,27
 255 698 255 698 211 712 c 128,-1,28
 167 726 167 726 134.5 752.5 c 128,-1,29
 102 779 102 779 84 817 c 128,-1,30
 66 855 66 855 66 902 c 0,31,32
 66 996 66 996 131 1050 c 128,-1,33
 196 1104 196 1104 331 1104 c 0,34,35
 500 1104 500 1104 581 970 c 1,36,37
 686 1040 686 1040 768.5 1072 c 128,-1,38
 851 1104 851 1104 923 1104 c 0,39,40
 1345 1104 1345 1104 1345 658 c 2,41,-1
 1345 0 l 1,42,-1
 1077 0 l 1,43,-1
 1077 705 l 2,44,45
 1077 776 1077 776 1065.5 821 c 128,-1,46
 1054 866 1054 866 1029.5 891.5 c 128,-1,47
 1005 917 1005 917 968 926.5 c 128,-1,48
 931 936 931 936 880 936 c 1,0,1
235 903 m 1,49,50
 244 831 244 831 306 826 c 1,51,52
 335 826 335 826 359 835 c 1,53,-1
 359 878 l 1,54,55
 352 960 352 960 298 968 c 1,56,57
 268 968 268 968 251.5 951.5 c 128,-1,58
 235 935 235 935 235 903 c 1,49,50
297 139 m 1,59,60
 359 141 359 141 359 227 c 2,61,-1
 359 284 l 1,62,-1
 306 284 l 2,63,64
 273 284 273 284 255 266.5 c 128,-1,65
 237 249 237 249 237 215 c 0,66,67
 237 140 237 140 297 139 c 1,59,60
EndSplineSet
EndChar

StartChar: uni0E82
Encoding: 3714 3714 207
Width: 1244
GlyphClass: 2
Flags: W
LayerCount: 2
Fore
SplineSet
402 251 m 0,0,1
 402 228 402 228 415 219.5 c 128,-1,2
 428 211 428 211 455 211 c 0,3,4
 474 211 474 211 504.5 220 c 128,-1,5
 535 229 535 229 573 242 c 128,-1,6
 611 255 611 255 654 271 c 128,-1,7
 697 287 697 287 741.5 300 c 128,-1,8
 786 313 786 313 829.5 322 c 128,-1,9
 873 331 873 331 911 331 c 0,10,11
 1011 331 1011 331 1094.5 270 c 128,-1,12
 1178 209 1178 209 1260 83 c 1,13,-1
 1107 -52 l 1,14,15
 1069 4 1069 4 1042.5 38 c 128,-1,16
 1016 72 1016 72 993.5 90 c 128,-1,17
 971 108 971 108 948 114 c 128,-1,18
 925 120 925 120 894 120 c 0,19,20
 829 120 829 120 770 101 c 128,-1,21
 711 82 711 82 653 59.5 c 128,-1,22
 595 37 595 37 535 18.5 c 128,-1,23
 475 0 475 0 408 0 c 0,24,25
 134 0 134 0 134 227 c 0,26,27
 134 278 134 278 152 318.5 c 128,-1,28
 170 359 170 359 213.5 394.5 c 128,-1,29
 257 430 257 430 330 463.5 c 128,-1,30
 403 497 403 497 513 534 c 2,31,-1
 606 565 l 2,32,33
 662 583 662 583 717.5 599 c 128,-1,34
 773 615 773 615 817 639.5 c 128,-1,35
 861 664 861 664 888.5 704 c 128,-1,36
 916 744 916 744 916 811 c 0,37,38
 916 883 916 883 846.5 916.5 c 128,-1,39
 777 950 777 950 649 950 c 0,40,41
 562 950 562 950 500.5 945 c 128,-1,42
 439 940 439 940 402 926 c 1,43,44
 417 929 417 929 433 929 c 0,45,46
 465 929 465 929 495 914 c 128,-1,47
 525 899 525 899 547.5 874.5 c 128,-1,48
 570 850 570 850 583.5 818 c 128,-1,49
 597 786 597 786 597 752 c 0,50,51
 597 708 597 708 580 671 c 128,-1,52
 563 634 563 634 533 607 c 128,-1,53
 503 580 503 580 462 565 c 128,-1,54
 421 550 421 550 372 550 c 0,55,56
 127 550 127 550 127 788 c 0,57,58
 127 861 127 861 161.5 920 c 128,-1,59
 196 979 196 979 262 1019.5 c 128,-1,60
 328 1060 328 1060 424 1082 c 128,-1,61
 520 1104 520 1104 642 1104 c 0,62,63
 913 1104 913 1104 1046.5 1027 c 128,-1,64
 1180 950 1180 950 1180 782 c 0,65,66
 1180 694 1180 694 1141.5 633 c 128,-1,67
 1103 572 1103 572 1042 529 c 128,-1,68
 981 486 981 486 907 457 c 128,-1,69
 833 428 833 428 762 406 c 2,70,-1
 632 365 l 2,71,72
 552 340 552 340 506 323 c 128,-1,73
 460 306 460 306 437 294 c 128,-1,74
 414 282 414 282 408 272 c 128,-1,75
 402 262 402 262 402 251 c 0,0,1
430 766 m 1,76,77
 430 834 430 834 355 834 c 2,78,-1
 306 834 l 1,79,80
 303 820 303 820 303 805 c 0,81,82
 304 746 304 746 320 715.5 c 128,-1,83
 336 685 336 685 368 686 c 0,84,85
 398 687 398 687 413.5 707.5 c 128,-1,86
 429 728 429 728 430 766 c 1,76,77
EndSplineSet
EndChar

StartChar: uni0E84
Encoding: 3716 3716 208
Width: 1268
GlyphClass: 2
Flags: W
LayerCount: 2
Fore
SplineSet
916 654 m 2,0,1
 916 738 916 738 901.5 792.5 c 128,-1,2
 887 847 887 847 854 878.5 c 128,-1,3
 821 910 821 910 769 922.5 c 128,-1,4
 717 935 717 935 642 935 c 0,5,6
 498 935 498 935 435.5 905.5 c 128,-1,7
 373 876 373 876 373 813 c 0,8,9
 373 747 373 747 409 712.5 c 128,-1,10
 445 678 445 678 514 678 c 2,11,-1
 662 678 l 1,12,-1
 662 521 l 1,13,-1
 514 521 l 2,14,15
 438 521 438 521 405.5 489 c 128,-1,16
 373 457 373 457 373 391 c 2,17,-1
 373 386 l 1,18,-1
 395 392 l 2,19,20
 424 400 424 400 440 403 c 128,-1,21
 456 406 456 406 469 406 c 0,22,23
 510 406 510 406 545.5 392 c 128,-1,24
 581 378 581 378 607 353 c 128,-1,25
 633 328 633 328 648 293 c 128,-1,26
 663 258 663 258 663 216 c 0,27,28
 663 110 663 110 599 55 c 128,-1,29
 535 0 535 0 399 0 c 0,30,31
 333 0 333 0 278.5 23.5 c 128,-1,32
 224 47 224 47 186 90.5 c 128,-1,33
 148 134 148 134 127 195.5 c 128,-1,34
 106 257 106 257 106 333 c 0,35,36
 106 386 106 386 124 432 c 128,-1,37
 142 478 142 478 175 513.5 c 128,-1,38
 208 549 208 549 255 572 c 128,-1,39
 302 595 302 595 359 602 c 1,40,41
 305 602 305 602 258.5 617.5 c 128,-1,42
 212 633 212 633 178.5 661 c 128,-1,43
 145 689 145 689 125.5 727.5 c 128,-1,44
 106 766 106 766 106 813 c 0,45,46
 106 878 106 878 133.5 925 c 128,-1,47
 161 972 161 972 205.5 1004.5 c 128,-1,48
 250 1037 250 1037 307.5 1056.5 c 128,-1,49
 365 1076 365 1076 424.5 1086.5 c 128,-1,50
 484 1097 484 1097 541 1100.5 c 128,-1,51
 598 1104 598 1104 642 1104 c 0,52,53
 785 1104 785 1104 887.5 1077.5 c 128,-1,54
 990 1051 990 1051 1055.5 996.5 c 128,-1,55
 1121 942 1121 942 1152 857.5 c 128,-1,56
 1183 773 1183 773 1183 658 c 2,57,-1
 1183 0 l 1,58,-1
 916 0 l 1,59,-1
 916 654 l 2,0,1
496 216 m 0,60,61
 496 244 496 244 477.5 264 c 128,-1,62
 459 284 459 284 424 284 c 2,63,-1
 373 284 l 1,64,-1
 373 238 l 2,65,66
 373 186 373 186 387.5 162.5 c 128,-1,67
 402 139 402 139 434 139 c 0,68,69
 463 139 463 139 479.5 158 c 128,-1,70
 496 177 496 177 496 216 c 0,60,61
EndSplineSet
EndChar

StartChar: uni0E87
Encoding: 3719 3719 209
Width: 991
GlyphClass: 2
Flags: W
LayerCount: 2
Fore
SplineSet
256 -179 m 1,0,1
 256 -268 256 -268 306 -305 c 128,-1,2
 356 -342 356 -342 460 -342 c 0,3,4
 520 -342 520 -342 560 -327 c 128,-1,5
 600 -312 600 -312 624 -275 c 128,-1,6
 648 -238 648 -238 658.5 -175.5 c 128,-1,7
 669 -113 669 -113 669 -17 c 2,8,-1
 669 584 l 2,9,10
 669 684 669 684 657 755.5 c 128,-1,11
 645 827 645 827 620 873 c 128,-1,12
 595 919 595 919 557 941 c 128,-1,13
 519 963 519 963 467 965 c 1,14,15
 485 915 485 915 485 884 c 0,16,17
 485 793 485 793 430 745 c 128,-1,18
 375 697 375 697 266 697 c 0,19,20
 219 697 219 697 180.5 710.5 c 128,-1,21
 142 724 142 724 114 749.5 c 128,-1,22
 86 775 86 775 71 812 c 128,-1,23
 56 849 56 849 56 896 c 0,24,25
 56 942 56 942 81 980.5 c 128,-1,26
 106 1019 106 1019 151.5 1046 c 128,-1,27
 197 1073 197 1073 261 1088 c 128,-1,28
 325 1103 325 1103 402 1103 c 0,29,30
 937 1103 937 1103 937 590 c 2,31,-1
 937 20 l 2,32,33
 937 -116 937 -116 909 -213 c 128,-1,34
 881 -310 881 -310 823.5 -371.5 c 128,-1,35
 766 -433 766 -433 678 -462 c 128,-1,36
 590 -491 590 -491 470 -491 c 0,37,38
 273 -491 273 -491 175 -412.5 c 128,-1,39
 77 -334 77 -334 76 -179 c 1,40,-1
 256 -179 l 1,0,1
343 964 m 1,41,42
 223 953 223 953 223 884 c 0,43,44
 223 856 223 856 235.5 838.5 c 128,-1,45
 248 821 248 821 277 821 c 0,46,47
 312 821 312 821 327.5 843 c 128,-1,48
 343 865 343 865 343 902 c 2,49,-1
 343 964 l 1,41,42
EndSplineSet
EndChar

StartChar: uni0E88
Encoding: 3720 3720 210
Width: 1340
GlyphClass: 2
Flags: W
LayerCount: 2
Fore
SplineSet
1007 638 m 2,0,1
 1007 796 1007 796 920 865.5 c 128,-1,2
 833 935 833 935 654 935 c 0,3,4
 565 935 565 935 494.5 919 c 128,-1,5
 424 903 424 903 374.5 871 c 128,-1,6
 325 839 325 839 299 790.5 c 128,-1,7
 273 742 273 742 273 678 c 1,8,-1
 35 678 l 1,9,10
 36 783 36 783 79 863 c 128,-1,11
 122 943 122 943 202.5 996.5 c 128,-1,12
 283 1050 283 1050 398 1077 c 128,-1,13
 513 1104 513 1104 659 1104 c 0,14,15
 814 1104 814 1104 926.5 1071.5 c 128,-1,16
 1039 1039 1039 1039 1112 974.5 c 128,-1,17
 1185 910 1185 910 1220 814 c 128,-1,18
 1255 718 1255 718 1255 590 c 2,19,-1
 1255 17 l 1,20,-1
 994 -77 l 1,21,-1
 952 -53 l 2,22,23
 827 18 827 18 755 135 c 128,-1,24
 683 252 683 252 654 407 c 1,25,-1
 607 392 l 2,26,27
 590 387 590 387 573 384.5 c 128,-1,28
 556 382 556 382 541 382 c 0,29,30
 499 382 499 382 464.5 397.5 c 128,-1,31
 430 413 430 413 405.5 439.5 c 128,-1,32
 381 466 381 466 367 501.5 c 128,-1,33
 353 537 353 537 353 578 c 0,34,35
 353 626 353 626 370 665 c 128,-1,36
 387 704 387 704 419 732.5 c 128,-1,37
 451 761 451 761 498 776.5 c 128,-1,38
 545 792 545 792 605 792 c 0,39,40
 737 792 737 792 802 729.5 c 128,-1,41
 867 667 867 667 881 538 c 0,42,43
 887 479 887 479 898 418.5 c 128,-1,44
 909 358 909 358 924.5 303 c 128,-1,45
 940 248 940 248 960.5 203 c 128,-1,46
 981 158 981 158 1007 132 c 1,47,-1
 1007 638 l 2,0,1
582 656 m 0,48,49
 556 656 556 656 538 635.5 c 128,-1,50
 520 615 520 615 520 578 c 0,51,52
 520 544 520 544 542 525.5 c 128,-1,53
 564 507 564 507 606 507 c 2,54,-1
 644 507 l 1,55,56
 643 511 643 511 643 519.5 c 128,-1,57
 643 528 643 528 643 541 c 0,58,59
 643 605 643 605 627.5 630.5 c 128,-1,60
 612 656 612 656 582 656 c 0,48,49
EndSplineSet
EndChar

StartChar: uni0E8A
Encoding: 3722 3722 211
Width: 1232
GlyphClass: 2
Flags: W
LayerCount: 2
Fore
SplineSet
363 686 m 1,0,1
 430 686 430 686 430 766 c 1,2,3
 428 798 428 798 408 816 c 128,-1,4
 388 834 388 834 350 834 c 2,5,-1
 307 834 l 1,6,7
 305 820 305 820 304 811.5 c 128,-1,8
 303 803 303 803 303 801 c 0,9,10
 306 687 306 687 363 686 c 1,0,1
373 547 m 0,11,12
 252 547 252 547 189.5 607 c 128,-1,13
 127 667 127 667 127 788 c 0,14,15
 127 863 127 863 162.5 921.5 c 128,-1,16
 198 980 198 980 264.5 1020.5 c 128,-1,17
 331 1061 331 1061 426.5 1082.5 c 128,-1,18
 522 1104 522 1104 642 1104 c 0,19,20
 1182 1104 1182 1104 1182 771 c 0,21,22
 1182 709 1182 709 1163 659.5 c 128,-1,23
 1144 610 1144 610 1104 570 c 128,-1,24
 1064 530 1064 530 1002 497.5 c 128,-1,25
 940 465 940 465 855 437 c 2,26,-1
 638 365 l 2,27,28
 555 337 555 337 507.5 319.5 c 128,-1,29
 460 302 460 302 436.5 290 c 128,-1,30
 413 278 413 278 406.5 269 c 128,-1,31
 400 260 400 260 399 249 c 1,32,33
 400 231 400 231 411 220.5 c 128,-1,34
 422 210 422 210 443 210 c 0,35,36
 481 210 481 210 616 258 c 0,37,38
 686 283 686 283 738.5 299.5 c 128,-1,39
 791 316 791 316 831.5 325.5 c 128,-1,40
 872 335 872 335 903.5 338.5 c 128,-1,41
 935 342 935 342 964 342 c 0,42,43
 1196 342 1196 342 1196 86 c 2,44,-1
 1196 -190 l 1,45,-1
 961 -190 l 1,46,-1
 961 68 l 2,47,48
 961 110 961 110 944.5 123.5 c 128,-1,49
 928 137 928 137 894 137 c 0,50,51
 863 137 863 137 742 90 c 0,52,53
 676 64 676 64 627 47 c 128,-1,54
 578 30 578 30 539 19.5 c 128,-1,55
 500 9 500 9 468 4.5 c 128,-1,56
 436 0 436 0 403 0 c 0,57,58
 269 0 269 0 201.5 59 c 128,-1,59
 134 118 134 118 134 227 c 0,60,61
 134 278 134 278 153 319 c 128,-1,62
 172 360 172 360 223 398 c 128,-1,63
 274 436 274 436 363 475 c 128,-1,64
 452 514 452 514 591 562 c 0,65,66
 658 585 658 585 718 603 c 128,-1,67
 778 621 778 621 822.5 644.5 c 128,-1,68
 867 668 867 668 893 700.5 c 128,-1,69
 919 733 919 733 919 786 c 0,70,71
 919 874 919 874 850.5 912 c 128,-1,72
 782 950 782 950 637 950 c 0,73,74
 471 950 471 950 399 926 c 1,75,76
 404 927 404 927 406.5 927.5 c 128,-1,77
 409 928 409 928 410 928 c 0,78,79
 450 928 450 928 484.5 915.5 c 128,-1,80
 519 903 519 903 544 880 c 128,-1,81
 569 857 569 857 583 824.5 c 128,-1,82
 597 792 597 792 597 753 c 0,83,84
 597 710 597 710 580 672.5 c 128,-1,85
 563 635 563 635 533 607 c 128,-1,86
 503 579 503 579 462 563 c 128,-1,87
 421 547 421 547 373 547 c 0,11,12
EndSplineSet
EndChar

StartChar: uni0E8D
Encoding: 3725 3725 212
Width: 1258
GlyphClass: 2
Flags: W
LayerCount: 2
Fore
SplineSet
926 1104 m 1,0,-1
 1193 1104 l 1,1,-1
 1193 446 l 2,2,3
 1193 330 1193 330 1163.5 246 c 128,-1,4
 1134 162 1134 162 1067 107.5 c 128,-1,5
 1000 53 1000 53 892 26.5 c 128,-1,6
 784 0 784 0 627 0 c 0,7,8
 376 0 376 0 246 74.5 c 128,-1,9
 116 149 116 149 116 290 c 0,10,11
 116 338 116 338 135.5 376.5 c 128,-1,12
 155 415 155 415 188.5 442.5 c 128,-1,13
 222 470 222 470 268.5 485 c 128,-1,14
 315 500 315 500 369 501 c 1,15,16
 312 508 312 508 265.5 531.5 c 128,-1,17
 219 555 219 555 185.5 590.5 c 128,-1,18
 152 626 152 626 134 672 c 128,-1,19
 116 718 116 718 116 771 c 0,20,21
 116 846 116 846 137 907.5 c 128,-1,22
 158 969 158 969 196.5 1012.5 c 128,-1,23
 235 1056 235 1056 289 1080 c 128,-1,24
 343 1104 343 1104 409 1104 c 0,25,26
 545 1104 545 1104 609 1048.5 c 128,-1,27
 673 993 673 993 673 887 c 0,28,29
 673 847 673 847 658.5 812.5 c 128,-1,30
 644 778 644 778 618.5 752.5 c 128,-1,31
 593 727 593 727 558.5 712 c 128,-1,32
 524 697 524 697 485 697 c 0,33,34
 470 697 470 697 453 699 c 128,-1,35
 436 701 436 701 405 711 c 2,36,-1
 383 718 l 1,37,-1
 383 712 l 2,38,39
 383 646 383 646 416 614 c 128,-1,40
 449 582 449 582 524 582 c 2,41,-1
 672 582 l 1,42,-1
 672 425 l 1,43,-1
 524 425 l 2,44,45
 455 425 455 425 419 390.5 c 128,-1,46
 383 356 383 356 383 290 c 0,47,48
 383 227 383 227 445.5 197.5 c 128,-1,49
 508 168 508 168 652 168 c 0,50,51
 731 168 731 168 783.5 181.5 c 128,-1,52
 836 195 836 195 867.5 228 c 128,-1,53
 899 261 899 261 912.5 315 c 128,-1,54
 926 369 926 369 926 450 c 2,55,-1
 926 1104 l 1,0,-1
506 888 m 0,56,57
 506 927 506 927 489.5 946 c 128,-1,58
 473 965 473 965 444 965 c 0,59,60
 413 965 413 965 398 941 c 128,-1,61
 383 917 383 917 383 866 c 2,62,-1
 383 820 l 1,63,-1
 434 820 l 2,64,65
 470 820 470 820 488 838 c 128,-1,66
 506 856 506 856 506 888 c 0,56,57
EndSplineSet
EndChar

StartChar: uni0E94
Encoding: 3732 3732 213
Width: 1283
GlyphClass: 2
Flags: W
LayerCount: 2
Fore
SplineSet
655 935 m 0,0,1
 577 935 577 935 524.5 921.5 c 128,-1,2
 472 908 472 908 440.5 876 c 128,-1,3
 409 844 409 844 395.5 792 c 128,-1,4
 382 740 382 740 382 664 c 2,5,-1
 382 385 l 1,6,-1
 419 397 l 2,7,8
 435 402 435 402 451.5 404 c 128,-1,9
 468 406 468 406 482 406 c 0,10,11
 523 406 523 406 558 391 c 128,-1,12
 593 376 593 376 618 349.5 c 128,-1,13
 643 323 643 323 657 286.5 c 128,-1,14
 671 250 671 250 671 207 c 0,15,16
 671 104 671 104 606 52 c 128,-1,17
 541 0 541 0 399 0 c 0,18,19
 335 0 335 0 283 24 c 128,-1,20
 231 48 231 48 194 92.5 c 128,-1,21
 157 137 157 137 136.5 198.5 c 128,-1,22
 116 260 116 260 116 335 c 2,23,-1
 116 658 l 2,24,25
 116 775 116 775 148 859.5 c 128,-1,26
 180 944 180 944 246 998.5 c 128,-1,27
 312 1053 312 1053 413.5 1078.5 c 128,-1,28
 515 1104 515 1104 655 1104 c 0,29,30
 798 1104 798 1104 901 1077 c 128,-1,31
 1004 1050 1004 1050 1070 994.5 c 128,-1,32
 1136 939 1136 939 1167 855 c 128,-1,33
 1198 771 1198 771 1198 658 c 2,34,-1
 1198 0 l 1,35,-1
 929 0 l 1,36,-1
 929 654 l 2,37,38
 929 739 929 739 914.5 793.5 c 128,-1,39
 900 848 900 848 867 879.5 c 128,-1,40
 834 911 834 911 782 923 c 128,-1,41
 730 935 730 935 655 935 c 0,0,1
505 212 m 0,42,43
 505 244 505 244 486 263.5 c 128,-1,44
 467 283 467 283 432 283 c 2,45,-1
 382 283 l 1,46,-1
 382 227 l 2,47,48
 382 181 382 181 398 160 c 128,-1,49
 414 139 414 139 447 139 c 0,50,51
 473 139 473 139 489 157 c 128,-1,52
 505 175 505 175 505 212 c 0,42,43
EndSplineSet
EndChar

StartChar: uni0E95
Encoding: 3733 3733 214
Width: 1566
GlyphClass: 2
Flags: W
LayerCount: 2
Fore
SplineSet
1093 1104 m 0,0,1
 1482 1104 1482 1104 1482 654 c 2,2,-1
 1482 0 l 1,3,-1
 1214 0 l 1,4,-1
 1214 673 l 2,5,6
 1214 721 1214 721 1211 767.5 c 128,-1,7
 1208 814 1208 814 1193.5 851.5 c 128,-1,8
 1179 889 1179 889 1148 912 c 128,-1,9
 1117 935 1117 935 1061 935 c 0,10,11
 1017 935 1017 935 992.5 913 c 128,-1,12
 968 891 968 891 955 857 c 128,-1,13
 942 823 942 823 939 783 c 128,-1,14
 936 743 936 743 936 706 c 2,15,-1
 936 526 l 1,16,-1
 668 526 l 1,17,-1
 668 669 l 2,18,19
 668 711 668 711 666 758 c 128,-1,20
 664 805 664 805 651.5 844 c 128,-1,21
 639 883 639 883 612.5 909 c 128,-1,22
 586 935 586 935 537 935 c 0,23,24
 492 935 492 935 462 925 c 128,-1,25
 432 915 432 915 414.5 889 c 128,-1,26
 397 863 397 863 390 818.5 c 128,-1,27
 383 774 383 774 383 706 c 2,28,-1
 383 387 l 1,29,-1
 421 399 l 2,30,31
 436 404 436 404 449.5 406.5 c 128,-1,32
 463 409 463 409 485 409 c 0,33,34
 523 409 523 409 557.5 393.5 c 128,-1,35
 592 378 592 378 617.5 351 c 128,-1,36
 643 324 643 324 658 287 c 128,-1,37
 673 250 673 250 673 207 c 0,38,39
 673 107 673 107 608.5 53.5 c 128,-1,40
 544 0 544 0 408 0 c 0,41,42
 342 0 342 0 288.5 22.5 c 128,-1,43
 235 45 235 45 196.5 87 c 128,-1,44
 158 129 158 129 137 187.5 c 128,-1,45
 116 246 116 246 116 318 c 2,46,-1
 116 658 l 2,47,48
 116 890 116 890 214.5 997 c 128,-1,49
 313 1104 313 1104 513 1104 c 0,50,51
 622 1104 622 1104 697.5 1062 c 128,-1,52
 773 1020 773 1020 802 938 c 1,53,54
 831 1014 831 1014 906 1059 c 128,-1,55
 981 1104 981 1104 1093 1104 c 0,0,1
506 212 m 0,56,57
 505 282 505 282 432 282 c 2,58,-1
 383 282 l 1,59,-1
 383 222 l 2,60,61
 383 180 383 180 400 159.5 c 128,-1,62
 417 139 417 139 448 139 c 0,63,64
 474 139 474 139 490 157.5 c 128,-1,65
 506 176 506 176 506 212 c 0,56,57
EndSplineSet
EndChar

StartChar: uni0E96
Encoding: 3734 3734 215
Width: 1352
GlyphClass: 2
Flags: W
LayerCount: 2
Fore
SplineSet
1031 661 m 2,0,1
 1031 801 1031 801 971 868 c 128,-1,2
 911 935 911 935 779 935 c 0,3,4
 725 935 725 935 670 917 c 128,-1,5
 615 899 615 899 545 856 c 1,6,-1
 545 386 l 1,7,-1
 580 398 l 2,8,9
 594 403 594 403 609.5 404 c 128,-1,10
 625 405 625 405 640 405 c 0,11,12
 680 405 680 405 715 390.5 c 128,-1,13
 750 376 750 376 776 349.5 c 128,-1,14
 802 323 802 323 817.5 286.5 c 128,-1,15
 833 250 833 250 833 207 c 0,16,17
 833 0 833 0 559 0 c 0,18,19
 495 0 495 0 443 24 c 128,-1,20
 391 48 391 48 354 92.5 c 128,-1,21
 317 137 317 137 297 199.5 c 128,-1,22
 277 262 277 262 277 339 c 2,23,-1
 277 724 l 1,24,25
 245 718 245 718 201 718 c 256,26,27
 157 718 157 718 119.5 732 c 128,-1,28
 82 746 82 746 54 771 c 128,-1,29
 26 796 26 796 10.5 831.5 c 128,-1,30
 -5 867 -5 867 -5 910 c 0,31,32
 -5 1004 -5 1004 54.5 1054 c 128,-1,33
 114 1104 114 1104 235 1104 c 0,34,35
 382 1104 382 1104 480 1009 c 1,36,37
 638 1104 638 1104 801 1104 c 0,38,39
 916 1104 916 1104 1008.5 1074 c 128,-1,40
 1101 1044 1101 1044 1165.5 987.5 c 128,-1,41
 1230 931 1230 931 1264.5 849 c 128,-1,42
 1299 767 1299 767 1299 662 c 2,43,-1
 1299 -311 l 1,44,-1
 1031 -311 l 1,45,-1
 1031 661 l 2,0,1
667 208 m 1,46,47
 661 280 661 280 591 283 c 1,48,-1
 545 283 l 1,49,-1
 545 226 l 1,50,51
 556 146 556 146 606 139 c 1,52,53
 631 139 631 139 649 156 c 128,-1,54
 667 173 667 173 667 208 c 1,46,47
162 923 m 1,55,56
 163 863 163 863 212 863 c 0,57,58
 241 863 241 863 277 878 c 1,59,60
 273 981 273 981 217 981 c 0,61,62
 190 981 190 981 176.5 965.5 c 128,-1,63
 163 950 163 950 162 923 c 1,55,56
EndSplineSet
EndChar

StartChar: uni0E97
Encoding: 3735 3735 216
Width: 1455
GlyphClass: 2
Flags: W
LayerCount: 2
Fore
SplineSet
528 0 m 0,0,1
 348 0 348 0 255 75 c 128,-1,2
 162 150 162 150 162 295 c 0,3,4
 162 318 162 318 167.5 342.5 c 128,-1,5
 173 367 173 367 181 398 c 2,6,-1
 266 705 l 1,7,8
 246 699 246 699 230.5 698 c 128,-1,9
 215 697 215 697 201 697 c 0,10,11
 161 697 161 697 127 713 c 128,-1,12
 93 729 93 729 68 756.5 c 128,-1,13
 43 784 43 784 29 821 c 128,-1,14
 15 858 15 858 15 901 c 0,15,16
 15 995 15 995 81.5 1049.5 c 128,-1,17
 148 1104 148 1104 284 1104 c 0,18,19
 338 1104 338 1104 387 1089.5 c 128,-1,20
 436 1075 436 1075 472.5 1048.5 c 128,-1,21
 509 1022 509 1022 530.5 985 c 128,-1,22
 552 948 552 948 552 902 c 0,23,24
 552 867 552 867 543 839 c 1,25,-1
 419 346 l 2,26,27
 417 334 417 334 415.5 322 c 128,-1,28
 414 310 414 310 414 299 c 2,29,-1
 414 288 l 1,30,31
 421 167 421 167 525 167 c 0,32,33
 596 167 596 167 624 237 c 128,-1,34
 652 307 652 307 652 457 c 2,35,-1
 652 737 l 2,36,37
 652 927 652 927 745.5 1015.5 c 128,-1,38
 839 1104 839 1104 1029 1104 c 0,39,40
 1213 1104 1213 1104 1296.5 1000.5 c 128,-1,41
 1380 897 1380 897 1380 683 c 2,42,-1
 1380 0 l 1,43,-1
 1112 0 l 1,44,-1
 1112 685 l 2,45,46
 1112 763 1112 763 1107 812 c 128,-1,47
 1102 861 1102 861 1091 888 c 128,-1,48
 1080 915 1080 915 1063 925 c 128,-1,49
 1046 935 1046 935 1021 935 c 0,50,51
 992 935 992 935 972.5 925.5 c 128,-1,52
 953 916 953 916 941 895.5 c 128,-1,53
 929 875 929 875 924 841.5 c 128,-1,54
 919 808 919 808 919 760 c 2,55,-1
 919 463 l 2,56,57
 919 227 919 227 821 113.5 c 128,-1,58
 723 0 723 0 528 0 c 0,0,1
182 892 m 1,59,60
 184 821 184 821 268 821 c 2,61,-1
 297 821 l 1,62,-1
 314 879 l 1,63,64
 318 886 318 886 318 901 c 0,65,66
 318 929 318 929 300 947 c 128,-1,67
 282 965 282 965 248 965 c 0,68,69
 217 965 217 965 199.5 947 c 128,-1,70
 182 929 182 929 182 892 c 1,59,60
EndSplineSet
EndChar

StartChar: uni0E99
Encoding: 3737 3737 217
Width: 1420
GlyphClass: 2
Flags: W
LayerCount: 2
Fore
SplineSet
336 1104 m 0,0,1
 399 1104 399 1104 452 1081 c 128,-1,2
 505 1058 505 1058 542.5 1015.5 c 128,-1,3
 580 973 580 973 601 912.5 c 128,-1,4
 622 852 622 852 622 777 c 2,5,-1
 622 467 l 2,6,7
 622 380 622 380 635 322.5 c 128,-1,8
 648 265 648 265 676 230.5 c 128,-1,9
 704 196 704 196 749 181.5 c 128,-1,10
 794 167 794 167 857 167 c 0,11,12
 923 167 923 167 967 181 c 128,-1,13
 1011 195 1011 195 1038 226.5 c 128,-1,14
 1065 258 1065 258 1076.5 309.5 c 128,-1,15
 1088 361 1088 361 1088 436 c 2,16,-1
 1088 1104 l 1,17,-1
 1355 1104 l 1,18,-1
 1355 470 l 2,19,20
 1355 237 1355 237 1232 118.5 c 128,-1,21
 1109 0 1109 0 864 0 c 0,22,23
 709 0 709 0 609 59 c 128,-1,24
 509 118 509 118 480 235 c 1,25,26
 454 123 454 123 366 61.5 c 128,-1,27
 278 0 278 0 124 0 c 1,28,-1
 124 170 l 1,29,30
 355 171 355 171 355 465 c 2,31,-1
 355 719 l 1,32,33
 292 698 292 698 261 698 c 0,34,35
 220 698 220 698 184 712 c 128,-1,36
 148 726 148 726 122 752.5 c 128,-1,37
 96 779 96 779 81 816 c 128,-1,38
 66 853 66 853 66 899 c 0,39,40
 66 996 66 996 131.5 1050 c 128,-1,41
 197 1104 197 1104 336 1104 c 0,0,1
291 965 m 1,42,43
 233 965 233 965 233 892 c 0,44,45
 233 858 233 858 253.5 839.5 c 128,-1,46
 274 821 274 821 312 821 c 2,47,-1
 355 821 l 1,48,-1
 355 877 l 2,49,50
 355 961 355 961 291 965 c 1,42,43
EndSplineSet
EndChar

StartChar: uni0E9A
Encoding: 3738 3738 218
Width: 1344
GlyphClass: 2
Flags: W
LayerCount: 2
Fore
SplineSet
274 1104 m 0,0,1
 330 1104 330 1104 379 1087 c 128,-1,2
 428 1070 428 1070 464 1039.5 c 128,-1,3
 500 1009 500 1009 521 966 c 128,-1,4
 542 923 542 923 542 871 c 0,5,6
 542 854 542 854 530.5 795.5 c 128,-1,7
 519 737 519 737 493 634 c 2,8,-1
 446 448 l 2,9,10
 427 375 427 375 427 325 c 0,11,12
 427 291 427 291 445 262 c 128,-1,13
 463 233 463 233 496.5 212 c 128,-1,14
 530 191 530 191 578.5 179 c 128,-1,15
 627 167 627 167 687 167 c 0,16,17
 776 167 776 167 836 180.5 c 128,-1,18
 896 194 896 194 933 225 c 128,-1,19
 970 256 970 256 985.5 306 c 128,-1,20
 1001 356 1001 356 1001 428 c 2,21,-1
 1001 1104 l 1,22,-1
 1269 1104 l 1,23,-1
 1269 478 l 2,24,25
 1269 229 1269 229 1127 114.5 c 128,-1,26
 985 0 985 0 691 0 c 0,27,28
 569 0 569 0 473 23.5 c 128,-1,29
 377 47 377 47 311 91 c 128,-1,30
 245 135 245 135 210.5 198 c 128,-1,31
 176 261 176 261 176 340 c 0,32,33
 176 363 176 363 181 389.5 c 128,-1,34
 186 416 186 416 194 445 c 2,35,-1
 266 706 l 1,36,37
 236 697 236 697 204 697 c 0,38,39
 165 697 165 697 130.5 712.5 c 128,-1,40
 96 728 96 728 70.5 755 c 128,-1,41
 45 782 45 782 30 818.5 c 128,-1,42
 15 855 15 855 15 896 c 0,43,44
 15 993 15 993 78.5 1048.5 c 128,-1,45
 142 1104 142 1104 274 1104 c 0,0,1
243 965 m 0,46,47
 182 965 182 965 182 889 c 0,48,49
 182 820 182 820 272 819 c 1,50,-1
 278 819 l 1,51,52
 279 820 279 820 288 820 c 2,53,-1
 296 820 l 1,54,-1
 305 847 l 2,55,56
 308 855 308 855 312 870 c 128,-1,57
 316 885 316 885 316 894 c 1,58,-1
 317 897 l 1,59,60
 317 928 317 928 298.5 946.5 c 128,-1,61
 280 965 280 965 243 965 c 0,46,47
EndSplineSet
EndChar

StartChar: uni0E9B
Encoding: 3739 3739 219
Width: 1353
GlyphClass: 2
Flags: W
LayerCount: 2
Fore
SplineSet
281 1104 m 0,0,1
 336 1104 336 1104 384 1087 c 128,-1,2
 432 1070 432 1070 467 1039 c 128,-1,3
 502 1008 502 1008 522 965 c 128,-1,4
 542 922 542 922 542 870 c 0,5,6
 542 856 542 856 536.5 820.5 c 128,-1,7
 531 785 531 785 516 725 c 2,8,-1
 446 448 l 2,9,10
 427 375 427 375 427 326 c 0,11,12
 427 253 427 253 495.5 210 c 128,-1,13
 564 167 564 167 706 167 c 0,14,15
 790 167 790 167 847.5 183.5 c 128,-1,16
 905 200 905 200 941 234.5 c 128,-1,17
 977 269 977 269 993 323 c 128,-1,18
 1009 377 1009 377 1009 451 c 2,19,-1
 1009 1427 l 1,20,-1
 1277 1427 l 1,21,-1
 1277 483 l 2,22,23
 1277 357 1277 357 1241.5 266 c 128,-1,24
 1206 175 1206 175 1134 116 c 128,-1,25
 1062 57 1062 57 952 28.5 c 128,-1,26
 842 0 842 0 694 0 c 0,27,28
 573 0 573 0 477 23 c 128,-1,29
 381 46 381 46 314 90 c 128,-1,30
 247 134 247 134 211.5 196.5 c 128,-1,31
 176 259 176 259 176 339 c 0,32,33
 176 370 176 370 184.5 405 c 128,-1,34
 193 440 193 440 204 481 c 2,35,-1
 267 705 l 1,36,37
 250 701 250 701 234 699 c 128,-1,38
 218 697 218 697 203 697 c 0,39,40
 165 697 165 697 131 712.5 c 128,-1,41
 97 728 97 728 71 754.5 c 128,-1,42
 45 781 45 781 30 817.5 c 128,-1,43
 15 854 15 854 15 896 c 0,44,45
 15 942 15 942 33.5 980.5 c 128,-1,46
 52 1019 52 1019 86.5 1046.5 c 128,-1,47
 121 1074 121 1074 170 1089 c 128,-1,48
 219 1104 219 1104 281 1104 c 0,0,1
253 965 m 0,49,50
 182 963 182 963 182 889 c 0,51,52
 182 819 182 819 266 819 c 2,53,-1
 297 819 l 1,54,-1
 308 857 l 2,55,56
 313 874 313 874 314.5 885.5 c 128,-1,57
 316 897 316 897 317 902 c 1,58,59
 317 931 317 931 301 948 c 128,-1,60
 285 965 285 965 253 965 c 0,49,50
EndSplineSet
EndChar

StartChar: uni0E9C
Encoding: 3740 3740 220
Width: 1577
GlyphClass: 2
Flags: W
LayerCount: 2
Fore
SplineSet
1107 965 m 0,0,1
 1083 965 1083 965 1065 946.5 c 128,-1,2
 1047 928 1047 928 1047 894 c 0,3,4
 1047 821 1047 821 1132 821 c 0,5,6
 1143 821 1143 821 1152.5 821 c 128,-1,7
 1162 821 1162 821 1170 822 c 1,8,-1
 1170 877 l 2,9,10
 1170 922 1170 922 1153.5 943 c 128,-1,11
 1137 964 1137 964 1107 965 c 0,0,1
468 965 m 1,12,13
 404 961 404 961 404 877 c 2,14,-1
 404 821 l 1,15,-1
 446 821 l 1,16,17
 485 823 485 823 506 841.5 c 128,-1,18
 527 860 527 860 527 896 c 0,19,20
 527 928 527 928 512.5 946.5 c 128,-1,21
 498 965 498 965 468 965 c 1,12,13
1078 698 m 0,22,23
 1035 698 1035 698 999 712.5 c 128,-1,24
 963 727 963 727 936.5 753.5 c 128,-1,25
 910 780 910 780 895.5 817 c 128,-1,26
 881 854 881 854 881 900 c 0,27,28
 881 1000 881 1000 947.5 1052 c 128,-1,29
 1014 1104 1014 1104 1149 1104 c 0,30,31
 1231 1104 1231 1104 1290 1071.5 c 128,-1,32
 1349 1039 1349 1039 1385 976 c 1,33,34
 1398 1012 1398 1012 1398 1077 c 2,35,-1
 1398 1231 l 1,36,-1
 1563 1231 l 1,37,-1
 1563 1077 l 2,38,39
 1563 999 1563 999 1529.5 935 c 128,-1,40
 1496 871 1496 871 1432 817 c 1,41,42
 1434 792 1434 792 1435.5 771.5 c 128,-1,43
 1437 751 1437 751 1437 734 c 2,44,-1
 1437 482 l 2,45,46
 1437 0 1437 0 1083 0 c 0,47,48
 952 0 952 0 877.5 54.5 c 128,-1,49
 803 109 803 109 783 215 c 1,50,51
 744 0 744 0 485 0 c 0,52,53
 306 0 306 0 221.5 123 c 128,-1,54
 137 246 137 246 137 482 c 2,55,-1
 137 764 l 2,56,57
 137 842 137 842 156 905 c 128,-1,58
 175 968 175 968 211.5 1012 c 128,-1,59
 248 1056 248 1056 301 1080 c 128,-1,60
 354 1104 354 1104 422 1104 c 0,61,62
 563 1104 563 1104 628.5 1051.5 c 128,-1,63
 694 999 694 999 694 899 c 0,64,65
 694 857 694 857 680 820.5 c 128,-1,66
 666 784 666 784 640 757 c 128,-1,67
 614 730 614 730 578 714 c 128,-1,68
 542 698 542 698 498 698 c 0,69,70
 449 698 449 698 404 717 c 1,71,-1
 404 405 l 2,72,73
 404 337 404 337 411 291.5 c 128,-1,74
 418 246 418 246 433 218 c 128,-1,75
 448 190 448 190 470.5 178.5 c 128,-1,76
 493 167 493 167 523 167 c 0,77,78
 586 167 586 167 619 226 c 128,-1,79
 652 285 652 285 652 405 c 2,80,-1
 652 555 l 1,81,-1
 920 555 l 1,82,-1
 920 407 l 2,83,84
 920 286 920 286 951 226.5 c 128,-1,85
 982 167 982 167 1048 167 c 256,86,87
 1114 167 1114 167 1142 224.5 c 128,-1,88
 1170 282 1170 282 1170 403 c 2,89,-1
 1170 705 l 1,90,91
 1151 701 1151 701 1128 699.5 c 128,-1,92
 1105 698 1105 698 1078 698 c 0,22,23
EndSplineSet
EndChar

StartChar: uni0E9D
Encoding: 3741 3741 221
Width: 1555
GlyphClass: 2
Flags: W
LayerCount: 2
Fore
SplineSet
543 167 m 0,0,1
 622 167 622 167 654 224 c 128,-1,2
 686 281 686 281 686 405 c 2,3,-1
 686 555 l 1,4,-1
 954 555 l 1,5,-1
 954 405 l 2,6,7
 954 278 954 278 987.5 222.5 c 128,-1,8
 1021 167 1021 167 1089 167 c 0,9,10
 1168 167 1168 167 1200 224.5 c 128,-1,11
 1232 282 1232 282 1232 405 c 2,12,-1
 1232 1427 l 1,13,-1
 1500 1427 l 1,14,-1
 1500 482 l 2,15,16
 1500 237 1500 237 1406.5 118.5 c 128,-1,17
 1313 0 1313 0 1128 0 c 0,18,19
 862 0 862 0 820 207 c 1,20,-1
 818 215 l 1,21,22
 799 109 799 109 727 54.5 c 128,-1,23
 655 0 655 0 538 0 c 0,24,25
 431 0 431 0 355 30.5 c 128,-1,26
 279 61 279 61 230 121.5 c 128,-1,27
 181 182 181 182 158.5 272.5 c 128,-1,28
 136 363 136 363 136 482 c 2,29,-1
 136 774 l 2,30,31
 136 845 136 845 156 905.5 c 128,-1,32
 176 966 176 966 212.5 1010 c 128,-1,33
 249 1054 249 1054 300.5 1079 c 128,-1,34
 352 1104 352 1104 416 1104 c 0,35,36
 692 1104 692 1104 692 902 c 0,37,38
 692 858 692 858 678.5 820.5 c 128,-1,39
 665 783 665 783 640 756 c 128,-1,40
 615 729 615 729 579 713.5 c 128,-1,41
 543 698 543 698 498 698 c 0,42,43
 472 698 472 698 403 718 c 1,44,-1
 403 405 l 2,45,46
 403 335 403 335 411 289 c 128,-1,47
 419 243 419 243 436 216 c 128,-1,48
 453 189 453 189 479.5 178 c 128,-1,49
 506 167 506 167 543 167 c 0,0,1
468 965 m 0,50,51
 403 965 403 965 403 877 c 2,52,-1
 403 821 l 1,53,-1
 444 821 l 1,54,55
 522 832 522 832 526 899 c 1,56,57
 526 926 526 926 511 945.5 c 128,-1,58
 496 965 496 965 468 965 c 0,50,51
EndSplineSet
EndChar

StartChar: uni0E9E
Encoding: 3742 3742 222
Width: 1516
GlyphClass: 2
Flags: W
LayerCount: 2
Fore
SplineSet
530 167 m 0,0,1
 569 167 569 167 594.5 179 c 128,-1,2
 620 191 620 191 635 217.5 c 128,-1,3
 650 244 650 244 656.5 285 c 128,-1,4
 663 326 663 326 663 384 c 2,5,-1
 663 1103 l 1,6,-1
 931 1103 l 1,7,-1
 931 384 l 2,8,9
 931 266 931 266 963.5 216.5 c 128,-1,10
 996 167 996 167 1062 167 c 0,11,12
 1131 167 1131 167 1157.5 218.5 c 128,-1,13
 1184 270 1184 270 1184 383 c 2,14,-1
 1184 1104 l 1,15,-1
 1451 1104 l 1,16,-1
 1451 483 l 2,17,18
 1451 238 1451 238 1362.5 119 c 128,-1,19
 1274 0 1274 0 1097 0 c 0,20,21
 845 0 845 0 796 231 c 1,22,23
 778 122 778 122 704 61 c 128,-1,24
 630 0 630 0 496 0 c 0,25,26
 421 0 421 0 361 20.5 c 128,-1,27
 301 41 301 41 260 81 c 128,-1,28
 219 121 219 121 197 178.5 c 128,-1,29
 175 236 175 236 175 311 c 0,30,31
 175 342 175 342 179 375 c 128,-1,32
 183 408 183 408 193 443 c 2,33,-1
 265 705 l 1,34,35
 249 701 249 701 234 699 c 128,-1,36
 219 697 219 697 203 697 c 0,37,38
 164 697 164 697 129.5 712 c 128,-1,39
 95 727 95 727 69.5 754 c 128,-1,40
 44 781 44 781 29.5 817.5 c 128,-1,41
 15 854 15 854 15 896 c 0,42,43
 15 993 15 993 77 1048.5 c 128,-1,44
 139 1104 139 1104 269 1104 c 0,45,46
 325 1104 325 1104 374.5 1088 c 128,-1,47
 424 1072 424 1072 461.5 1042.5 c 128,-1,48
 499 1013 499 1013 520.5 972 c 128,-1,49
 542 931 542 931 542 881 c 0,50,51
 542 854 542 854 530 790 c 1,52,-1
 441 431 l 1,53,54
 434 389 434 389 430.5 358.5 c 128,-1,55
 427 328 427 328 427 308 c 0,56,57
 427 168 427 168 530 167 c 0,0,1
182 894 m 1,58,59
 182 855 182 855 202 837.5 c 128,-1,60
 222 820 222 820 267 820 c 2,61,-1
 296 820 l 1,62,-1
 308 863 l 2,63,64
 310 871 310 871 313 882 c 128,-1,65
 316 893 316 893 316 901 c 0,66,67
 316 936 316 936 297.5 950.5 c 128,-1,68
 279 965 279 965 247 965 c 1,69,70
 187 959 187 959 182 894 c 1,58,59
EndSplineSet
EndChar

StartChar: uni0E9F
Encoding: 3743 3743 223
Width: 1512
GlyphClass: 2
Flags: W
LayerCount: 2
Fore
SplineSet
15 908 m 0,0,1
 15 999 15 999 80 1051.5 c 128,-1,2
 145 1104 145 1104 280 1104 c 0,3,4
 334 1104 334 1104 381 1090 c 128,-1,5
 428 1076 428 1076 462.5 1051 c 128,-1,6
 497 1026 497 1026 516.5 991.5 c 128,-1,7
 536 957 536 957 536 916 c 256,8,9
 536 875 536 875 515 787 c 2,10,-1
 433 451 l 2,11,12
 420 398 420 398 416 366.5 c 128,-1,13
 412 335 412 335 412 325 c 0,14,15
 412 167 412 167 519 167 c 0,16,17
 557 167 557 167 582 180 c 128,-1,18
 607 193 607 193 622 219.5 c 128,-1,19
 637 246 637 246 643 287 c 128,-1,20
 649 328 649 328 649 384 c 2,21,-1
 649 1103 l 1,22,-1
 916 1103 l 1,23,-1
 916 383 l 2,24,25
 916 267 916 267 948 217 c 128,-1,26
 980 167 980 167 1048 167 c 0,27,28
 1082 167 1082 167 1105.5 179 c 128,-1,29
 1129 191 1129 191 1143 217.5 c 128,-1,30
 1157 244 1157 244 1163 285 c 128,-1,31
 1169 326 1169 326 1169 384 c 2,32,-1
 1169 1428 l 1,33,-1
 1436 1428 l 1,34,-1
 1436 483 l 2,35,36
 1436 0 1436 0 1083 0 c 0,37,38
 835 0 835 0 782 221 c 1,39,-1
 780 231 l 1,40,41
 736 7 736 7 491 0 c 1,42,-1
 481 0 l 1,43,44
 321 1 321 1 241 79 c 128,-1,45
 161 157 161 157 161 317 c 0,46,47
 161 338 161 338 165 372 c 128,-1,48
 169 406 169 406 182 452 c 2,49,-1
 259 735 l 1,50,51
 229 722 229 722 178 722 c 0,52,53
 103 722 103 722 59 771 c 128,-1,54
 15 820 15 820 15 908 c 0,0,1
238 978 m 1,55,56
 172 967 172 967 168 908 c 1,57,58
 168 860 168 860 194.5 845 c 128,-1,59
 221 830 221 830 286 830 c 1,60,-1
 293 853 l 1,61,-1
 307 913 l 1,62,-1
 307 919 l 1,63,64
 306 976 306 976 238 978 c 1,55,56
EndSplineSet
EndChar

StartChar: uni0EA1
Encoding: 3745 3745 224
Width: 1664
GlyphClass: 2
Flags: W
LayerCount: 2
Fore
SplineSet
1069 167 m 0,0,1
 1201 167 1201 167 1256 233.5 c 128,-1,2
 1311 300 1311 300 1311 438 c 2,3,-1
 1311 1104 l 1,4,-1
 1578 1104 l 1,5,-1
 1578 478 l 2,6,7
 1578 0 1578 0 1087 0 c 0,8,9
 1012 0 1012 0 947.5 16 c 128,-1,10
 883 32 883 32 833.5 62 c 128,-1,11
 784 92 784 92 750.5 136 c 128,-1,12
 717 180 717 180 703 236 c 1,13,14
 690 182 690 182 655.5 138.5 c 128,-1,15
 621 95 621 95 569.5 64.5 c 128,-1,16
 518 34 518 34 453 17 c 128,-1,17
 388 0 388 0 315 0 c 0,18,19
 250 0 250 0 198 14 c 128,-1,20
 146 28 146 28 110 55.5 c 128,-1,21
 74 83 74 83 54.5 123 c 128,-1,22
 35 163 35 163 35 215 c 0,23,24
 35 255 35 255 50 290.5 c 128,-1,25
 65 326 65 326 92 351.5 c 128,-1,26
 119 377 119 377 157 392 c 128,-1,27
 195 407 195 407 241 407 c 0,28,29
 350 407 350 407 407 360 c 128,-1,30
 464 313 464 313 464 225 c 0,31,32
 464 185 464 185 454 166 c 1,33,34
 571 239 571 239 571 470 c 2,35,-1
 571 1104 l 1,36,-1
 839 1104 l 1,37,-1
 839 477 l 2,38,39
 839 313 839 313 896 240 c 128,-1,40
 953 167 953 167 1069 167 c 0,0,1
323 212 m 1,41,42
 319 246 319 246 304 264.5 c 128,-1,43
 289 283 289 283 261 283 c 0,44,45
 231 283 231 283 217 263.5 c 128,-1,46
 203 244 203 244 203 218 c 0,47,48
 203 176 203 176 232.5 160 c 128,-1,49
 262 144 262 144 323 140 c 1,50,-1
 323 212 l 1,41,42
EndSplineSet
EndChar

StartChar: uni0EA2
Encoding: 3746 3746 225
Width: 1277
GlyphClass: 2
Flags: W
LayerCount: 2
Fore
SplineSet
663 168 m 0,0,1
 740 168 740 168 792.5 180.5 c 128,-1,2
 845 193 845 193 877 222.5 c 128,-1,3
 909 252 909 252 923 301 c 128,-1,4
 937 350 937 350 937 423 c 2,5,-1
 937 1073 l 2,6,7
 937 1330 937 1330 1001 1489 c 1,8,-1
 1253 1489 l 1,9,10
 1231 1398 1231 1398 1217.5 1290.5 c 128,-1,11
 1204 1183 1204 1183 1204 1050 c 2,12,-1
 1204 446 l 2,13,14
 1204 328 1204 328 1172 243.5 c 128,-1,15
 1140 159 1140 159 1073 105 c 128,-1,16
 1006 51 1006 51 904 25.5 c 128,-1,17
 802 0 802 0 663 0 c 0,18,19
 397 0 397 0 262 72 c 128,-1,20
 127 144 127 144 127 290 c 0,21,22
 127 336 127 336 145 375 c 128,-1,23
 163 414 163 414 196.5 442 c 128,-1,24
 230 470 230 470 276.5 485.5 c 128,-1,25
 323 501 323 501 380 501 c 1,26,27
 324 507 324 507 278 529 c 128,-1,28
 232 551 232 551 198 586.5 c 128,-1,29
 164 622 164 622 145.5 668.5 c 128,-1,30
 127 715 127 715 127 771 c 0,31,32
 127 845 127 845 147.5 906.5 c 128,-1,33
 168 968 168 968 206.5 1012 c 128,-1,34
 245 1056 245 1056 299 1080 c 128,-1,35
 353 1104 353 1104 420 1104 c 0,36,37
 684 1104 684 1104 684 887 c 0,38,39
 684 845 684 845 668.5 810 c 128,-1,40
 653 775 653 775 626 749.5 c 128,-1,41
 599 724 599 724 563 710 c 128,-1,42
 527 696 527 696 486 696 c 0,43,44
 470 696 470 696 450.5 701 c 128,-1,45
 431 706 431 706 394 718 c 1,46,-1
 394 712 l 2,47,48
 394 645 394 645 428.5 613.5 c 128,-1,49
 463 582 463 582 535 582 c 2,50,-1
 683 582 l 1,51,-1
 683 425 l 1,52,-1
 535 425 l 2,53,54
 466 425 466 425 430 391.5 c 128,-1,55
 394 358 394 358 394 293 c 0,56,57
 394 259 394 259 409 235.5 c 128,-1,58
 424 212 424 212 456.5 197 c 128,-1,59
 489 182 489 182 540 175 c 128,-1,60
 591 168 591 168 663 168 c 0,0,1
455 965 m 1,61,62
 394 964 394 964 394 866 c 2,63,-1
 394 820 l 1,64,-1
 445 820 l 2,65,66
 477 820 477 820 497 838 c 128,-1,67
 517 856 517 856 517 888 c 0,68,69
 517 965 517 965 455 965 c 1,61,62
EndSplineSet
EndChar

StartChar: uni0EA3
Encoding: 3747 3747 226
Width: 1271
GlyphClass: 2
Flags: W
LayerCount: 2
Fore
SplineSet
326 566 m 0,0,1
 373 566 373 566 415 551.5 c 128,-1,2
 457 537 457 537 488 510.5 c 128,-1,3
 519 484 519 484 537 446.5 c 128,-1,4
 555 409 555 409 555 364 c 0,5,6
 555 331 555 331 542 299.5 c 128,-1,7
 529 268 529 268 506 243.5 c 128,-1,8
 483 219 483 219 452.5 204.5 c 128,-1,9
 422 190 422 190 386 190 c 1,10,-1
 354 195 l 1,11,12
 425 164 425 164 635 164 c 0,13,14
 708 164 708 164 767.5 176.5 c 128,-1,15
 827 189 827 189 869 212.5 c 128,-1,16
 911 236 911 236 934 269.5 c 128,-1,17
 957 303 957 303 957 345 c 0,18,19
 957 385 957 385 938.5 415.5 c 128,-1,20
 920 446 920 446 873.5 471.5 c 128,-1,21
 827 497 827 497 748.5 519.5 c 128,-1,22
 670 542 670 542 549 566 c 0,23,24
 461 583 461 583 380 602.5 c 128,-1,25
 299 622 299 622 236.5 654.5 c 128,-1,26
 174 687 174 687 137 738.5 c 128,-1,27
 100 790 100 790 100 873 c 0,28,29
 100 991 100 991 228 1047.5 c 128,-1,30
 356 1104 356 1104 613 1104 c 0,31,32
 767 1104 767 1104 873.5 1086 c 128,-1,33
 980 1068 980 1068 1046 1029.5 c 128,-1,34
 1112 991 1112 991 1141.5 930.5 c 128,-1,35
 1171 870 1171 870 1171 785 c 2,36,-1
 1171 764 l 1,37,-1
 929 764 l 1,38,-1
 929 789 l 2,39,40
 929 832 929 832 912.5 860.5 c 128,-1,41
 896 889 896 889 859 905.5 c 128,-1,42
 822 922 822 922 762.5 928.5 c 128,-1,43
 703 935 703 935 618 935 c 0,44,45
 547 935 547 935 499 931.5 c 128,-1,46
 451 928 451 928 422 920 c 128,-1,47
 393 912 393 912 380.5 899.5 c 128,-1,48
 368 887 368 887 368 869 c 0,49,50
 369 849 369 849 380 835 c 128,-1,51
 391 821 391 821 423 809 c 128,-1,52
 455 797 455 797 513.5 784.5 c 128,-1,53
 572 772 572 772 669 754 c 0,54,55
 813 728 813 728 915 695.5 c 128,-1,56
 1017 663 1017 663 1081.5 617.5 c 128,-1,57
 1146 572 1146 572 1175.5 510 c 128,-1,58
 1205 448 1205 448 1205 361 c 0,59,60
 1205 277 1205 277 1165.5 210 c 128,-1,61
 1126 143 1126 143 1053 96.5 c 128,-1,62
 980 50 980 50 876 25 c 128,-1,63
 772 0 772 0 644 0 c 0,64,65
 521 0 521 0 418 22.5 c 128,-1,66
 315 45 315 45 241.5 87.5 c 128,-1,67
 168 130 168 130 127 190.5 c 128,-1,68
 86 251 86 251 86 328 c 0,69,70
 86 443 86 443 145.5 504.5 c 128,-1,71
 205 566 205 566 326 566 c 0,0,1
327 429 m 1,72,73
 263 428 263 428 261 316 c 0,74,75
 261 310 261 310 262.5 301.5 c 128,-1,76
 264 293 264 293 266 282 c 1,77,-1
 302 282 l 1,78,79
 344 284 344 284 366.5 301 c 128,-1,80
 389 318 389 318 389 352 c 0,81,82
 389 390 389 390 372.5 409 c 128,-1,83
 356 428 356 428 327 429 c 1,72,73
EndSplineSet
EndChar

StartChar: uni0EA5
Encoding: 3749 3749 227
Width: 1295
GlyphClass: 2
Flags: W
LayerCount: 2
Fore
SplineSet
425 216 m 1,0,1
 425 277 425 277 360 283 c 1,2,-1
 303 283 l 1,3,-1
 303 278 l 2,4,5
 303 237 303 237 306 210.5 c 128,-1,6
 309 184 309 184 315.5 168 c 128,-1,7
 322 152 322 152 332.5 145.5 c 128,-1,8
 343 139 343 139 359 139 c 0,9,10
 391 139 391 139 407.5 159.5 c 128,-1,11
 424 180 424 180 425 216 c 1,0,1
673 935 m 1,12,13
 523 935 523 935 448.5 885 c 128,-1,14
 374 835 374 835 361 736 c 1,15,-1
 145 736 l 1,16,17
 145 825 145 825 180.5 893.5 c 128,-1,18
 216 962 216 962 284 1009 c 128,-1,19
 352 1056 352 1056 451 1080 c 128,-1,20
 550 1104 550 1104 678 1104 c 0,21,22
 826 1104 826 1104 933 1075.5 c 128,-1,23
 1040 1047 1040 1047 1108 989 c 128,-1,24
 1176 931 1176 931 1208.5 843 c 128,-1,25
 1241 755 1241 755 1241 636 c 2,26,-1
 1241 373 l 2,27,28
 1241 274 1241 274 1224 203 c 128,-1,29
 1207 132 1207 132 1172 87 c 128,-1,30
 1137 42 1137 42 1084 21 c 128,-1,31
 1031 0 1031 0 959 0 c 0,32,33
 835 0 835 0 748 111 c 0,34,35
 740 121 740 121 725 145 c 128,-1,36
 710 169 710 169 691 201 c 128,-1,37
 672 233 672 233 650.5 268.5 c 128,-1,38
 629 304 629 304 608.5 336 c 128,-1,39
 588 368 588 368 570 393 c 128,-1,40
 552 418 552 418 540 429 c 0,41,42
 490 470 490 470 441 470 c 0,43,44
 358 470 358 470 324 404 c 1,45,-1
 318 390 l 1,46,47
 356 406 356 406 387 406 c 2,48,-1
 408 406 l 1,49,50
 445 402 445 402 477 385.5 c 128,-1,51
 509 369 509 369 532 343 c 128,-1,52
 555 317 555 317 568 282 c 128,-1,53
 581 247 581 247 581 206 c 0,54,55
 581 112 581 112 520 56 c 128,-1,56
 459 0 459 0 344 0 c 0,57,58
 226 0 226 0 161 71.5 c 128,-1,59
 96 143 96 143 96 290 c 0,60,61
 96 364 96 364 122 427.5 c 128,-1,62
 148 491 148 491 194.5 537 c 128,-1,63
 241 583 241 583 304 609 c 128,-1,64
 367 635 367 635 441 635 c 256,65,66
 515 635 515 635 573.5 614 c 128,-1,67
 632 593 632 593 682 550 c 128,-1,68
 732 507 732 507 776 440.5 c 128,-1,69
 820 374 820 374 865 283 c 0,70,71
 887 239 887 239 899.5 223.5 c 128,-1,72
 912 208 912 208 923 208 c 0,73,74
 940 208 940 208 950 213 c 128,-1,75
 960 218 960 218 965 234 c 128,-1,76
 970 250 970 250 971.5 281 c 128,-1,77
 973 312 973 312 973 365 c 2,78,-1
 973 623 l 2,79,80
 973 710 973 710 961 768.5 c 128,-1,81
 949 827 949 827 916 862.5 c 128,-1,82
 883 898 883 898 824.5 914.5 c 128,-1,83
 766 931 766 931 673 935 c 1,12,13
EndSplineSet
EndChar

StartChar: uni0EA7
Encoding: 3751 3751 228
Width: 1236
GlyphClass: 2
Flags: W
LayerCount: 2
Fore
SplineSet
606 152 m 0,0,1
 774 152 774 152 848.5 226.5 c 128,-1,2
 923 301 923 301 923 456 c 2,3,-1
 923 623 l 2,4,5
 923 705 923 705 912.5 764.5 c 128,-1,6
 902 824 902 824 870.5 861.5 c 128,-1,7
 839 899 839 899 781 917 c 128,-1,8
 723 935 723 935 627 935 c 0,9,10
 555 935 555 935 503.5 923.5 c 128,-1,11
 452 912 452 912 417.5 888 c 128,-1,12
 383 864 383 864 364 827 c 128,-1,13
 345 790 345 790 337 738 c 1,14,-1
 120 738 l 1,15,16
 120 824 120 824 153.5 892 c 128,-1,17
 187 960 187 960 251.5 1007 c 128,-1,18
 316 1054 316 1054 411.5 1079 c 128,-1,19
 507 1104 507 1104 632 1104 c 0,20,21
 780 1104 780 1104 886 1076.5 c 128,-1,22
 992 1049 992 1049 1060 992 c 128,-1,23
 1128 935 1128 935 1159.5 846.5 c 128,-1,24
 1191 758 1191 758 1191 636 c 2,25,-1
 1191 450 l 2,26,27
 1191 233 1191 233 1048 116.5 c 128,-1,28
 905 0 905 0 632 0 c 0,29,30
 510 0 510 0 409.5 21.5 c 128,-1,31
 309 43 309 43 237 83.5 c 128,-1,32
 165 124 165 124 125.5 181.5 c 128,-1,33
 86 239 86 239 86 311 c 0,34,35
 86 429 86 429 147 491.5 c 128,-1,36
 208 554 208 554 326 554 c 0,37,38
 377 554 377 554 420 539.5 c 128,-1,39
 463 525 463 525 494.5 499 c 128,-1,40
 526 473 526 473 544 435.5 c 128,-1,41
 562 398 562 398 562 352 c 0,42,43
 562 316 562 316 549 284.5 c 128,-1,44
 536 253 536 253 513.5 229 c 128,-1,45
 491 205 491 205 460 191.5 c 128,-1,46
 429 178 429 178 393 178 c 1,47,-1
 341 187 l 1,48,49
 431 152 431 152 606 152 c 0,0,1
331 417 m 1,50,51
 301 416 301 416 284 388.5 c 128,-1,52
 267 361 267 361 267 304 c 0,53,54
 267 277 267 277 271 270 c 1,55,-1
 299 270 l 2,56,57
 347 270 347 270 371 288.5 c 128,-1,58
 395 307 395 307 395 339 c 0,59,60
 395 375 395 375 378.5 396 c 128,-1,61
 362 417 362 417 331 417 c 1,50,51
EndSplineSet
EndChar

